<svg width="37" height="45" viewBox="0 0 37 45" fill="none" xmlns="http://www.w3.org/2000/svg">
<path fill-rule="evenodd" clip-rule="evenodd" d="M19.1938 1.95538e-06C20.2225 -0.000962413 21.2197 0.354811 22.0155 1.0067C22.8113 1.65858 23.3565 2.56624 23.558 3.575C23.7596 4.58376 23.6051 5.63121 23.121 6.53885C22.6368 7.44649 21.8529 8.15816 20.9028 8.55259C19.9527 8.94702 18.8952 8.9998 17.9106 8.70194C16.926 8.40407 16.0751 7.774 15.5029 6.91908C14.9308 6.06416 14.6728 5.0373 14.7729 4.01348C14.873 2.98966 15.3251 2.03223 16.052 1.30434C16.4638 0.890503 16.9534 0.562211 17.4926 0.338356C18.0318 0.114501 18.61 -0.000490841 19.1938 1.95538e-06ZM4.04628 34.6509C3.75998 34.9521 3.5194 35.2937 3.33223 35.6648C3.14326 36.0389 3.00862 36.438 2.93235 36.8502V36.9263V36.9787C2.815 37.7985 2.93047 38.6348 3.26559 39.3922C3.29891 39.4636 3.32748 39.5303 3.3608 39.5874L3.46076 39.7635C4.04787 40.7441 4.99874 41.453 6.10619 41.7357C7.21363 42.0183 8.3879 41.8519 9.37316 41.2726L13.7908 38.6543L13.748 38.5972L10.4442 34.7508C9.6959 33.8868 8.63728 33.3523 7.49768 33.2632C6.35808 33.1741 5.22927 33.5375 4.35572 34.2748L4.19387 34.4224L4.04628 34.5699V34.6509ZM26.9723 22.3643L28.6765 20.3364C29.407 19.4578 29.7613 18.3265 29.6623 17.1882C29.5634 16.0499 29.0192 14.9967 28.1481 14.2574C27.2696 13.5269 26.1382 13.1726 25 13.2716C23.8617 13.3705 22.8085 13.9146 22.0691 14.7858L21.117 15.9045L20.641 16.4852L20.4934 16.6661C20.3392 16.8565 20.1449 17.0106 19.9243 17.1173C19.7037 17.2241 19.4622 17.2808 19.2172 17.2835C18.9722 17.2862 18.7296 17.2349 18.5066 17.1331C18.2837 17.0313 18.086 16.8816 17.9276 16.6947L17.8514 16.6042L16.3281 14.7858C15.5896 13.9153 14.5376 13.3712 13.4005 13.2714C12.2633 13.1716 11.1327 13.5241 10.2538 14.2526C9.38061 14.9914 8.83463 16.0453 8.73477 17.1847C8.63491 18.3242 8.98927 19.4569 9.72067 20.3364L15.8044 27.5864C16.3186 28.2021 16.8295 28.8178 17.3373 29.4335L19.9745 32.6753L21.3693 34.389L26.1012 31.5328C27.6992 30.5646 29.6113 30.2562 31.4327 30.6729C33.2541 31.0896 34.8419 32.1987 35.86 33.7654L35.9552 33.9273C36.0218 34.0368 36.0837 34.1463 36.1408 34.2462C36.1979 34.3462 36.2646 34.4842 36.3074 34.5699C36.6016 35.1944 36.8036 35.8583 36.9072 36.5407C37.0127 37.2248 37.0207 37.9204 36.931 38.6067V38.6448V38.7257V38.8067V38.8495C36.8134 39.532 36.5986 40.194 36.2932 40.8156C35.9897 41.435 35.5985 42.0074 35.1316 42.515C35.0602 42.5959 34.9745 42.6816 34.8793 42.7721L34.6794 42.9577L34.6127 43.0196C33.904 43.6479 33.0782 44.1302 32.1828 44.439C31.2874 44.7477 30.3399 44.8768 29.3945 44.8189C28.4492 44.761 27.5245 44.5172 26.6735 44.1014C25.8224 43.6856 25.0618 43.1061 24.435 42.396L20.5886 38.0212L18.2084 39.4779L20.7838 42.4627C20.9066 42.6046 21.0003 42.7693 21.0595 42.9474C21.1187 43.1255 21.1422 43.3135 21.1287 43.5007C21.1153 43.6879 21.065 43.8707 20.9809 44.0385C20.8968 44.2062 20.7805 44.3558 20.6386 44.4787C20.4967 44.6015 20.332 44.6952 20.1539 44.7544C19.9758 44.8136 19.7877 44.8371 19.6005 44.8236C19.4133 44.8101 19.2306 44.7599 19.0628 44.6758C18.895 44.5917 18.7454 44.4754 18.6226 44.3335L15.6997 40.9441L10.8298 43.8241C9.21645 44.7688 7.29879 45.0486 5.48274 44.6044C3.66668 44.1601 2.09475 43.0267 1.09962 41.4439L0.999639 41.2821C0.942514 41.1869 0.885392 41.0774 0.823507 40.9631C0.761622 40.8489 0.709259 40.7394 0.661655 40.6347C0.371994 40.0079 0.17476 39.3425 0.0761224 38.6591C-0.0214679 37.9739 -0.0214679 37.2783 0.0761224 36.5931V36.5503V36.4741V36.3979V36.3551C0.321972 34.9861 0.962271 33.7187 1.91839 32.7086L2.17545 32.4516L2.36587 32.2802L2.45157 32.2088C3.89687 30.9733 5.77281 30.3607 7.66873 30.5053C9.56464 30.6498 11.3261 31.5396 12.5674 32.98L16.2614 37.2643L18.7654 35.7315C18.5464 35.4887 18.3275 35.2554 18.118 34.9793C16.4328 32.9133 14.7857 30.8235 13.0529 28.7908L7.52614 22.2024C6.31633 20.7555 5.72366 18.8911 5.87594 17.0112C6.02822 15.1313 6.91325 13.3866 8.34016 12.1533L8.41156 12.0914C9.85494 10.8817 11.7154 10.2867 13.5929 10.4345C15.4704 10.5823 17.2149 11.461 18.4512 12.8816C18.694 13.1196 18.9273 13.3576 19.1938 13.6576C19.4461 13.3814 19.6937 13.1196 19.9365 12.8768C21.1711 11.4517 22.916 10.5684 24.7955 10.417C26.675 10.2657 28.5388 10.8584 29.9856 12.0676L30.057 12.1295C31.484 13.3628 32.369 15.1075 32.5213 16.9874C32.6735 18.8673 32.0809 20.7317 30.8711 22.1786L28.9669 24.4446C28.5623 24.9206 28.1576 25.3967 27.7435 25.8727C27.4953 26.1585 27.1438 26.3341 26.7662 26.3609C26.3887 26.3876 26.0159 26.2634 25.7299 26.0155L25.6965 25.9869L25.4585 25.7061C25.3182 25.4859 25.2408 25.2315 25.235 24.9705C25.2291 24.7095 25.2949 24.4519 25.4252 24.2256L26.1773 23.3259L26.9676 22.3738L26.9723 22.3643ZM34.0843 36.9596C34.0215 36.5543 33.9013 36.16 33.7273 35.7886C33.6845 35.6981 33.6511 35.6315 33.6273 35.5934L33.5321 35.422C32.9325 34.4488 31.9722 33.7524 30.8609 33.4848C29.7496 33.2172 28.5775 33.4003 27.6007 33.9939L23.2116 36.6645L26.6058 40.5252C26.9779 40.952 27.4314 41.3003 27.9399 41.5496C28.4483 41.7989 29.0014 41.9442 29.5667 41.9771C30.1312 42.0159 30.6979 41.9425 31.2338 41.7611C31.7698 41.5797 32.2646 41.2939 32.6895 40.9203L32.8466 40.7727C32.8895 40.7299 32.9418 40.6775 32.9942 40.6156C33.2776 40.3123 33.5149 39.9691 33.6987 39.5969C33.8823 39.2206 34.0106 38.8198 34.0796 38.4068V38.3544V38.2735C34.1391 37.8599 34.1391 37.4399 34.0796 37.0263L34.0843 36.9596ZM20.3078 3.33227C20.0123 3.03693 19.6116 2.87102 19.1938 2.87102C18.7761 2.87102 18.3754 3.03693 18.0799 3.33227C17.9338 3.47817 17.8179 3.65145 17.7388 3.84217C17.6598 4.0329 17.6191 4.23735 17.6191 4.44382C17.6191 4.65029 17.6598 4.85474 17.7388 5.04547C17.8179 5.2362 17.9338 5.40947 18.0799 5.55537C18.3754 5.85072 18.7761 6.01663 19.1938 6.01663C19.6116 6.01663 20.0123 5.85072 20.3078 5.55537C20.4539 5.40947 20.5698 5.2362 20.6488 5.04547C20.7279 4.85474 20.7686 4.65029 20.7686 4.44382C20.7686 4.23735 20.7279 4.0329 20.6488 3.84217C20.5698 3.65145 20.4539 3.47817 20.3078 3.33227Z" fill="#1B2CC1"/>
</svg>
