<svg width="459" height="181" viewBox="0 0 459 181" fill="none" xmlns="http://www.w3.org/2000/svg">
<path d="M35.5885 72.9352C24.2897 72.9352 15.6651 69.7929 9.71483 63.5083C3.8314 57.2238 0.889683 48.2983 0.889683 36.732C0.889683 30.9823 1.79225 25.8678 3.5974 21.3883C5.40254 16.842 7.87626 13.0312 11.0185 9.95575C14.1608 6.81347 17.9048 4.44004 22.2505 2.83546C26.5963 1.23089 31.3097 0.428608 36.3908 0.428608C39.3325 0.428608 42.0068 0.662609 44.4137 1.13061C46.8205 1.53175 48.9265 2.03318 50.7317 2.6349C52.5368 3.16975 54.0411 3.73804 55.2445 4.33975C56.448 4.94147 57.3171 5.40947 57.852 5.74375L53.3391 18.3798C51.1997 17.2432 48.6925 16.2738 45.8177 15.4715C43.0097 14.6692 39.8005 14.268 36.1903 14.268C33.7834 14.268 31.41 14.6692 29.07 15.4715C26.7968 16.2738 24.7577 17.5775 22.9525 19.3826C21.2143 21.1209 19.8103 23.394 18.7405 26.202C17.6708 29.01 17.136 32.4198 17.136 36.4312C17.136 39.6403 17.4703 42.6489 18.1388 45.4569C18.8743 48.198 20.0108 50.5715 21.5485 52.5772C23.1531 54.5829 25.2257 56.1875 27.7663 57.3909C30.3068 58.5275 33.3823 59.0958 36.9925 59.0958C39.2657 59.0958 41.3048 58.962 43.11 58.6946C44.9151 58.4272 46.5197 58.1263 47.9237 57.792C49.3277 57.3909 50.5645 56.9563 51.6343 56.4883C52.704 56.0203 53.6734 55.5858 54.5425 55.1846L58.8548 67.7203C56.6485 69.0575 53.5397 70.2609 49.5283 71.3306C45.5168 72.4003 40.8703 72.9352 35.5885 72.9352ZM79.5184 36.732C79.5184 40.1418 79.9195 43.2172 80.7218 45.9583C81.591 48.6995 82.7944 51.0729 84.3321 53.0786C85.9367 55.0175 87.8755 56.5218 90.1487 57.5915C92.4218 58.6612 95.0292 59.196 97.971 59.196C100.846 59.196 103.42 58.6612 105.693 57.5915C108.033 56.5218 109.972 55.0175 111.51 53.0786C113.114 51.0729 114.318 48.6995 115.12 45.9583C115.989 43.2172 116.424 40.1418 116.424 36.732C116.424 33.3223 115.989 30.2469 115.12 27.5058C114.318 24.6978 113.114 22.3243 111.51 20.3855C109.972 18.3798 108.033 16.842 105.693 15.7723C103.42 14.7026 100.846 14.1678 97.971 14.1678C95.0292 14.1678 92.4218 14.736 90.1487 15.8726C87.8755 16.9423 85.9367 18.48 84.3321 20.4858C82.7944 22.4246 81.591 24.798 80.7218 27.606C79.9195 30.3472 79.5184 33.3892 79.5184 36.732ZM132.57 36.732C132.57 42.6823 131.667 47.9306 129.862 52.4769C128.124 56.9563 125.717 60.7338 122.641 63.8092C119.566 66.8178 115.889 69.0909 111.61 70.6286C107.398 72.1663 102.852 72.9352 97.971 72.9352C93.2241 72.9352 88.7447 72.1663 84.5327 70.6286C80.3207 69.0909 76.6435 66.8178 73.5012 63.8092C70.359 60.7338 67.8852 56.9563 66.0801 52.4769C64.275 47.9306 63.3724 42.6823 63.3724 36.732C63.3724 30.7818 64.3084 25.5669 66.1804 21.0875C68.0524 16.5412 70.5595 12.7303 73.7018 9.65489C76.911 6.57947 80.5881 4.27289 84.7332 2.73518C88.9452 1.19747 93.3578 0.428608 97.971 0.428608C102.718 0.428608 107.197 1.19747 111.409 2.73518C115.621 4.27289 119.298 6.57947 122.441 9.65489C125.583 12.7303 128.057 16.5412 129.862 21.0875C131.667 25.5669 132.57 30.7818 132.57 36.732ZM163.723 71.5312C160.982 65.7146 158.274 59.664 155.6 53.3795C152.926 47.0949 150.385 40.8772 147.978 34.7263C145.571 28.5755 143.332 22.692 141.259 17.076C139.253 11.46 137.515 6.44575 136.044 2.03318H153.293C154.631 6.04461 156.068 10.3903 157.606 15.0703C159.21 19.6835 160.815 24.2966 162.419 28.9098C164.091 33.5229 165.695 37.9355 167.233 42.1475C168.771 46.3595 170.208 50.0032 171.545 53.0786C172.816 50.0032 174.22 46.3595 175.757 42.1475C177.362 37.9355 178.967 33.5229 180.571 28.9098C182.243 24.2966 183.847 19.6835 185.385 15.0703C186.989 10.3903 188.46 6.04461 189.797 2.03318H206.445C204.907 6.44575 203.135 11.46 201.13 17.076C199.124 22.692 196.918 28.5755 194.511 34.7263C192.104 40.8772 189.563 47.0949 186.889 53.3795C184.215 59.664 181.507 65.7146 178.766 71.5312H163.723ZM215.438 2.03318H231.083V71.5312H215.438V2.03318ZM262.814 58.7949C263.549 58.8618 264.385 58.9286 265.321 58.9955C266.324 58.9955 267.494 58.9955 268.831 58.9955C276.653 58.9955 282.437 57.0232 286.181 53.0786C289.991 49.134 291.897 43.6852 291.897 36.732C291.897 29.4446 290.092 23.9289 286.481 20.1849C282.871 16.4409 277.155 14.5689 269.333 14.5689C268.263 14.5689 267.16 14.6023 266.023 14.6692C264.887 14.6692 263.817 14.736 262.814 14.8698V58.7949ZM308.043 36.732C308.043 42.7492 307.107 47.9975 305.235 52.4769C303.363 56.9563 300.689 60.6669 297.212 63.6086C293.802 66.5503 289.624 68.7566 284.676 70.2275C279.729 71.6983 274.18 72.4338 268.029 72.4338C265.221 72.4338 261.945 72.3 258.201 72.0326C254.457 71.832 250.78 71.364 247.169 70.6286V2.93575C250.78 2.26718 254.524 1.83261 258.401 1.63204C262.346 1.36461 265.722 1.2309 268.53 1.2309C274.481 1.2309 279.863 1.89947 284.676 3.23661C289.557 4.57375 293.735 6.67975 297.212 9.55461C300.689 12.4295 303.363 16.1066 305.235 20.586C307.107 25.0655 308.043 30.4475 308.043 36.732ZM317.554 34.8266H346.636V48.3652H317.554V34.8266ZM356.148 16.4743C358.087 15.672 360.093 14.7695 362.165 13.7666C364.305 12.6969 366.377 11.5603 368.383 10.3569C370.389 9.08661 372.294 7.7829 374.099 6.44575C375.971 5.04175 377.643 3.5709 379.113 2.03318H389.543V71.5312H374.601V21.4886C372.595 22.8258 370.355 24.0626 367.881 25.1992C365.408 26.2689 363.001 27.2049 360.661 28.0072L356.148 16.4743ZM435.109 34.2249C436.647 34.2249 438.251 34.0912 439.923 33.8238C441.594 33.4895 442.831 33.0549 443.633 32.52V31.6175C443.633 31.35 443.633 31.0826 443.633 30.8152C443.7 30.5478 443.733 30.3138 443.733 30.1132C443.667 27.7063 443.466 25.4666 443.132 23.394C442.797 21.2546 442.229 19.416 441.427 17.8783C440.625 16.2738 439.521 15.0369 438.117 14.1678C436.78 13.2318 435.109 12.7638 433.103 12.7638C431.499 12.7638 430.095 13.098 428.891 13.7666C427.688 14.4352 426.718 15.3043 425.983 16.374C425.247 17.4438 424.679 18.6138 424.278 19.884C423.944 21.1543 423.777 22.3912 423.777 23.5946C423.777 27.2049 424.646 29.8792 426.384 31.6175C428.189 33.3558 431.097 34.2249 435.109 34.2249ZM442.43 43.9526C441.026 44.6212 439.455 45.1226 437.716 45.4569C436.045 45.7243 434.607 45.858 433.404 45.858C429.058 45.858 425.348 45.3566 422.272 44.3538C419.197 43.284 416.656 41.8132 414.651 39.9412C412.712 38.0023 411.274 35.6958 410.338 33.0215C409.402 30.3472 408.934 27.4055 408.934 24.1963C408.934 21.522 409.369 18.7809 410.238 15.9729C411.174 13.1649 412.611 10.6243 414.55 8.35118C416.489 6.01118 418.929 4.10575 421.871 2.6349C424.88 1.09718 428.49 0.328323 432.702 0.328323C441.327 0.328323 447.812 3.00261 452.157 8.35118C456.57 13.6329 458.776 21.2546 458.776 31.2163C458.776 37.7683 457.907 43.5515 456.169 48.5658C454.497 53.58 451.857 57.792 448.246 61.2018C444.703 64.6115 440.157 67.2189 434.607 69.024C429.058 70.7623 422.473 71.6649 414.851 71.7318C414.784 69.5923 414.684 67.5198 414.55 65.514C414.417 63.5083 414.283 61.4358 414.149 59.2963C417.96 59.2295 421.403 58.962 424.479 58.494C427.554 57.9592 430.262 57.1235 432.602 55.9869C434.942 54.7835 436.914 53.2123 438.519 51.2735C440.19 49.3346 441.494 46.8943 442.43 43.9526ZM15.2609 121.08C17.4078 121.08 18.9706 120.717 19.9493 119.99C20.928 119.264 21.4173 118.238 21.4173 116.912C21.4173 116.123 21.2437 115.444 20.8964 114.876C20.5807 114.308 20.1071 113.802 19.4757 113.36C18.8758 112.887 18.1339 112.461 17.2499 112.082C16.3659 111.671 15.3556 111.277 14.2191 110.898C13.0825 110.487 11.9775 110.045 10.9041 109.572C9.8622 109.067 8.93084 108.451 8.10998 107.725C7.3207 106.999 6.67348 106.131 6.16834 105.12C5.69477 104.11 5.45798 102.894 5.45798 101.474C5.45798 98.506 6.48405 96.1855 8.5362 94.5123C10.5883 92.8074 13.3824 91.955 16.9184 91.955C18.9706 91.955 20.7859 92.1918 22.3645 92.6653C23.9746 93.1073 25.2375 93.5967 26.1531 94.1334L24.3061 98.9638C23.2327 98.364 22.0488 97.9062 20.7543 97.5905C19.4915 97.2748 18.1813 97.1169 16.8237 97.1169C15.2136 97.1169 13.9507 97.4484 13.0351 98.1114C12.1511 98.7744 11.7091 99.7058 11.7091 100.905C11.7091 101.632 11.8512 102.263 12.1353 102.8C12.4511 103.305 12.8773 103.763 13.414 104.173C13.9823 104.584 14.6295 104.962 15.3556 105.31C16.1133 105.657 16.9342 105.988 17.8182 106.304C19.3652 106.872 20.7386 107.457 21.9383 108.056C23.1696 108.625 24.1956 109.319 25.0165 110.14C25.8689 110.929 26.5161 111.877 26.9581 112.982C27.4001 114.055 27.6211 115.365 27.6211 116.912C27.6211 119.88 26.5635 122.185 24.4482 123.826C22.3645 125.436 19.3021 126.242 15.2609 126.242C13.9033 126.242 12.6563 126.147 11.5197 125.957C10.4147 125.8 9.4202 125.594 8.5362 125.342C7.68377 125.089 6.94184 124.837 6.31041 124.584C5.67898 124.3 5.17384 124.047 4.79498 123.826L6.5472 118.949C7.39962 119.422 8.55198 119.896 10.0043 120.369C11.4566 120.843 13.2088 121.08 15.2609 121.08ZM43.9138 107.251C45.3345 104.883 46.7237 102.484 48.0813 100.053C49.4388 97.622 50.6701 95.1753 51.7751 92.7127H58.4051C56.6371 96.0593 54.7902 99.39 52.8643 102.705C50.97 105.988 48.9337 109.303 46.7553 112.65V125.531H40.7883V112.745C38.6098 109.367 36.5577 106.02 34.6318 102.705C32.706 99.39 30.859 96.0593 29.091 92.7127H36.0999C37.2049 95.1753 38.4204 97.622 39.7464 100.053C41.0724 102.484 42.4615 104.883 43.9138 107.251ZM69.2588 92.7127C69.9534 93.9124 70.7269 95.3805 71.5793 97.1169C72.4317 98.8533 73.2999 100.684 74.1839 102.61C75.0679 104.505 75.9361 106.446 76.7886 108.435C77.6726 110.393 78.4776 112.208 79.2038 113.881C79.9299 112.208 80.7192 110.393 81.5716 108.435C82.4241 106.446 83.2923 104.505 84.1763 102.61C85.0603 100.684 85.9285 98.8533 86.7809 97.1169C87.6334 95.3805 88.4069 93.9124 89.1014 92.7127H94.5001C94.7843 95.1121 95.0526 97.6694 95.3052 100.385C95.5578 103.068 95.7788 105.831 95.9682 108.672C96.1892 111.482 96.3786 114.323 96.5365 117.196C96.7259 120.038 96.8838 122.816 97.0101 125.531H91.1378C91.0115 121.711 90.8536 117.78 90.6642 113.739C90.5064 109.698 90.2538 105.783 89.9065 101.995C89.5592 102.721 89.1488 103.589 88.6752 104.599C88.2016 105.61 87.6965 106.715 87.1598 107.914C86.6231 109.082 86.0706 110.298 85.5023 111.561C84.9656 112.824 84.4289 114.055 83.8921 115.255C83.387 116.423 82.9134 117.528 82.4714 118.57C82.0294 119.58 81.6506 120.448 81.3349 121.174H76.8833C76.5676 120.448 76.1887 119.564 75.7467 118.522C75.3047 117.48 74.8154 116.375 74.2786 115.207C73.7735 114.008 73.2368 112.776 72.6685 111.513C72.1318 110.251 71.5951 109.035 71.0584 107.867C70.5216 106.699 70.0165 105.61 69.5429 104.599C69.0694 103.557 68.6589 102.689 68.3116 101.995C67.9644 105.783 67.696 109.698 67.5066 113.739C67.3487 117.78 67.2066 121.711 67.0804 125.531H61.2081C61.3344 122.816 61.4764 120.006 61.6343 117.102C61.8237 114.197 62.0131 111.324 62.2026 108.483C62.4236 105.61 62.6604 102.831 62.9129 100.148C63.1655 97.4642 63.4339 94.9858 63.718 92.7127H69.2588ZM113.244 92.3812C118.011 92.3812 121.657 93.2494 124.183 94.9858C126.74 96.7223 128.019 99.4374 128.019 103.131C128.019 105.057 127.672 106.715 126.977 108.104C126.314 109.461 125.335 110.582 124.041 111.466C122.747 112.319 121.168 112.95 119.305 113.36C117.443 113.771 115.312 113.976 112.912 113.976H109.929V125.531H103.962V93.1863C105.351 92.8705 106.882 92.6653 108.555 92.5706C110.26 92.4443 111.823 92.3812 113.244 92.3812ZM113.67 97.5431C112.154 97.5431 110.907 97.5905 109.929 97.6852V108.861H112.817C115.69 108.861 117.9 108.467 119.447 107.678C120.994 106.857 121.768 105.325 121.768 103.084C121.768 102.01 121.563 101.111 121.152 100.385C120.742 99.6584 120.174 99.0901 119.447 98.6797C118.721 98.2693 117.853 97.9851 116.843 97.8273C115.864 97.6378 114.806 97.5431 113.67 97.5431ZM156.341 92.7127V97.8746H146.254V125.531H140.239V97.8746H130.152V92.7127H156.341ZM164.613 109.098C164.613 110.898 164.834 112.54 165.276 114.023C165.718 115.476 166.35 116.723 167.171 117.765C168.023 118.775 169.049 119.564 170.249 120.132C171.449 120.701 172.806 120.985 174.322 120.985C175.806 120.985 177.147 120.701 178.347 120.132C179.547 119.564 180.557 118.775 181.378 117.765C182.23 116.723 182.878 115.476 183.32 114.023C183.762 112.54 183.983 110.898 183.983 109.098C183.983 107.299 183.762 105.673 183.32 104.22C182.878 102.737 182.23 101.49 181.378 100.479C180.557 99.4374 179.547 98.6323 178.347 98.064C177.147 97.4958 175.806 97.2116 174.322 97.2116C172.806 97.2116 171.449 97.4958 170.249 98.064C169.049 98.6323 168.023 99.4374 167.171 100.479C166.35 101.521 165.718 102.768 165.276 104.22C164.834 105.673 164.613 107.299 164.613 109.098ZM190.234 109.098C190.234 111.908 189.808 114.386 188.955 116.533C188.134 118.68 186.998 120.48 185.545 121.932C184.125 123.353 182.451 124.426 180.525 125.152C178.6 125.878 176.547 126.242 174.369 126.242C172.191 126.242 170.123 125.878 168.165 125.152C166.239 124.426 164.55 123.353 163.098 121.932C161.677 120.48 160.541 118.68 159.688 116.533C158.836 114.386 158.41 111.908 158.41 109.098C158.41 106.288 158.836 103.826 159.688 101.711C160.541 99.5637 161.693 97.7641 163.145 96.3118C164.629 94.8595 166.334 93.7703 168.26 93.0442C170.186 92.318 172.222 91.955 174.369 91.955C176.516 91.955 178.552 92.318 180.478 93.0442C182.404 93.7703 184.077 94.8595 185.498 96.3118C186.95 97.7641 188.103 99.5637 188.955 101.711C189.808 103.826 190.234 106.288 190.234 109.098ZM203.931 92.7127C204.625 93.9124 205.399 95.3805 206.251 97.1169C207.104 98.8533 207.972 100.684 208.856 102.61C209.74 104.505 210.608 106.446 211.46 108.435C212.344 110.393 213.15 112.208 213.876 113.881C214.602 112.208 215.391 110.393 216.244 108.435C217.096 106.446 217.964 104.505 218.848 102.61C219.732 100.684 220.6 98.8533 221.453 97.1169C222.305 95.3805 223.079 93.9124 223.773 92.7127H229.172C229.456 95.1121 229.725 97.6694 229.977 100.385C230.23 103.068 230.451 105.831 230.64 108.672C230.861 111.482 231.051 114.323 231.208 117.196C231.398 120.038 231.556 122.816 231.682 125.531H225.81C225.683 121.711 225.526 117.78 225.336 113.739C225.178 109.698 224.926 105.783 224.578 101.995C224.231 102.721 223.821 103.589 223.347 104.599C222.874 105.61 222.368 106.715 221.832 107.914C221.295 109.082 220.742 110.298 220.174 111.561C219.637 112.824 219.101 114.055 218.564 115.255C218.059 116.423 217.585 117.528 217.143 118.57C216.701 119.58 216.322 120.448 216.007 121.174H211.555C211.239 120.448 210.861 119.564 210.419 118.522C209.977 117.48 209.487 116.375 208.951 115.207C208.445 114.008 207.909 112.776 207.34 111.513C206.804 110.251 206.267 109.035 205.73 107.867C205.194 106.699 204.688 105.61 204.215 104.599C203.741 103.557 203.331 102.689 202.984 101.995C202.636 105.783 202.368 109.698 202.178 113.739C202.021 117.78 201.879 121.711 201.752 125.531H195.88C196.006 122.816 196.148 120.006 196.306 117.102C196.496 114.197 196.685 111.324 196.874 108.483C197.095 105.61 197.332 102.831 197.585 100.148C197.837 97.4642 198.106 94.9858 198.39 92.7127H203.931ZM264.273 126.242C261.81 126.242 259.6 125.863 257.643 125.105C255.685 124.347 254.028 123.242 252.67 121.79C251.312 120.306 250.271 118.507 249.544 116.391C248.818 114.276 248.455 111.845 248.455 109.098C248.455 106.352 248.866 103.921 249.687 101.805C250.539 99.69 251.691 97.9062 253.144 96.4539C254.596 94.97 256.301 93.8493 258.258 93.0915C260.216 92.3338 262.315 91.955 264.557 91.955C265.914 91.955 267.146 92.0655 268.251 92.2865C269.356 92.4759 270.318 92.6969 271.139 92.9495C271.96 93.202 272.639 93.4704 273.176 93.7545C273.712 94.0387 274.091 94.2439 274.312 94.3702L272.56 99.248C271.802 98.7744 270.713 98.3324 269.292 97.922C267.903 97.48 266.388 97.259 264.746 97.259C263.325 97.259 261.999 97.5115 260.768 98.0167C259.537 98.4903 258.463 99.2164 257.548 100.195C256.664 101.174 255.969 102.405 255.464 103.889C254.959 105.373 254.706 107.093 254.706 109.051C254.706 110.787 254.896 112.382 255.275 113.834C255.685 115.286 256.301 116.549 257.122 117.623C257.942 118.664 258.984 119.485 260.247 120.085C261.51 120.653 263.025 120.938 264.793 120.938C266.909 120.938 268.629 120.732 269.955 120.322C271.281 119.88 272.307 119.469 273.034 119.091L274.644 123.968C274.265 124.221 273.744 124.474 273.081 124.726C272.45 124.979 271.692 125.231 270.808 125.484C269.924 125.705 268.929 125.878 267.824 126.005C266.719 126.163 265.535 126.242 264.273 126.242ZM300.107 92.7127H306.074V125.531H300.107V110.993H285.853V125.531H279.886V92.7127H285.853V105.831H300.107V92.7127ZM313.924 125.531V92.7127H334.998V97.7799H319.891V105.878H333.34V110.85H319.891V120.464H336.134V125.531H313.924ZM355.056 126.242C352.593 126.242 350.383 125.863 348.426 125.105C346.468 124.347 344.811 123.242 343.453 121.79C342.096 120.306 341.054 118.507 340.328 116.391C339.602 114.276 339.239 111.845 339.239 109.098C339.239 106.352 339.649 103.921 340.47 101.805C341.322 99.69 342.475 97.9062 343.927 96.4539C345.379 94.97 347.084 93.8493 349.041 93.0915C350.999 92.3338 353.098 91.955 355.34 91.955C356.698 91.955 357.929 92.0655 359.034 92.2865C360.139 92.4759 361.102 92.6969 361.923 92.9495C362.743 93.202 363.422 93.4704 363.959 93.7545C364.496 94.0387 364.875 94.2439 365.096 94.3702L363.343 99.248C362.586 98.7744 361.496 98.3324 360.076 97.922C358.687 97.48 357.171 97.259 355.529 97.259C354.109 97.259 352.783 97.5115 351.551 98.0167C350.32 98.4903 349.247 99.2164 348.331 100.195C347.447 101.174 346.753 102.405 346.247 103.889C345.742 105.373 345.49 107.093 345.49 109.051C345.49 110.787 345.679 112.382 346.058 113.834C346.468 115.286 347.084 116.549 347.905 117.623C348.726 118.664 349.768 119.485 351.03 120.085C352.293 120.653 353.809 120.938 355.577 120.938C357.692 120.938 359.413 120.732 360.739 120.322C362.065 119.88 363.091 119.469 363.817 119.091L365.427 123.968C365.048 124.221 364.527 124.474 363.864 124.726C363.233 124.979 362.475 125.231 361.591 125.484C360.707 125.705 359.713 125.878 358.608 126.005C357.503 126.163 356.319 126.242 355.056 126.242ZM390.275 125.531C389.454 124.268 388.507 122.942 387.434 121.553C386.36 120.164 385.224 118.822 384.024 117.528C382.856 116.233 381.64 115.002 380.377 113.834C379.115 112.666 377.868 111.656 376.636 110.803V125.531H370.669V92.7127H376.636V106.257C377.678 105.215 378.767 104.11 379.904 102.942C381.04 101.742 382.161 100.542 383.266 99.3427C384.403 98.1114 385.476 96.9275 386.487 95.7909C387.497 94.6543 388.412 93.6283 389.233 92.7127H396.384C395.342 93.9124 394.237 95.1595 393.069 96.4539C391.901 97.7483 390.701 99.0585 389.47 100.385C388.239 101.679 386.992 102.973 385.729 104.268C384.498 105.562 383.282 106.794 382.082 107.962C383.408 108.972 384.75 110.156 386.108 111.513C387.497 112.839 388.854 114.276 390.18 115.823C391.506 117.338 392.769 118.933 393.969 120.606C395.2 122.248 396.321 123.889 397.331 125.531H390.275ZM401.516 125.531V92.7127H422.59V97.7799H407.483V105.878H420.933V110.85H407.483V120.464H423.727V125.531H401.516ZM438.31 92.3812C443.045 92.3812 446.66 93.2494 449.154 94.9858C451.68 96.7223 452.943 99.3743 452.943 102.942C452.943 107.393 450.749 110.408 446.36 111.987C446.96 112.713 447.639 113.597 448.397 114.639C449.154 115.681 449.928 116.817 450.717 118.049C451.507 119.248 452.264 120.496 452.99 121.79C453.717 123.053 454.364 124.3 454.932 125.531H448.255C447.655 124.395 447.008 123.258 446.313 122.121C445.618 120.953 444.908 119.833 444.182 118.759C443.487 117.654 442.793 116.628 442.098 115.681C441.404 114.702 440.756 113.834 440.157 113.076C439.715 113.108 439.336 113.124 439.02 113.124C438.704 113.124 438.404 113.124 438.12 113.124H435.231V125.531H429.264V93.1863C430.717 92.8705 432.264 92.6653 433.905 92.5706C435.547 92.4443 437.015 92.3812 438.31 92.3812ZM438.736 97.5431C437.473 97.5431 436.305 97.5905 435.231 97.6852V108.293H437.836C439.288 108.293 440.567 108.214 441.672 108.056C442.777 107.899 443.693 107.614 444.419 107.204C445.176 106.794 445.745 106.241 446.124 105.546C446.502 104.852 446.692 103.968 446.692 102.894C446.692 101.884 446.502 101.032 446.124 100.337C445.745 99.6426 445.192 99.0901 444.466 98.6797C443.772 98.2693 442.935 97.9851 441.956 97.8273C440.977 97.6378 439.904 97.5431 438.736 97.5431Z" fill="black"/>
<path d="M98.1457 177.447C100.703 177.447 102.692 176.99 104.113 176.074C105.533 175.127 106.244 173.612 106.244 171.528C106.244 170.328 106.007 169.334 105.533 168.544C105.091 167.723 104.492 167.045 103.734 166.508C102.976 165.94 102.108 165.466 101.129 165.087C100.151 164.677 99.1244 164.251 98.051 163.809C96.6934 163.272 95.4779 162.719 94.4045 162.151C93.3311 161.583 92.4155 160.951 91.6578 160.257C90.9001 159.531 90.316 158.71 89.9056 157.794C89.5267 156.879 89.3373 155.805 89.3373 154.574C89.3373 151.764 90.2686 149.633 92.1314 148.181C93.9941 146.728 96.5829 146.002 99.8979 146.002C100.782 146.002 101.65 146.065 102.503 146.192C103.355 146.318 104.144 146.492 104.87 146.713C105.628 146.902 106.307 147.123 106.907 147.376C107.538 147.628 108.059 147.897 108.47 148.181L107.333 150.88C106.417 150.249 105.297 149.744 103.971 149.365C102.676 148.986 101.271 148.796 99.7559 148.796C98.714 148.796 97.7511 148.907 96.8671 149.128C96.0146 149.317 95.2727 149.649 94.6413 150.122C94.0099 150.564 93.5047 151.133 93.1259 151.827C92.7786 152.522 92.6049 153.358 92.6049 154.337C92.6049 155.347 92.7944 156.2 93.1732 156.894C93.5521 157.589 94.073 158.189 94.736 158.694C95.4306 159.199 96.2356 159.657 97.1512 160.067C98.0668 160.478 99.0613 160.904 100.135 161.346C101.429 161.883 102.645 162.419 103.781 162.956C104.949 163.493 105.96 164.124 106.812 164.85C107.665 165.577 108.343 166.461 108.848 167.502C109.354 168.544 109.606 169.823 109.606 171.338C109.606 174.306 108.564 176.532 106.481 178.016C104.428 179.5 101.634 180.242 98.0984 180.242C96.8355 180.242 95.6831 180.163 94.6413 180.005C93.5994 179.847 92.6681 179.657 91.8472 179.436C91.0264 179.184 90.3318 178.931 89.7635 178.679C89.1952 178.426 88.7532 178.205 88.4375 178.016L89.4794 175.222C89.7951 175.411 90.2213 175.632 90.758 175.885C91.2947 176.137 91.9261 176.39 92.6523 176.642C93.3784 176.863 94.1993 177.053 95.1149 177.211C96.0304 177.369 97.0407 177.447 98.1457 177.447ZM115.554 179.531V146.713H134.497V149.507H118.775V160.92H132.792V163.667H118.775V176.737H135.728V179.531H115.554ZM160.481 176.737V179.531H141.823V146.713H145.043V176.737H160.481ZM165.594 179.531V146.713H184.3V149.507H168.814V161.062H182.548V163.856H168.814V179.531H165.594ZM222.852 156.563C222.852 159.026 222.205 160.967 220.91 162.388C219.616 163.809 217.911 164.835 215.796 165.466C216.301 166.098 216.948 166.95 217.737 168.023C218.558 169.097 219.395 170.281 220.247 171.575C221.1 172.838 221.936 174.164 222.757 175.553C223.578 176.942 224.273 178.268 224.841 179.531H221.384C220.721 178.268 219.995 177.005 219.205 175.743C218.448 174.48 217.658 173.264 216.838 172.096C216.048 170.896 215.275 169.791 214.517 168.781C213.759 167.771 213.096 166.887 212.528 166.129C211.518 166.224 210.507 166.271 209.497 166.271H204.193V179.531H200.973V147.328C202.109 147.013 203.435 146.792 204.951 146.665C206.498 146.507 207.919 146.429 209.213 146.429C213.728 146.429 217.122 147.281 219.395 148.986C221.7 150.691 222.852 153.216 222.852 156.563ZM209.592 149.223C208.392 149.223 207.335 149.27 206.419 149.365C205.535 149.428 204.793 149.491 204.193 149.554V163.524H208.645C210.129 163.524 211.534 163.461 212.86 163.335C214.186 163.177 215.338 162.861 216.317 162.388C217.295 161.883 218.069 161.172 218.637 160.257C219.205 159.341 219.49 158.094 219.49 156.516C219.49 155.063 219.205 153.864 218.637 152.916C218.069 151.969 217.327 151.227 216.411 150.691C215.496 150.122 214.438 149.744 213.238 149.554C212.07 149.333 210.855 149.223 209.592 149.223ZM230.247 179.531V146.713H249.19V149.507H233.468V160.92H247.485V163.667H233.468V176.737H250.422V179.531H230.247ZM264.803 146.429C269.444 146.429 272.901 147.313 275.174 149.081C277.448 150.849 278.584 153.358 278.584 156.61C278.584 158.473 278.253 160.067 277.59 161.393C276.927 162.688 275.98 163.745 274.748 164.566C273.517 165.356 272.002 165.94 270.202 166.319C268.434 166.666 266.429 166.839 264.188 166.839H259.736V179.531H256.516V147.328C257.652 147.013 258.978 146.792 260.494 146.665C262.041 146.507 263.477 146.429 264.803 146.429ZM264.945 149.223C263.746 149.223 262.72 149.27 261.867 149.365C261.046 149.428 260.336 149.491 259.736 149.554V164.045H263.809C265.545 164.045 267.108 163.951 268.497 163.761C269.918 163.54 271.118 163.161 272.096 162.625C273.107 162.056 273.88 161.283 274.417 160.304C274.953 159.325 275.222 158.078 275.222 156.563C275.222 155.111 274.922 153.911 274.322 152.964C273.754 152.017 272.98 151.275 272.002 150.738C271.054 150.17 269.965 149.775 268.734 149.554C267.503 149.333 266.24 149.223 264.945 149.223ZM313.998 163.098C313.998 165.908 313.587 168.386 312.766 170.533C311.946 172.68 310.825 174.48 309.404 175.932C308.015 177.353 306.389 178.426 304.526 179.152C302.664 179.878 300.69 180.242 298.607 180.242C296.523 180.242 294.55 179.878 292.687 179.152C290.824 178.426 289.183 177.353 287.762 175.932C286.373 174.48 285.268 172.68 284.447 170.533C283.626 168.386 283.216 165.908 283.216 163.098C283.216 160.288 283.626 157.826 284.447 155.711C285.268 153.564 286.373 151.78 287.762 150.359C289.183 148.907 290.824 147.818 292.687 147.092C294.55 146.365 296.523 146.002 298.607 146.002C300.69 146.002 302.664 146.365 304.526 147.092C306.389 147.818 308.015 148.907 309.404 150.359C310.825 151.78 311.946 153.564 312.766 155.711C313.587 157.826 313.998 160.288 313.998 163.098ZM310.588 163.098C310.588 160.888 310.304 158.915 309.736 157.179C309.167 155.411 308.362 153.911 307.32 152.68C306.279 151.448 305.016 150.517 303.532 149.886C302.08 149.223 300.438 148.891 298.607 148.891C296.776 148.891 295.118 149.223 293.634 149.886C292.182 150.517 290.935 151.448 289.893 152.68C288.851 153.911 288.046 155.411 287.478 157.179C286.909 158.915 286.625 160.888 286.625 163.098C286.625 165.308 286.909 167.297 287.478 169.065C288.046 170.802 288.851 172.286 289.893 173.517C290.935 174.748 292.182 175.695 293.634 176.358C295.118 177.021 296.776 177.353 298.607 177.353C300.438 177.353 302.08 177.021 303.532 176.358C305.016 175.695 306.279 174.748 307.32 173.517C308.362 172.286 309.167 170.802 309.736 169.065C310.304 167.297 310.588 165.308 310.588 163.098ZM343.095 156.563C343.095 159.026 342.447 160.967 341.153 162.388C339.859 163.809 338.154 164.835 336.038 165.466C336.544 166.098 337.191 166.95 337.98 168.023C338.801 169.097 339.638 170.281 340.49 171.575C341.342 172.838 342.179 174.164 343 175.553C343.821 176.942 344.515 178.268 345.084 179.531H341.627C340.964 178.268 340.237 177.005 339.448 175.743C338.69 174.48 337.901 173.264 337.08 172.096C336.291 170.896 335.517 169.791 334.76 168.781C334.002 167.771 333.339 166.887 332.771 166.129C331.76 166.224 330.75 166.271 329.74 166.271H324.436V179.531H321.216V147.328C322.352 147.013 323.678 146.792 325.194 146.665C326.741 146.507 328.161 146.429 329.456 146.429C333.97 146.429 337.364 147.281 339.638 148.986C341.942 150.691 343.095 153.216 343.095 156.563ZM329.835 149.223C328.635 149.223 327.577 149.27 326.662 149.365C325.778 149.428 325.036 149.491 324.436 149.554V163.524H328.887C330.371 163.524 331.776 163.461 333.102 163.335C334.428 163.177 335.581 162.861 336.559 162.388C337.538 161.883 338.312 161.172 338.88 160.257C339.448 159.341 339.732 158.094 339.732 156.516C339.732 155.063 339.448 153.864 338.88 152.916C338.312 151.969 337.57 151.227 336.654 150.691C335.738 150.122 334.681 149.744 333.481 149.554C332.313 149.333 331.097 149.223 329.835 149.223ZM371.327 146.713V149.507H360.814V179.531H357.594V149.507H347.08V146.713H371.327Z" fill="#595959"/>
</svg>
