<svg width="331" height="330" viewBox="0 0 331 330" fill="none" xmlns="http://www.w3.org/2000/svg">
<rect width="331" height="330" fill="#E5E5E5"/>
<rect x="-375" y="-375" width="1080" height="1080" fill="white"/>
<path d="M318.842 137.241C318.388 137.235 317.937 137.31 317.51 137.463C316.973 137.311 316.417 137.236 315.859 137.241C310.592 137.241 305.991 142.635 303.484 150.663C302.999 152.204 302.08 153.572 300.835 154.603C299.591 155.633 298.076 156.281 296.471 156.47L286.952 157.39C284.837 157.617 282.718 157.011 281.042 155.702C279.365 154.394 278.264 152.484 277.972 150.378C277.137 144.033 275.768 137.77 273.878 131.656C273.283 129.644 273.489 127.48 274.453 125.617C275.417 123.754 277.065 122.336 279.051 121.66L280.637 121.089C282.045 120.618 283.554 120.535 285.006 120.848C286.457 121.16 287.798 121.857 288.887 122.866C289.752 123.916 290.896 124.7 292.188 125.127C293.48 125.553 294.866 125.606 296.186 125.278C296.464 125.156 296.73 125.007 296.979 124.833C297.211 124.859 297.445 124.859 297.677 124.833C300.85 123.532 300.66 116.361 297.487 108.967C294.314 101.574 289.236 96.4967 286.158 97.8295C285.94 97.9258 285.737 98.0542 285.556 98.2103L284.699 98.4324C283.54 99.1614 282.611 100.204 282.022 101.44C281.432 102.676 281.205 104.054 281.367 105.413C281.345 106.895 280.92 108.342 280.137 109.6C279.354 110.858 278.244 111.879 276.924 112.553L275.465 113.346C273.551 114.295 271.345 114.464 269.309 113.819C267.273 113.174 265.567 111.765 264.549 109.888C261.847 105.095 258.804 100.503 255.442 96.1477C254.115 94.4593 253.501 92.3187 253.733 90.1837C253.964 88.0488 255.022 86.0892 256.679 84.7242L264.2 78.5682C265.448 77.5473 266.971 76.9208 268.575 76.7682C270.18 76.6156 271.794 76.9439 273.212 77.7114C280.701 81.5827 287.745 82.1539 291.489 78.4413C291.875 78.027 292.225 77.5812 292.537 77.1085C292.913 76.8828 293.264 76.6168 293.584 76.3152C298.058 71.8093 292.917 59.3704 282.065 48.5181C271.213 37.6658 258.774 32.4934 254.236 36.9994C253.936 37.32 253.67 37.671 253.443 38.0465C252.98 38.3583 252.545 38.7086 252.142 39.0937C248.429 42.8063 248.969 49.8825 252.872 57.3713C253.631 58.7912 253.955 60.4035 253.802 62.0064C253.65 63.6093 253.028 65.1318 252.015 66.3832L245.859 73.9036C244.532 75.538 242.623 76.5936 240.534 76.8482C238.444 77.1027 236.338 76.5362 234.658 75.2681C229.575 71.3455 224.16 67.8737 218.474 64.8918C216.629 63.8756 215.246 62.1873 214.614 60.1779C213.982 58.1685 214.148 55.9926 215.079 54.1029L215.777 52.6115C216.432 51.2801 217.436 50.1517 218.682 49.3469C219.929 48.5421 221.37 48.0911 222.853 48.0421C224.211 48.1807 225.58 47.9288 226.8 47.3161C228.02 46.7034 229.039 45.7554 229.739 44.5833C229.861 44.3012 229.936 44.0011 229.961 43.6948C230.131 43.524 230.261 43.3182 230.342 43.0919C231.58 39.9187 226.502 35.032 218.982 31.9857C211.461 28.9395 204.354 29.0029 203.116 31.9857C203.083 32.2067 203.083 32.4312 203.116 32.6521C202.961 32.8959 202.823 33.1504 202.704 33.4137C202.394 34.7458 202.467 36.1384 202.917 37.4302C203.366 38.7219 204.172 39.8598 205.242 40.712C206.29 41.7709 207.025 43.0987 207.367 44.5488C207.708 45.999 207.643 47.5153 207.178 48.9306L206.702 50.4854C206.017 52.5079 204.581 54.1896 202.691 55.1821C200.801 56.1745 198.601 56.4017 196.548 55.8164C191.245 54.2914 185.835 53.167 180.364 52.4529C179.273 52.3659 178.21 52.0609 177.239 51.556C176.267 51.0511 175.407 50.3565 174.709 49.5133C174.011 48.6701 173.489 47.6955 173.174 46.6471C172.859 45.5986 172.757 44.4976 172.875 43.4092L173.827 33.8897C174.005 32.2813 174.649 30.76 175.681 29.5137C176.713 28.2675 178.087 27.3507 179.634 26.8769C187.663 24.3383 193.057 19.7372 193.057 14.5015C193.061 13.9333 192.987 13.3673 192.835 12.8197C192.985 12.4026 193.061 11.9621 193.057 11.5187C193.057 5.17227 180.586 0 165.228 0C149.87 0 137.399 5.14054 137.399 11.5187C137.411 11.9607 137.486 12.3987 137.621 12.8197C137.485 13.3703 137.411 13.9344 137.399 14.5015C137.399 19.7372 142.825 24.3383 150.854 26.8769C152.393 27.3539 153.758 28.273 154.779 29.5199C155.801 30.7668 156.433 32.2864 156.597 33.8897L157.581 43.4092C157.808 45.5273 157.203 47.6508 155.895 49.332C154.587 51.0131 152.677 52.1207 150.568 52.4211C144.221 53.2296 137.957 54.5886 131.846 56.4828C129.83 57.0793 127.662 56.8743 125.794 55.9106C123.925 54.9468 122.501 53.2989 121.819 51.3105L121.279 49.7239C120.798 48.3193 120.706 46.8105 121.013 45.3578C121.321 43.9051 122.016 42.5629 123.025 41.4736C124.08 40.6126 124.87 39.4699 125.303 38.1781C125.735 36.8863 125.793 35.4983 125.468 34.1752C125.339 33.9005 125.191 33.6354 125.024 33.3819C125.038 33.1601 125.038 32.9375 125.024 32.7156C123.691 29.5424 116.551 29.701 109.158 32.8742C101.764 36.0474 96.6872 41.1563 98.0199 44.2025C98.0882 44.435 98.2201 44.6439 98.4007 44.8055C98.4259 45.1117 98.5009 45.4118 98.6228 45.6939C99.3723 46.8159 100.419 47.707 101.647 48.2675C102.874 48.8279 104.233 49.0355 105.572 48.8671C107.046 48.9371 108.473 49.4008 109.707 50.21C110.94 51.0193 111.934 52.1444 112.585 53.4683L113.315 54.9279C114.284 56.8308 114.472 59.0372 113.838 61.0765C113.203 63.1158 111.797 64.8266 109.919 65.8437C105.107 68.5301 100.504 71.5743 96.1477 74.9508C94.4614 76.2681 92.3279 76.8758 90.2006 76.6447C88.0733 76.4136 86.12 75.3619 84.756 73.7132L78.4096 66.1927C77.4039 64.9376 76.787 63.4159 76.6348 61.8148C76.4826 60.2137 76.8017 58.603 77.5528 57.1809C81.4558 49.6921 82.027 42.6159 78.2827 38.9033C77.8792 38.5182 77.444 38.1679 76.9816 37.8562C76.7526 37.4732 76.4754 37.1212 76.1566 36.809C71.6824 32.3031 59.2435 37.4754 48.3595 48.3277C37.4754 59.18 32.4935 71.6189 36.8725 76.1248C37.1793 76.4408 37.5324 76.7083 37.9196 76.9181C38.2309 77.3908 38.5812 77.8366 38.9668 78.2509C42.6794 81.9635 49.7239 81.4241 57.2127 77.521C58.6363 76.755 60.2548 76.4276 61.8642 76.58C63.4736 76.7325 65.0018 77.3581 66.2562 78.3778L73.8084 84.6607C75.4428 85.9872 76.4985 87.8963 76.753 89.9858C77.0075 92.0753 76.441 94.182 75.1729 95.8621C71.2522 100.948 67.7603 106.35 64.7331 112.014C63.7403 113.866 62.066 115.259 60.0643 115.899C58.0625 116.538 55.8905 116.374 54.0077 115.441L52.5163 114.711C51.1837 114.063 50.0518 113.066 49.2415 111.825C48.4312 110.584 47.9728 109.147 47.9152 107.666C47.9152 104.208 46.6142 101.606 44.4564 100.749L43.5997 100.527C43.4258 100.369 43.2203 100.25 42.9967 100.178C39.8236 98.9084 34.9051 103.985 31.8906 111.538C28.876 119.09 28.9078 126.166 31.8906 127.404C32.1223 127.434 32.357 127.434 32.5887 127.404C32.8281 127.575 33.0831 127.724 33.3502 127.848C34.6854 128.147 36.0776 128.064 37.3681 127.61C38.6585 127.155 39.7953 126.347 40.6486 125.278C41.7109 124.235 43.0401 123.506 44.4901 123.17C45.9401 122.834 47.4546 122.904 48.8671 123.374L50.3903 123.85C52.4163 124.527 54.1007 125.964 55.0891 127.857C56.0774 129.751 56.2927 131.955 55.6895 134.004C54.2402 139.314 53.1797 144.723 52.5163 150.187C52.2611 152.316 51.1808 154.26 49.5075 155.601C47.8342 156.942 45.7015 157.573 43.5679 157.359L34.0483 156.438C32.4213 156.287 30.8752 155.659 29.6048 154.631C28.3343 153.603 27.3963 152.223 26.9087 150.663C24.3701 142.635 19.769 137.241 14.5332 137.241C13.9649 137.234 13.3986 137.309 12.8514 137.463C12.4343 137.312 11.9938 137.237 11.5504 137.241C5.20404 137.241 0 149.711 0 165.038C0 180.364 5.17231 192.867 11.5504 192.867C11.9938 192.87 12.4343 192.795 12.8514 192.644C13.3986 192.798 13.9649 192.873 14.5332 192.867C19.769 192.867 24.3701 187.472 26.9087 179.444C27.3803 177.901 28.2922 176.53 29.5324 175.498C30.7726 174.467 32.287 173.82 33.8897 173.637L43.4093 172.717C45.5584 172.466 47.7195 173.076 49.42 174.414C51.1206 175.752 52.2224 177.709 52.4846 179.856C53.319 186.201 54.6883 192.464 56.578 198.578C57.1271 200.568 56.898 202.693 55.9373 204.52C54.9766 206.347 53.3563 207.74 51.4057 208.415L49.8191 208.986C48.4105 209.453 46.9025 209.535 45.4517 209.223C44.0009 208.91 42.6602 208.215 41.5688 207.209C40.7066 206.156 39.5624 205.37 38.27 204.943C36.9777 204.516 35.5904 204.466 34.2705 204.798C33.9958 204.927 33.7306 205.075 33.4772 205.242C33.2489 205.265 33.0247 205.318 32.8108 205.401C29.6376 206.702 29.6376 213.873 32.8108 221.267C35.984 228.66 41.0611 233.737 44.1391 232.405C44.3616 232.315 44.5659 232.186 44.742 232.024L45.5988 231.802C46.7287 231.052 47.6253 230 48.1863 228.766C48.7474 227.532 48.9503 226.165 48.772 224.821C48.7941 223.339 49.2193 221.892 50.002 220.634C50.7847 219.376 51.8953 218.355 53.2144 217.681L54.7058 216.888C56.6145 215.941 58.8162 215.772 60.8468 216.418C62.8773 217.063 64.5779 218.472 65.5899 220.346C68.2916 225.139 71.3351 229.731 74.6969 234.086C76.0198 235.774 76.6337 237.91 76.4086 240.042C76.1836 242.175 75.1372 244.136 73.4911 245.51L65.9706 251.666C64.7162 252.686 63.188 253.311 61.5786 253.464C59.9692 253.616 58.3507 253.289 56.9271 252.523C49.4383 248.651 42.3938 248.08 38.6812 251.793C38.2956 252.207 37.9453 252.653 37.634 253.125C37.2548 253.335 36.9031 253.591 36.5869 253.887C32.081 258.425 37.2215 270.864 48.0738 281.716C58.9262 292.568 71.3968 297.582 75.871 293.235C76.1898 292.922 76.4671 292.57 76.6961 292.187C77.1584 291.876 77.5936 291.525 77.997 291.14C81.7414 287.428 81.1703 280.351 77.2672 272.863C76.5161 271.441 76.197 269.83 76.3492 268.229C76.5014 266.628 77.1183 265.106 78.124 263.851L84.4704 256.33C85.7913 254.698 87.6949 253.643 89.7792 253.389C91.8634 253.134 93.965 253.7 95.64 254.966C100.728 258.881 106.142 262.353 111.823 265.342C113.669 266.358 115.051 268.047 115.684 270.056C116.316 272.066 116.149 274.241 115.219 276.131L114.521 277.622C113.863 278.952 112.858 280.078 111.612 280.883C110.367 281.687 108.926 282.14 107.444 282.192C106.086 282.053 104.717 282.305 103.497 282.918C102.278 283.531 101.258 284.479 100.558 285.651C100.466 285.942 100.392 286.239 100.336 286.539C100.167 286.71 100.037 286.916 99.9555 287.142C98.718 290.315 103.795 295.202 111.316 298.248C118.836 301.294 125.976 301.231 127.182 298.09C127.214 297.869 127.214 297.644 127.182 297.423L127.626 296.662C127.928 295.327 127.848 293.933 127.393 292.642C126.938 291.351 126.128 290.214 125.055 289.363C124.013 288.301 123.284 286.972 122.948 285.522C122.612 284.072 122.682 282.557 123.152 281.145L123.628 279.59C124.298 277.565 125.727 275.879 127.615 274.885C129.502 273.891 131.701 273.667 133.75 274.259C139.053 275.784 144.462 276.908 149.933 277.622C152.062 277.87 154.009 278.943 155.356 280.61C156.703 282.277 157.342 284.406 157.136 286.539L156.153 296.059C155.989 297.662 155.356 299.182 154.335 300.429C153.314 301.675 151.949 302.595 150.409 303.072C142.381 305.61 136.955 310.211 136.955 315.447C136.966 316.014 137.041 316.578 137.177 317.129C137.042 317.55 136.967 317.988 136.955 318.43C136.955 324.776 149.426 329.948 164.784 329.948C180.142 329.948 192.613 324.808 192.613 318.43C192.616 317.986 192.541 317.546 192.391 317.129C192.542 316.581 192.617 316.015 192.613 315.447C192.613 310.211 187.218 305.61 179.19 303.072C177.643 302.598 176.269 301.681 175.237 300.435C174.205 299.188 173.56 297.667 173.383 296.059L172.431 286.539C172.205 284.416 172.814 282.289 174.128 280.607C175.443 278.925 177.361 277.82 179.476 277.527C185.811 276.715 192.065 275.356 198.166 273.466C200.182 272.869 202.35 273.074 204.218 274.038C206.087 275.002 207.511 276.65 208.193 278.638L208.733 280.225C209.204 281.63 209.29 283.137 208.984 284.587C208.677 286.038 207.987 287.38 206.987 288.475C205.932 289.336 205.142 290.478 204.709 291.77C204.277 293.062 204.219 294.45 204.544 295.773L204.988 296.566C205.022 296.796 205.086 297.02 205.179 297.233C206.48 300.406 213.619 300.406 221.044 297.233C228.47 294.06 233.483 288.951 232.182 285.905C232.089 285.684 231.961 285.48 231.802 285.302C231.751 284.997 231.666 284.699 231.548 284.413C230.798 283.291 229.751 282.4 228.524 281.84C227.296 281.279 225.937 281.072 224.599 281.24C223.114 281.215 221.664 280.785 220.406 279.996C219.148 279.208 218.129 278.091 217.459 276.766L216.666 275.306C216.189 274.331 215.91 273.272 215.844 272.189C215.777 271.106 215.925 270.021 216.279 268.995C216.632 267.969 217.185 267.023 217.905 266.211C218.625 265.399 219.497 264.737 220.473 264.263C225.29 261.585 229.894 258.54 234.245 255.156C235.936 253.837 238.075 253.229 240.208 253.46C242.34 253.691 244.299 254.743 245.669 256.394L251.825 263.914C252.838 265.166 253.459 266.688 253.612 268.291C253.764 269.894 253.44 271.506 252.681 272.926C248.778 280.415 248.239 287.491 251.951 291.204C252.355 291.589 252.79 291.939 253.252 292.251C253.48 292.626 253.746 292.977 254.046 293.298C258.583 297.804 271.022 292.632 281.875 281.779C292.727 270.927 297.741 258.488 293.393 253.951C293.065 253.669 292.715 253.414 292.346 253.189C292.035 252.716 291.685 252.27 291.299 251.856C287.555 248.144 280.51 248.683 273.021 252.586C271.604 253.354 269.99 253.682 268.385 253.529C266.78 253.377 265.257 252.75 264.01 251.729L256.457 245.573C254.823 244.247 253.767 242.338 253.513 240.248C253.258 238.159 253.825 236.052 255.093 234.372C259.025 229.301 262.508 223.897 265.501 218.22C266.512 216.37 268.198 214.98 270.208 214.342C272.217 213.703 274.396 213.865 276.29 214.793L277.781 215.523C279.106 216.178 280.229 217.178 281.033 218.418C281.838 219.658 282.293 221.091 282.351 222.568C282.351 226.026 283.652 228.628 285.809 229.485L286.666 229.707C286.84 229.865 287.046 229.984 287.269 230.056C290.442 231.326 295.361 226.249 298.407 218.696C301.453 211.144 301.358 204.068 298.248 202.83C298.016 202.803 297.782 202.803 297.55 202.83L296.789 202.386C295.453 202.087 294.061 202.17 292.771 202.624C291.48 203.079 290.344 203.887 289.49 204.956C288.435 205.999 287.111 206.729 285.666 207.065C284.221 207.402 282.711 207.33 281.303 206.86L279.749 206.384C277.721 205.707 276.035 204.272 275.041 202.379C274.048 200.487 273.824 198.284 274.418 196.23C275.935 190.928 277.049 185.518 277.749 180.047C278.012 177.921 279.095 175.982 280.766 174.643C282.438 173.303 284.566 172.669 286.698 172.875L296.217 173.796C297.822 173.984 299.337 174.633 300.582 175.663C301.826 176.694 302.746 178.062 303.23 179.603C305.737 187.631 310.338 193.025 315.606 193.025C316.163 193.029 316.719 192.955 317.256 192.803C317.683 192.956 318.135 193.031 318.588 193.025C324.935 193.025 330.107 180.555 330.107 165.196C330.107 149.838 325.189 137.241 318.842 137.241ZM236.815 212.794C244.146 200.077 248.136 185.709 248.413 171.033C248.691 156.357 245.247 141.849 238.402 128.863C237.616 130.975 236.548 132.971 235.229 134.797C224.916 148.283 202.037 148.093 184.013 134.416C165.99 120.74 159.738 98.6862 169.988 85.2002C170.525 84.5257 171.097 83.8796 171.701 83.2645C157.855 81.6218 143.816 83.3621 130.789 88.3362C117.763 93.3102 106.137 101.37 96.9093 111.823C102.995 101.356 111.204 92.279 121.01 85.1765C130.816 78.0741 142 73.1035 153.843 70.5849C165.685 68.0662 177.924 68.0553 189.771 70.5527C201.619 73.0502 212.812 78.0007 222.63 85.0857C232.448 92.1706 240.674 101.233 246.778 111.689C252.882 122.146 256.729 133.764 258.072 145.797C259.414 157.83 258.222 170.011 254.572 181.555C250.922 193.1 244.895 203.752 236.879 212.826L236.815 212.794Z" fill="#564FF5"/>
<path d="M171.321 83.5714C199.127 86.202 213.794 97.2745 238.875 129.536L235.393 140.679L224.946 147.643L206.143 153.214L178.982 136.5L162.964 113.518L161.571 97.5L167.143 84.9643L171.321 83.5714Z" fill="#564FF5"/>
</svg>
