<svg width="249" height="235" viewBox="0 0 249 235" fill="none" xmlns="http://www.w3.org/2000/svg">
<path d="M125.596 211.08C179.441 211.08 223.09 167.43 223.09 113.586C223.09 59.7413 179.441 16.0917 125.596 16.0917C71.7517 16.0917 28.1021 59.7413 28.1021 113.586C28.1021 167.43 71.7517 211.08 125.596 211.08Z" fill="#A4C0F7"/>
<path d="M174.154 162.143C200.973 135.324 200.973 91.8422 174.154 65.0234C147.335 38.2045 103.853 38.2045 77.0344 65.0234C50.2156 91.8422 50.2156 135.324 77.0344 162.143C103.853 188.962 147.335 188.962 174.154 162.143Z" fill="#7C9AE5"/>
<path d="M168.363 24.3403C160.858 9.85573 145.226 -2.58793 135.766 5.20707C118.992 -9.39084 90.3421 9.84864 82.8376 24.3403C75.3331 38.8319 68.6011 84.4043 69.4302 124.875C70.2593 165.345 117.929 148.224 125.597 148.182C133.264 148.139 180.927 165.288 181.763 124.86C182.599 84.4326 175.91 38.8248 168.363 24.3403Z" fill="#DF5F1C"/>
<path d="M111.714 91.3985L110.396 131.791C110.346 133.804 110.699 135.806 111.435 137.681C112.171 139.555 113.274 141.263 114.68 142.705C116.086 144.146 117.766 145.292 119.621 146.074C121.476 146.857 123.47 147.26 125.483 147.26C127.497 147.26 129.49 146.857 131.345 146.074C133.201 145.292 134.881 144.146 136.287 142.705C137.692 141.263 138.796 139.555 139.531 137.681C140.267 135.806 140.62 133.804 140.57 131.791L139.252 91.3985H111.714Z" fill="#FCEFEB"/>
<path d="M111.424 101.227L110.716 124.01C121.459 121.062 131.358 120.715 140.089 114.918L139.657 101.631C130.678 101.497 121.615 101.334 112.792 101.234L111.424 101.227Z" fill="#EFD7D0"/>
<path d="M95.0542 92.745L95.0967 91.6749C92.1772 91.5686 86.664 90.1514 84.6302 88.6987C75.1345 81.9241 69.8551 72.0315 70.5071 62.2382L69.3732 62.1673C68.6646 72.3221 74.1424 82.5619 83.9428 89.5561C86.1679 91.1435 91.9079 92.6387 95.0542 92.745Z" fill="white"/>
<path d="M155.927 92.745L155.891 91.6749C158.811 91.5686 164.324 90.1514 166.358 88.6987C175.847 81.9241 181.126 72.0315 180.481 62.2382L181.615 62.1673C182.288 72.3221 176.839 82.5619 167.038 89.5561C164.82 91.1435 159.073 92.6387 155.927 92.745Z" fill="white"/>
<path d="M125.491 112.275C150.542 112.275 170.85 89.6253 170.85 61.6855C170.85 33.7457 150.542 11.0959 125.491 11.0959C100.439 11.0959 80.1309 33.7457 80.1309 61.6855C80.1309 89.6253 100.439 112.275 125.491 112.275Z" fill="#FCEFEB"/>
<path d="M172.367 71.9465C174.791 71.8796 177.093 70.8696 178.784 69.1313C180.475 67.393 181.421 65.0636 181.421 62.6385C181.421 60.2135 180.475 57.8841 178.784 56.1458C177.093 54.4075 174.791 53.3975 172.367 53.3306H163.083V71.9465H172.367Z" fill="#FCEFEB"/>
<path d="M177.256 64.442C177.2 64.4394 177.145 64.4254 177.094 64.4009C177.043 64.3765 176.998 64.3421 176.961 64.2997C176.924 64.2574 176.896 64.208 176.878 64.1545C176.861 64.101 176.854 64.0446 176.859 63.9885C176.944 62.6357 176.589 61.2918 175.847 60.1576C175.105 59.0234 174.016 58.1597 172.742 57.6958C172.637 57.6559 172.551 57.5766 172.504 57.4747C172.456 57.3729 172.45 57.2564 172.487 57.1501C172.506 57.0975 172.535 57.0491 172.573 57.0078C172.611 56.9665 172.656 56.933 172.707 56.9093C172.757 56.8856 172.812 56.8721 172.868 56.8697C172.924 56.8673 172.98 56.8759 173.033 56.895C174.483 57.417 175.723 58.3974 176.566 59.6876C177.408 60.9779 177.807 62.5077 177.703 64.0452C177.695 64.1567 177.644 64.2609 177.561 64.3352C177.477 64.4095 177.368 64.4478 177.256 64.442Z" fill="#EFD7D0"/>
<path d="M78.6137 71.9465C76.1896 71.8796 73.8871 70.8696 72.1962 69.1313C70.5052 67.393 69.5591 65.0636 69.5591 62.6385C69.5591 60.2135 70.5052 57.8841 72.1962 56.1458C73.8871 54.4075 76.1896 53.3975 78.6137 53.3306H87.8968V71.9465H78.6137Z" fill="#FCEFEB"/>
<path d="M73.7178 64.442C73.6107 64.4391 73.5084 64.3971 73.4301 64.324C73.3518 64.251 73.3029 64.1518 73.2926 64.0452C73.201 62.5073 73.6032 60.9803 74.4406 59.6871C75.2894 58.3984 76.5323 57.419 77.9837 56.895C78.0363 56.8759 78.0921 56.8673 78.1481 56.8697C78.204 56.8721 78.2588 56.8856 78.3095 56.9093C78.3602 56.933 78.4057 56.9665 78.4435 57.0078C78.4812 57.0491 78.5104 57.0975 78.5294 57.1501C78.5662 57.2564 78.5601 57.3729 78.5125 57.4747C78.4649 57.5766 78.3794 57.6559 78.2743 57.6958C77.0007 58.1597 75.9115 59.0234 75.1694 60.1576C74.4273 61.2918 74.0722 62.6357 74.1571 63.9885C74.1619 64.0446 74.1554 64.101 74.1379 64.1545C74.1204 64.208 74.0923 64.2574 74.0552 64.2997C74.0182 64.3421 73.9729 64.3765 73.9223 64.4009C73.8716 64.4254 73.8165 64.4394 73.7603 64.442H73.7178Z" fill="#EFD7D0"/>
<path d="M125.441 69.8135C125.14 69.8107 124.84 69.7726 124.548 69.7001C124.129 69.5967 123.736 69.4089 123.392 69.1481C123.049 68.8874 122.762 68.5592 122.55 68.1836C122.512 68.1181 122.487 68.0457 122.477 67.9706C122.467 67.8955 122.472 67.8192 122.492 67.7461C122.512 67.673 122.546 67.6045 122.592 67.5446C122.639 67.4847 122.696 67.4345 122.762 67.397C122.895 67.3269 123.05 67.3121 123.193 67.3559C123.337 67.3997 123.457 67.4986 123.527 67.6309C123.666 67.8675 123.851 68.0736 124.072 68.2367C124.292 68.3999 124.543 68.5168 124.81 68.5805C125.096 68.6615 125.396 68.6832 125.691 68.6442C125.986 68.6052 126.27 68.5064 126.525 68.3537C127.005 68.0051 127.345 67.4974 127.485 66.9211C127.626 66.3448 127.556 65.7374 127.29 65.2074C126.981 64.682 126.514 64.268 125.955 64.0248C125.396 63.7817 124.774 63.7218 124.179 63.8539C124.039 63.8706 123.897 63.8348 123.781 63.7532C123.665 63.6717 123.584 63.5502 123.552 63.4122C123.52 63.2741 123.541 63.1293 123.61 63.0054C123.678 62.8816 123.79 62.7875 123.924 62.7413C124.764 62.5552 125.641 62.6434 126.427 62.9929C127.213 63.3424 127.865 63.9348 128.289 64.683C128.685 65.4656 128.785 66.3642 128.573 67.2149C128.361 68.0655 127.851 68.8117 127.134 69.3175C126.627 69.6371 126.04 69.8089 125.441 69.8135Z" fill="#DB9086"/>
<path d="M108.787 57.88C110.47 57.88 111.834 56.5158 111.834 54.8329C111.834 53.15 110.47 51.7857 108.787 51.7857C107.104 51.7857 105.74 53.15 105.74 54.8329C105.74 56.5158 107.104 57.88 108.787 57.88Z" fill="#14298E"/>
<path d="M142.185 57.88C143.868 57.88 145.232 56.5158 145.232 54.8329C145.232 53.15 143.868 51.7857 142.185 51.7857C140.502 51.7857 139.138 53.15 139.138 54.8329C139.138 56.5158 140.502 57.88 142.185 57.88Z" fill="#14298E"/>
<path d="M150.505 69.6576C154.477 69.6576 157.698 68.7565 157.698 67.645C157.698 66.5336 154.477 65.6325 150.505 65.6325C146.533 65.6325 143.312 66.5336 143.312 67.645C143.312 68.7565 146.533 69.6576 150.505 69.6576Z" fill="#EFD7D0"/>
<path d="M100.469 69.6576C104.441 69.6576 107.661 68.7565 107.661 67.645C107.661 66.5336 104.441 65.6325 100.469 65.6325C96.4961 65.6325 93.2759 66.5336 93.2759 67.645C93.2759 68.7565 96.4961 69.6576 100.469 69.6576Z" fill="#EFD7D0"/>
<path d="M160.752 79.3234L161.886 79.2454C161.347 71.3371 165.429 57.7879 172.005 53.3306H170.042C163.863 58.1281 160.214 71.4788 160.752 79.3234Z" fill="white"/>
<path d="M90.2363 79.3234L89.1025 79.2454C89.634 71.3371 85.5593 57.7879 78.9832 53.3306H80.9532C87.1466 58.1281 90.7678 71.4788 90.2363 79.3234Z" fill="white"/>
<path d="M160.397 76.2762C153.382 70.5292 144.75 66.2986 136.14 63.4641C121.5 58.6524 116.299 62.7554 107.051 66.1427C100.149 68.6938 93.686 72.2299 87.3508 75.9999C84.3604 77.814 83.2903 82.576 83.7297 87.6357C84.1194 92.0788 84.2612 95.1118 88.2579 99.229C98.0371 107.867 106.13 111.864 118.347 113.366C126.861 114.413 135.502 113.544 143.638 110.822C149.307 108.845 154.841 106.117 158.831 103.027C159.256 102.687 160.659 101.667 161.028 101.298C162.998 99.0235 164.025 95.6291 164.132 89.5065C164.252 82.4839 162.282 78.0266 160.397 76.2762Z" fill="white"/>
<path d="M160.398 85.6373C159.066 84.6382 157.712 83.6744 156.33 82.7603C154.949 81.8461 153.496 80.9958 152.079 80.2021C149.188 78.5838 146.198 77.1472 143.129 75.9007C140.071 74.6409 136.949 73.5456 133.775 72.6197C130.63 71.6862 127.368 71.2089 124.088 71.2024C120.816 71.2321 117.578 71.8638 114.535 73.0661C112.983 73.633 111.453 74.2708 109.901 74.8802C108.349 75.4897 106.776 76.0495 105.238 76.6377C102.146 77.8355 99.1161 79.1884 96.1602 80.6911C93.1839 82.1508 90.2714 83.7594 87.3518 85.3539C90.1533 83.5539 93.0091 81.8461 95.9192 80.2304C98.8479 78.6342 101.856 77.189 104.933 75.9007C106.478 75.2487 108.03 74.6818 109.56 74.0511C111.091 73.4204 112.629 72.7685 114.195 72.1803C117.336 70.8941 120.687 70.1975 124.08 70.1253C127.458 70.166 130.811 70.6959 134.037 71.6985L136.439 72.4071C137.226 72.6835 138.019 72.9527 138.799 73.2433C140.372 73.8102 141.917 74.4409 143.447 75.1212C146.503 76.4674 149.469 78.0083 152.327 79.7344C155.175 81.4763 157.875 83.4507 160.398 85.6373Z" fill="#ECECEC"/>
<path d="M160.397 90.8246C157.435 89.9104 154.445 89.0955 151.419 88.4435C148.393 87.7916 145.367 87.168 142.32 86.6719C136.219 85.7011 130.075 84.7657 123.895 84.8437C120.821 84.8559 117.753 85.1094 114.719 85.6019C111.671 86.0767 108.61 86.6649 105.542 87.09C102.473 87.5152 99.4475 88.1317 96.4146 88.7553C93.3816 89.3789 90.3841 90.0734 87.3298 90.7041C90.3061 89.8112 93.3036 89.0175 96.3083 88.2522C99.3129 87.4869 102.36 86.8349 105.414 86.2822L109.985 85.4602C111.509 85.1838 113.032 84.9003 114.57 84.6452C117.651 84.1117 120.769 83.825 123.895 83.7878C127.016 83.7977 130.133 84.0036 133.228 84.4043C136.318 84.8011 139.393 85.2618 142.44 85.8712C145.488 86.4806 148.521 87.1396 151.525 87.9404C154.532 88.7438 157.493 89.7065 160.397 90.8246Z" fill="#ECECEC"/>
<path d="M160.398 94.6371C157.436 95.4662 154.424 96.0968 151.413 96.685C148.401 97.2732 145.347 97.7054 142.3 98.1023C139.253 98.4991 136.198 98.8109 133.13 99.1015C130.062 99.392 126.986 99.5266 123.918 99.5266C117.717 99.5266 111.616 98.5345 105.543 97.8188C102.491 97.4173 99.4508 96.959 96.4226 96.4441C93.3967 95.8984 90.3779 95.3457 87.3733 94.7008C90.4204 95.1048 93.4534 95.5583 96.5005 95.9338C99.5477 96.3094 102.581 96.7063 105.635 97.0039C108.689 97.3015 111.743 97.6629 114.783 97.9747C117.82 98.3005 120.871 98.4637 123.925 98.4637C130.043 98.4203 136.154 98.0299 142.229 97.2944C145.276 96.9732 148.316 96.5929 151.349 96.1535C154.361 95.7425 157.387 95.2323 160.398 94.6371Z" fill="#ECECEC"/>
<path d="M147.266 63.3933C141.449 62.8547 138.125 62.054 132.86 57.0581L133.221 56.6754C138.373 61.5579 141.619 62.3445 147.316 62.8689L147.266 63.3933Z" fill="#EFD7D0"/>
<path d="M103.714 63.3933L103.665 62.8689C109.334 62.3374 112.608 61.5579 117.759 56.6754L118.128 57.0581C112.841 62.054 109.539 62.8547 103.714 63.3933Z" fill="#EFD7D0"/>
<path d="M81.3497 50.0142C81.3497 50.0142 139.77 41.1775 145.226 11.0959L114.925 7.59521L101.61 17.7925L90.4982 27.8693L80.1309 38.7823L81.3497 50.0142Z" fill="#DF5F1C"/>
<path d="M169.532 49.6173C169.532 49.6173 129.275 41.1775 125.49 11.0959L139.139 10.1959L155.877 17.7925L163.622 27.8693L170.843 38.7823L169.532 49.6173Z" fill="#DF5F1C"/>
<path d="M140.478 129.296L140.421 125.916C124.123 131.791 111.906 126.582 110.51 125.916L110.453 129.36C92.482 136.858 66.305 155.133 62.9744 188.305C80.5207 203.008 102.683 211.066 125.575 211.066C148.468 211.066 170.63 203.008 188.176 188.305C184.853 155.013 158.477 136.737 140.478 129.296Z" fill="#FACB39"/>
<path d="M158.719 205.298L158.875 169.157C158.875 168.975 158.805 168.8 158.68 168.668C158.555 168.536 158.383 168.458 158.202 168.449C158.026 168.457 157.86 168.531 157.735 168.655C157.611 168.78 157.537 168.946 157.528 169.122L157.373 205.765L158.719 205.298Z" fill="#1E34D1"/>
<path d="M93.666 169.122C93.6574 168.946 93.5837 168.78 93.4593 168.655C93.3348 168.531 93.1685 168.457 92.9928 168.449C92.811 168.458 92.6398 168.536 92.5145 168.668C92.3891 168.8 92.3194 168.975 92.3196 169.157L92.4755 205.298L93.8219 205.765L93.666 169.122Z" fill="#1E34D1"/>
<path d="M0.359334 198.006C0.314696 198.012 0.269329 198.012 0.224691 198.006C0.182717 197.987 0.144364 197.96 0.111307 197.928C0.0451819 197.862 0.00709666 197.773 0.0050154 197.68C-0.0016718 197.633 -0.0016718 197.585 0.0050154 197.538C0.0243231 197.496 0.0506893 197.458 0.0829658 197.425C0.132376 197.376 0.19523 197.343 0.263434 197.331C0.331637 197.318 0.402059 197.326 0.465625 197.354C0.510253 197.369 0.551274 197.393 0.586092 197.425C0.616044 197.46 0.642177 197.498 0.664042 197.538C0.670925 197.585 0.670925 197.633 0.664042 197.68C0.664598 197.772 0.628995 197.861 0.564833 197.928C0.505637 197.974 0.434076 198.001 0.359334 198.006Z" fill="#DF5F1C"/>
<path d="M0.359 216.501C0.314681 216.511 0.268676 216.511 0.224357 216.501C0.180994 216.484 0.142159 216.458 0.110973 216.423C0.0786962 216.39 0.05233 216.352 0.0330223 216.31C0.0264275 216.265 0.0264275 216.22 0.0330223 216.175C0.0347421 216.08 0.0727561 215.989 0.139324 215.92C0.188734 215.871 0.251589 215.839 0.319792 215.826C0.387996 215.813 0.458417 215.822 0.521983 215.849C0.566612 215.864 0.607632 215.888 0.64245 215.92C0.707048 215.989 0.74257 216.081 0.741659 216.175C0.748465 216.22 0.748465 216.265 0.741659 216.31C0.719793 216.35 0.693661 216.388 0.663708 216.423C0.629289 216.457 0.588293 216.484 0.543241 216.501C0.483453 216.521 0.418789 216.521 0.359 216.501Z" fill="#DF5F1C"/>
<path d="M0.359605 234.997C0.313262 234.996 0.267439 234.987 0.224843 234.969C0.182246 234.95 0.143733 234.924 0.111577 234.89C0.0778228 234.858 0.0512471 234.82 0.033627 234.777C0.0262259 234.732 0.0262259 234.687 0.033627 234.642C0.036423 234.573 0.0591148 234.506 0.0989912 234.449C0.138867 234.392 0.194242 234.348 0.258504 234.322C0.322766 234.296 0.393197 234.289 0.461387 234.302C0.529577 234.314 0.592645 234.347 0.643055 234.394C0.707217 234.461 0.742819 234.55 0.742263 234.642C0.749665 234.687 0.749665 234.732 0.742263 234.777C0.722198 234.818 0.695911 234.857 0.664313 234.89C0.633126 234.925 0.594292 234.952 0.550929 234.968C0.491238 234.996 0.424781 235.006 0.359605 234.997Z" fill="#DF5F1C"/>
<path d="M248.375 56.2786C248.176 56.2786 248.027 56.3707 248.027 56.5762C248.027 56.7817 247.893 57.0652 248.027 57.0722C248.162 57.0793 248.24 56.7108 248.375 56.6754C248.509 56.64 248.743 56.2644 248.375 56.2786Z" fill="#2A3DFA"/>
</svg>
