<svg width="300" height="300" viewBox="0 0 300 300" fill="none" xmlns="http://www.w3.org/2000/svg">
<circle cx="150" cy="150" r="150" fill="white" fill-opacity="0.03"/>
<circle cx="150" cy="150" r="58" fill="#FACB39"/>
<circle cx="150" cy="150" r="99.5" stroke="white" stroke-opacity="0.1"/>
<path d="M144.857 130C148.798 130 152.576 131.565 155.363 134.352C158.149 137.138 159.714 140.917 159.714 144.857C159.714 148.537 158.366 151.92 156.149 154.526L156.766 155.143H158.571L170 166.571L166.571 170L155.143 158.571V156.766L154.526 156.149C151.92 158.366 148.537 159.714 144.857 159.714C140.917 159.714 137.138 158.149 134.352 155.363C131.565 152.576 130 148.798 130 144.857C130 140.917 131.565 137.138 134.352 134.352C137.138 131.565 140.917 130 144.857 130ZM144.857 134.571C139.143 134.571 134.571 139.143 134.571 144.857C134.571 150.571 139.143 155.143 144.857 155.143C150.571 155.143 155.143 150.571 155.143 144.857C155.143 139.143 150.571 134.571 144.857 134.571Z" fill="#564FF5"/>
<g opacity="0.6">
<path d="M82.8198 21.9804C82.8059 25.5196 81.7437 28.9754 79.7673 31.9114C77.7909 34.8474 74.9889 37.132 71.7151 38.4768C68.4413 39.8215 64.8424 40.1662 61.3729 39.4672C57.9033 38.7682 54.7186 37.0569 52.2209 34.5494C49.7232 32.0419 48.0244 28.8505 47.339 25.3783C46.6537 21.906 47.0124 18.3085 48.37 15.04C49.7276 11.7715 52.0232 8.97846 54.9669 7.01358C57.9107 5.0487 61.3706 4.00006 64.9099 4.00003C69.6663 4.01864 74.2216 5.92121 77.5784 9.29116C80.9352 12.6611 82.8199 17.2239 82.8198 21.9804Z" fill="#00A79D"/>
<path d="M65.5978 35.4499C64.568 35.4428 63.5655 35.118 62.7271 34.52C61.8887 33.922 61.2553 33.0799 60.9133 32.1085C60.5713 31.1371 60.5373 30.0839 60.816 29.0925C61.0948 28.1011 61.6727 27.2199 62.4708 26.5692V13.1543C62.4708 12.4437 62.752 11.7621 63.2529 11.2582C63.7539 10.7543 64.4339 10.4692 65.1444 10.465H66.0669C66.7787 10.4671 67.4608 10.7514 67.9634 11.2555C68.466 11.7596 68.7483 12.4424 68.7483 13.1543V26.5379C69.5464 27.1887 70.1243 28.0699 70.403 29.0613C70.6818 30.0526 70.6478 31.1059 70.3058 32.0772C69.9638 33.0486 69.3303 33.8907 68.492 34.4887C67.6536 35.0867 66.6511 35.4115 65.6213 35.4186L65.5978 35.4499Z" fill="white"/>
<g style="mix-blend-mode:multiply" opacity="0.3">
<path d="M67.4897 27.2181V13.1465C67.4928 12.9563 67.4582 12.7674 67.3878 12.5906C67.3173 12.4139 67.2126 12.2529 67.0795 12.117C66.9465 11.981 66.7878 11.8728 66.6126 11.7986C66.4375 11.7244 66.2493 11.6856 66.0591 11.6846H65.1366C64.7565 11.6867 64.3926 11.8392 64.1246 12.1087C63.8565 12.3782 63.706 12.7429 63.706 13.123V27.1946C62.9986 27.6099 62.4476 28.2464 62.1378 29.0059C61.828 29.7655 61.7768 30.6058 61.9919 31.3974C62.2071 32.1889 62.6768 32.8877 63.3284 33.3858C63.9801 33.884 64.7776 34.1539 65.5979 34.1539C66.4181 34.1539 67.2156 33.884 67.8673 33.3858C68.519 32.8877 68.9886 32.1889 69.2038 31.3974C69.419 30.6058 69.3677 29.7655 69.0579 29.0059C68.7482 28.2464 68.1971 27.6099 67.4897 27.1946V27.2181Z" fill="#6D6E71"/>
</g>
<path d="M67.4897 27.2181V15.781H63.706V27.2181C62.9986 27.6334 62.4476 28.2699 62.1378 29.0294C61.828 29.7889 61.7768 30.6293 61.9919 31.4208C62.2071 32.2124 62.6768 32.9111 63.3284 33.4093C63.9801 33.9074 64.7776 34.1773 65.5979 34.1773C66.4181 34.1773 67.2156 33.9074 67.8673 33.4093C68.519 32.9111 68.9886 32.2124 69.2038 31.4208C69.419 30.6293 69.3677 29.7889 69.0579 29.0294C68.7482 28.2699 68.1971 27.6334 67.4897 27.2181Z" fill="#C03945"/>
</g>
<g opacity="0.6">
<path d="M232.82 267.984C232.805 271.721 231.684 275.37 229.597 278.47C227.51 281.57 224.552 283.982 221.095 285.402C217.638 286.822 213.839 287.186 210.175 286.448C206.512 285.71 203.15 283.903 200.512 281.255C197.875 278.608 196.082 275.238 195.358 271.572C194.634 267.906 195.013 264.107 196.447 260.656C197.88 257.205 200.304 254.256 203.412 252.182C206.52 250.107 210.173 249 213.91 249C218.932 249.02 223.742 251.028 227.286 254.587C230.83 258.145 232.82 262.962 232.82 267.984Z" fill="#00A79D"/>
<path d="M213.596 262.33C213.596 262.33 214.578 267.976 211.211 268.108C207.018 268.281 205.194 271.567 207.133 274.315C209.519 277.708 218.516 276.998 221.322 271.352C224.128 265.706 222.304 261.761 219.671 259.928C217.665 258.575 213.596 258.525 213.596 262.33Z" fill="#C03945"/>
<g style="mix-blend-mode:multiply" opacity="0.3">
<path d="M210.344 268.199C206.77 268.76 205.317 271.773 207.117 274.323C209.502 277.716 218.499 277.006 221.305 271.36C222.002 270.02 222.458 268.567 222.651 267.068C218.639 269.074 213.761 268.818 210.344 268.199Z" fill="#6D6E71"/>
</g>
<path d="M220.199 254.852C220.199 254.852 221.603 258.096 219.638 259.937" stroke="#33314F" stroke-width="0.825404" stroke-linecap="round" stroke-linejoin="round"/>
<path d="M205.59 279.548C206.715 279.559 207.823 279.279 208.808 278.735C209.793 278.191 210.621 277.402 211.211 276.445" stroke="#33314F" stroke-width="0.825404" stroke-linecap="round" stroke-linejoin="round"/>
</g>
<g opacity="0.6">
<path d="M75.8198 127.463C75.8094 130.113 75.0141 132.7 73.5343 134.898C72.0545 137.097 69.9565 138.807 67.5052 139.814C65.054 140.821 62.3594 141.079 59.7616 140.556C57.1638 140.032 54.7793 138.751 52.9091 136.874C51.039 134.996 49.767 132.607 49.2538 130.007C48.7407 127.407 49.0093 124.713 50.0258 122.266C51.0423 119.819 52.7611 117.728 54.9652 116.256C57.1693 114.785 59.7599 114 62.4099 114C65.9713 114.014 69.382 115.438 71.8954 117.962C74.4087 120.485 75.8199 123.901 75.8198 127.463Z" fill="#FFD6C7"/>
<path d="M67.912 130.641C67.7044 131.176 67.3395 131.636 66.8654 131.959C66.3913 132.283 65.8302 132.455 65.2562 132.453C64.6822 132.452 64.1222 132.276 63.6502 131.949C63.1781 131.623 62.8161 131.161 62.612 130.624C62.4078 130.088 62.3711 129.502 62.5066 128.944C62.6421 128.386 62.9435 127.883 63.3711 127.5C63.7987 127.117 64.3323 126.873 64.9016 126.799C65.4708 126.726 66.049 126.826 66.5599 127.088C66.8826 127.232 67.1737 127.438 67.4165 127.695C67.6593 127.951 67.8489 128.253 67.9746 128.583C68.1002 128.914 68.1594 129.265 68.1486 129.618C68.1379 129.972 68.0575 130.319 67.912 130.641Z" fill="#F9CD39"/>
<path d="M68.5324 127.246C68.7668 127.046 68.9424 126.787 69.0404 126.495C69.1385 126.203 69.1554 125.89 69.0892 125.589C69.0231 125.289 68.8764 125.012 68.6649 124.788C68.4534 124.564 68.1851 124.402 67.8886 124.319C67.9118 124.21 67.9236 124.098 67.9237 123.986C67.9237 123.534 67.7444 123.1 67.4252 122.779C67.1059 122.459 66.6727 122.278 66.2204 122.277C66.0681 122.28 65.9167 122.301 65.7697 122.341C65.7112 121.914 65.5021 121.522 65.1802 121.235C64.8583 120.949 64.4446 120.787 64.0137 120.778C63.698 120.775 63.3873 120.857 63.1143 121.016C62.8413 121.174 62.6162 121.404 62.4626 121.68C62.2907 121.304 61.9955 120.998 61.626 120.814C61.2565 120.629 60.835 120.577 60.4314 120.665C60.0279 120.753 59.6668 120.977 59.408 121.299C59.1492 121.621 59.0085 122.022 59.0091 122.435C59.0091 122.517 59.0091 122.593 59.0091 122.669C58.7341 122.513 58.423 122.433 58.1071 122.436C57.7913 122.44 57.4819 122.526 57.21 122.687C56.9382 122.848 56.7135 123.077 56.5587 123.353C56.4039 123.628 56.3245 123.939 56.3283 124.255C56.3298 124.595 56.4272 124.928 56.6092 125.215C56.2064 125.317 55.8547 125.563 55.6199 125.906C55.3851 126.249 55.2833 126.666 55.3335 127.078C55.3837 127.491 55.5826 127.871 55.8928 128.147C56.203 128.424 56.6034 128.578 57.019 128.581C57.4108 128.579 57.7897 128.44 58.0901 128.188C58.2259 128.481 58.4422 128.729 58.7138 128.903C58.9854 129.077 59.301 129.171 59.6237 129.172C59.9276 129.17 60.2253 129.085 60.4841 128.926C60.629 129.193 60.8429 129.415 61.1035 129.571C61.364 129.726 61.6616 129.809 61.965 129.81C62.207 129.808 62.4457 129.755 62.6657 129.654C62.8856 129.553 63.0817 129.407 63.241 129.225C63.3572 129.489 63.5393 129.719 63.7699 129.893C64.0005 130.066 64.2719 130.178 64.558 130.217C64.8442 130.256 65.1354 130.22 65.404 130.114C65.6725 130.008 65.9093 129.835 66.0916 129.611C66.2404 129.79 66.4246 129.937 66.6325 130.042C66.8405 130.147 67.0679 130.208 67.3006 130.221C67.5332 130.235 67.7661 130.2 67.9847 130.12C68.2033 130.039 68.403 129.914 68.5714 129.753C68.7397 129.592 68.8731 129.398 68.9632 129.183C69.0533 128.968 69.0982 128.737 69.0951 128.504C69.092 128.271 69.041 128.041 68.9452 127.829C68.8494 127.616 68.7109 127.426 68.5383 127.27L68.5324 127.246Z" fill="#C03945"/>
<g style="mix-blend-mode:multiply" opacity="0.3">
<path d="M69.1646 125.941C69.1648 125.566 69.0416 125.202 68.8141 124.905C68.5866 124.608 68.2675 124.394 67.9062 124.296C67.9294 124.186 67.9412 124.075 67.9413 123.962C67.9403 123.713 67.8842 123.466 67.7769 123.24C67.6697 123.015 67.5139 122.816 67.3208 122.657C67.6198 122.973 67.7836 123.393 67.7774 123.828C67.7795 124.075 67.7284 124.319 67.6273 124.544C67.5263 124.77 67.3778 124.97 67.1921 125.133C67.3647 125.29 67.5031 125.48 67.5989 125.692C67.6947 125.905 67.7458 126.135 67.7489 126.368C67.752 126.601 67.7071 126.832 67.617 127.047C67.5269 127.262 67.3935 127.456 67.2252 127.617C67.0568 127.778 66.8571 127.902 66.6385 127.983C66.4198 128.064 66.1869 128.098 65.9543 128.085C65.7217 128.072 65.4943 128.011 65.2863 127.905C65.0783 127.8 64.8942 127.654 64.7454 127.474C64.5624 127.698 64.3251 127.871 64.0562 127.977C63.7872 128.083 63.4956 128.119 63.2092 128.08C62.9227 128.041 62.6509 127.93 62.4198 127.756C62.1887 127.582 62.0059 127.352 61.889 127.088C61.7108 127.294 61.4852 127.454 61.2317 127.553C60.9781 127.653 60.7041 127.689 60.4334 127.659C60.1627 127.629 59.9033 127.534 59.6776 127.381C59.4519 127.229 59.2667 127.024 59.1379 126.784C58.8786 126.941 58.5809 127.024 58.2775 127.024C57.9428 127.029 57.614 126.936 57.3327 126.754C57.0514 126.573 56.8302 126.312 56.6971 126.005C56.3967 126.257 56.0178 126.396 55.6259 126.397C55.5421 126.403 55.458 126.403 55.3742 126.397C55.3344 126.544 55.3128 126.696 55.3098 126.848C55.3091 127.072 55.3525 127.294 55.4378 127.502C55.523 127.709 55.6484 127.898 55.8066 128.056C55.9649 128.215 56.1529 128.341 56.36 128.427C56.567 128.513 56.789 128.557 57.0131 128.557C57.405 128.555 57.7839 128.417 58.0843 128.165C58.22 128.458 58.4364 128.706 58.708 128.88C58.9796 129.054 59.2952 129.147 59.6179 129.148C59.9218 129.147 60.2195 129.062 60.4783 128.903C60.6232 129.169 60.8371 129.392 61.0977 129.547C61.3582 129.703 61.6558 129.785 61.9592 129.786C62.2011 129.784 62.4399 129.731 62.6598 129.63C62.8798 129.529 63.0759 129.383 63.2352 129.201C63.3514 129.465 63.5335 129.696 63.7641 129.869C63.9947 130.043 64.2661 130.155 64.5522 130.193C64.8383 130.232 65.1296 130.197 65.3982 130.091C65.6667 129.985 65.9035 129.811 66.0858 129.587C66.2346 129.767 66.4187 129.913 66.6267 130.019C66.8347 130.124 67.0621 130.185 67.2947 130.198C67.5273 130.211 67.7602 130.177 67.9789 130.096C68.1975 130.016 68.3972 129.891 68.5656 129.73C68.7339 129.569 68.8673 129.375 68.9574 129.16C69.0475 128.945 69.0924 128.714 69.0893 128.481C69.0862 128.248 69.0351 128.018 68.9394 127.805C68.8436 127.593 68.7051 127.403 68.5325 127.246C68.7277 127.089 68.8857 126.89 68.995 126.664C69.1043 126.439 69.1622 126.192 69.1646 125.941Z" fill="#6D6E71"/>
</g>
<path d="M65.7463 132.052C65.7463 132.052 66.9462 133.931 66.5248 135.681" stroke="#33314F" stroke-width="0.585332" stroke-linecap="round" stroke-linejoin="round"/>
</g>
<g opacity="0.6">
<path d="M263.82 96.9902C263.804 101.023 262.594 104.962 260.341 108.307C258.089 111.653 254.896 114.257 251.165 115.789C247.434 117.322 243.333 117.715 239.379 116.918C235.425 116.121 231.796 114.171 228.95 111.314C226.103 108.456 224.167 104.819 223.386 100.862C222.605 96.9054 223.014 92.8058 224.561 89.081C226.108 85.3563 228.724 82.1734 232.079 79.9342C235.434 77.6951 239.377 76.5 243.41 76.5C248.83 76.5212 254.021 78.6893 257.847 82.5297C261.672 86.3701 263.82 91.5697 263.82 96.9902Z" fill="#F7A43E"/>
<path d="M240.443 88.4467V105.035H232.746C232.082 103.645 231.754 102.12 231.786 100.58C231.819 99.0411 232.212 97.5308 232.933 96.1706C235.374 91.2886 240.443 88.4467 240.443 88.4467Z" fill="#C03945"/>
<path d="M247.205 88.4467V105.035H254.902C255.566 103.645 255.895 102.12 255.862 100.58C255.83 99.0411 255.437 97.5308 254.715 96.1706C252.274 91.2886 247.205 88.4467 247.205 88.4467Z" fill="#C03945"/>
<g style="mix-blend-mode:multiply" opacity="0.3">
<path d="M247.205 88.4467V105.035H254.902C255.566 103.645 255.895 102.12 255.862 100.58C255.83 99.0411 255.437 97.5308 254.715 96.1706C252.274 91.2886 247.205 88.4467 247.205 88.4467Z" fill="#6D6E71"/>
</g>
<path d="M243.829 86.0948V96.7586L240.728 98.4513" stroke="#33314F" stroke-width="0.890877" stroke-linecap="round" stroke-linejoin="round"/>
<path d="M243.829 96.7585L247.018 98.5492" stroke="#33314F" stroke-width="0.890877" stroke-linecap="round" stroke-linejoin="round"/>
</g>
<g opacity="0.6">
<path d="M99 220.981C98.986 224.538 97.9185 228.011 95.9321 230.962C93.9458 233.912 91.1297 236.209 87.8394 237.56C84.5491 238.912 80.9322 239.258 77.4452 238.556C73.9582 237.853 70.7575 236.133 68.2472 233.613C65.7369 231.093 64.0296 227.885 63.3407 224.396C62.6519 220.906 63.0125 217.29 64.3769 214.005C65.7413 210.72 68.0485 207.913 71.007 205.939C73.9656 203.964 77.4429 202.91 80.9999 202.91C85.7803 202.929 90.3586 204.841 93.7322 208.228C97.1059 211.615 99 216.2 99 220.981Z" fill="#F7A43E"/>
<path d="M86.2012 224.98C86.2012 222.167 86.1305 214.585 85.3605 213.265C84.8812 212.48 83.4827 212.283 82.3827 212.283C81.8386 212.286 81.2952 212.325 80.7564 212.401C80.3164 213.407 77.9436 218.828 76.828 220.824C74.5337 224.956 74.1566 226.001 74.4709 227.408C74.848 229.081 77.0165 229.498 78.7607 229.827C79.4819 229.915 80.1847 230.117 80.8428 230.425C80.9503 230.319 81.0123 230.175 81.0157 230.024C80.9685 229.694 80.3242 229.356 79.8057 229.081C79.075 228.696 78.2343 228.295 78.5329 227.51C78.5693 227.401 78.6391 227.307 78.7323 227.241C78.8254 227.175 78.9371 227.139 79.0514 227.14C79.5593 227.251 80.0285 227.495 80.4107 227.848C81.3928 228.539 82.8934 229.592 84.6534 229.592H84.9048C85.2824 229.624 85.6618 229.557 86.0061 229.399C86.3503 229.241 86.6476 228.996 86.869 228.688C87.5761 227.4 86.2955 225.121 86.2798 225.098C86.2451 225.065 86.2183 225.024 86.2012 224.98Z" fill="#FFD6C7"/>
</g>
</svg>
