<svg width="158" height="309" viewBox="0 0 158 309" fill="none" xmlns="http://www.w3.org/2000/svg">
<g opacity="0.03">
<path d="M69.86 179.268L9.96924 184.281L66.7765 164.652C68.6714 163.987 70.7528 164.102 72.5629 164.972C74.3729 165.842 75.7633 167.395 76.4282 169.29C77.0931 171.185 76.978 173.266 76.1082 175.076C75.2385 176.886 73.6853 178.277 71.7904 178.942C71.1635 179.132 70.5148 179.242 69.86 179.268Z" fill="url(#paint0_radial)"/>
<path d="M69.8404 178.768L69.8293 178.768L69.8183 178.769L13.9061 183.45L66.9398 165.125L66.9421 165.124C68.7118 164.503 70.6558 164.61 72.3463 165.423C74.0368 166.235 75.3354 167.686 75.9564 169.456C76.5774 171.225 76.4699 173.169 75.6576 174.86C74.8467 176.547 73.4001 177.844 71.6348 178.466C71.0519 178.643 70.4489 178.744 69.8404 178.768Z" stroke="white" stroke-opacity="0.5"/>
<path d="M4.8048 175.708C6.50294 174.672 8.47088 174.164 10.4583 174.25C12.4458 174.335 14.3629 175.01 15.9659 176.188C17.5689 177.366 18.7853 178.994 19.4604 180.865C20.1355 182.736 20.2388 184.766 19.7572 186.696C19.2756 188.626 18.2307 190.369 16.7556 191.704C15.2805 193.039 13.4418 193.904 11.4733 194.191C9.50477 194.478 7.49546 194.173 5.70089 193.314C3.90633 192.456 2.40761 191.083 1.39536 189.371C0.0544208 187.102 -0.339647 184.397 0.298383 181.84C0.936413 179.283 2.55526 177.08 4.8048 175.708Z" fill="url(#paint1_radial)"/>
<path d="M5.06523 176.135C6.6787 175.15 8.54851 174.668 10.4369 174.749C12.3252 174.83 14.1467 175.471 15.6698 176.59C17.1929 177.71 18.3486 179.257 18.9901 181.035C19.6315 182.813 19.7297 184.741 19.2721 186.575C18.8144 188.409 17.8217 190.065 16.4202 191.333C15.0186 192.601 13.2715 193.424 11.4012 193.696C9.53085 193.969 7.62173 193.679 5.91664 192.863C4.21156 192.048 2.78757 190.743 1.82579 189.116C0.551709 186.961 0.17729 184.391 0.783506 181.961C1.38972 179.532 2.92785 177.439 5.06523 176.135Z" stroke="white" stroke-opacity="0.5"/>
<path d="M95.5312 211.181L61.7627 252.445L84.3252 204.112C84.6955 203.313 85.2195 202.596 85.8672 202C86.5149 201.404 87.2736 200.942 88.1 200.639C88.9264 200.336 89.8043 200.199 90.6836 200.236C91.5629 200.273 92.4265 200.482 93.2248 200.853C94.0232 201.223 94.7407 201.747 95.3366 202.395C95.9324 203.042 96.3948 203.801 96.6975 204.627C97.0001 205.454 97.137 206.332 97.1003 207.211C97.0637 208.09 96.8542 208.954 96.4838 209.752C96.2268 210.266 95.9068 210.746 95.5312 211.181Z" fill="url(#paint2_radial)"/>
<path d="M95.1528 210.854L95.1527 210.854L95.1442 210.865L63.9051 249.038L84.7782 204.323L84.7787 204.322C85.1215 203.583 85.6064 202.919 86.2057 202.368C86.8051 201.816 87.5072 201.388 88.2719 201.108C89.0367 200.828 89.8491 200.702 90.6628 200.736C91.4765 200.77 92.2756 200.963 93.0144 201.306C93.7532 201.649 94.4172 202.134 94.9686 202.733C95.52 203.332 95.9479 204.035 96.228 204.799C96.508 205.564 96.6347 206.377 96.6008 207.19C96.5669 208.002 96.3741 208.798 96.0333 209.535C95.7955 210.01 95.4997 210.453 95.1528 210.854Z" stroke="white" stroke-opacity="0.5"/>
<path d="M53.1635 250.465C53.5552 248.764 54.4424 247.218 55.713 246.021C56.9836 244.824 58.5805 244.031 60.3017 243.742C62.023 243.453 63.7913 243.681 65.383 244.397C66.9747 245.113 68.3184 246.285 69.244 247.765C70.1697 249.245 70.6358 250.966 70.5834 252.71C70.531 254.455 69.9624 256.144 68.9496 257.566C67.9367 258.987 66.5252 260.076 64.8933 260.696C63.2615 261.315 61.4827 261.436 59.7819 261.044C57.5014 260.519 55.523 259.109 54.2818 257.125C53.0407 255.141 52.6384 252.745 53.1635 250.465Z" fill="url(#paint3_radial)"/>
<path d="M53.6508 250.577C54.0202 248.973 54.8572 247.514 56.0558 246.385C57.2544 245.256 58.7608 244.508 60.3845 244.236C62.0082 243.963 63.6763 244.178 65.1779 244.853C66.6794 245.529 67.9469 246.634 68.8202 248.03C69.6934 249.426 70.1331 251.049 70.0836 252.695C70.0342 254.341 69.4978 255.935 68.5424 257.276C67.5869 258.617 66.2553 259.644 64.716 260.228C63.1766 260.812 61.4985 260.927 59.8941 260.557C57.7428 260.061 55.8765 258.732 54.7057 256.86C53.5349 254.988 53.1554 252.728 53.6508 250.577Z" stroke="white" stroke-opacity="0.5"/>
<path d="M120.776 70.5919L100.52 10.4253L135.04 63.6978C136.19 65.473 136.588 67.6325 136.146 69.7011C135.704 71.7697 134.459 73.578 132.684 74.7283C130.908 75.8785 128.749 76.2765 126.68 75.8345C124.612 75.3926 122.803 74.147 121.653 72.3718C121.29 71.8158 120.996 71.2182 120.776 70.5919Z" fill="url(#paint4_radial)"/>
<path d="M122.073 72.0999L122.072 72.0985C121.731 71.577 121.455 71.0166 121.248 70.4292C121.248 70.4282 121.248 70.4272 121.247 70.4262L102.262 14.0336L134.621 63.9697C135.699 65.6336 136.072 67.6577 135.657 69.5966C135.243 71.5356 134.076 73.2305 132.412 74.3087C130.748 75.3868 128.724 75.7598 126.785 75.3456C124.846 74.9314 123.151 73.7638 122.073 72.0999Z" stroke="white" stroke-opacity="0.5"/>
<path d="M107.94 3.08003C109.411 4.54826 110.414 6.41987 110.821 8.458C111.227 10.4961 111.021 12.6091 110.226 14.5297C109.432 16.4502 108.085 18.0919 106.358 19.2469C104.63 20.402 102.598 21.0186 100.52 21.0186C98.4414 21.0186 96.4097 20.402 94.6819 19.2469C92.9541 18.0919 91.6078 16.4502 90.8133 14.5297C90.0189 12.6091 89.812 10.4961 90.2189 8.458C90.6258 6.41987 91.6282 4.54826 93.0992 3.08003C94.0726 2.10373 95.2292 1.32912 96.5025 0.800594C97.7759 0.272068 99.141 0 100.52 0C101.898 0 103.264 0.272068 104.537 0.800594C105.81 1.32912 106.967 2.10373 107.94 3.08003Z" fill="url(#paint5_radial)"/>
<path d="M107.586 3.43307L107.587 3.43391C108.988 4.83226 109.943 6.61477 110.33 8.55589C110.718 10.497 110.521 12.5094 109.764 14.3385C109.007 16.1676 107.725 17.7312 106.08 18.8313C104.434 19.9314 102.499 20.5186 100.52 20.5186C98.5403 20.5186 96.6054 19.9314 94.9598 18.8313C93.3142 17.7312 92.032 16.1676 91.2754 14.3385C90.5187 12.5094 90.3217 10.497 90.7092 8.55589C91.0967 6.61478 92.0514 4.83226 93.4524 3.43391L93.4533 3.43306C94.3803 2.50335 95.4816 1.7657 96.6942 1.26239C97.9068 0.759086 99.2068 0.5 100.52 0.5C101.833 0.5 103.133 0.759086 104.345 1.26239C105.558 1.7657 106.659 2.50335 107.586 3.43307Z" stroke="white" stroke-opacity="0.5"/>
<path d="M162.09 246.002C216.794 246.002 261.139 201.656 261.139 146.953C261.139 92.2498 216.794 47.9039 162.09 47.9039C107.387 47.9039 63.041 92.2498 63.041 146.953C63.041 201.656 107.387 246.002 162.09 246.002Z" fill="#00075A"/>
<path d="M260.639 146.953C260.639 201.38 216.517 245.502 162.09 245.502C107.663 245.502 63.541 201.38 63.541 146.953C63.541 92.5259 107.663 48.4039 162.09 48.4039C216.517 48.4039 260.639 92.5259 260.639 146.953Z" stroke="white" stroke-opacity="0.5"/>
<path d="M144.792 247.833L130.653 299.225L131.631 245.902C131.647 245.023 131.837 244.156 132.189 243.35C132.54 242.545 133.047 241.816 133.68 241.206C134.313 240.596 135.06 240.117 135.879 239.796C136.697 239.474 137.571 239.318 138.45 239.334C139.329 239.351 140.196 239.54 141.002 239.892C141.808 240.243 142.536 240.75 143.146 241.383C143.756 242.016 144.235 242.764 144.557 243.582C144.878 244.4 145.035 245.274 145.018 246.153C145.008 246.72 144.932 247.283 144.792 247.833Z" fill="url(#paint6_radial)"/>
<path d="M144.518 246.144L144.518 246.144C144.509 246.671 144.439 247.194 144.309 247.705L131.226 295.258L132.131 245.912C132.131 245.912 132.131 245.912 132.131 245.911C132.146 245.098 132.321 244.296 132.647 243.55C132.972 242.805 133.441 242.13 134.027 241.566C134.613 241.002 135.304 240.558 136.062 240.261C136.819 239.964 137.627 239.819 138.441 239.834C139.254 239.849 140.056 240.025 140.802 240.35C141.548 240.675 142.222 241.144 142.786 241.73C143.35 242.316 143.794 243.007 144.091 243.765C144.388 244.522 144.533 245.33 144.518 246.144Z" stroke="white" stroke-opacity="0.5"/>
<path d="M121.979 300.904C121.648 299.19 121.834 297.417 122.511 295.808C123.188 294.199 124.328 292.827 125.785 291.866C127.242 290.905 128.952 290.398 130.698 290.408C132.443 290.419 134.146 290.947 135.592 291.926C137.037 292.905 138.16 294.29 138.818 295.907C139.475 297.524 139.639 299.3 139.287 301.01C138.936 302.72 138.085 304.287 136.843 305.513C135.6 306.739 134.022 307.57 132.308 307.899C131.17 308.121 130 308.115 128.864 307.884C127.728 307.652 126.65 307.198 125.69 306.548C124.73 305.898 123.908 305.065 123.272 304.096C122.635 303.128 122.195 302.043 121.979 300.904Z" fill="url(#paint7_radial)"/>
<path d="M122.47 300.811L122.47 300.81C122.158 299.193 122.333 297.52 122.972 296.002C123.611 294.484 124.686 293.19 126.06 292.284C127.435 291.377 129.048 290.898 130.694 290.908C132.341 290.918 133.948 291.416 135.311 292.34C136.675 293.263 137.734 294.57 138.354 296.096C138.975 297.621 139.129 299.296 138.798 300.909C138.466 302.522 137.663 304 136.491 305.157C135.319 306.314 133.831 307.097 132.213 307.408L132.212 307.408C131.139 307.617 130.035 307.612 128.964 307.394C127.893 307.175 126.876 306.747 125.97 306.134C125.065 305.521 124.29 304.735 123.689 303.822C123.089 302.908 122.674 301.885 122.47 300.811Z" stroke="white" stroke-opacity="0.5"/>
<path d="M84.676 97.2907L54.2417 69.9149L90.5171 88.8925C91.6332 89.5775 92.4474 90.661 92.7948 91.9236C93.1423 93.1863 92.9971 94.5337 92.3886 95.6933C91.7801 96.853 90.7538 97.7381 89.5173 98.1696C88.2809 98.6012 86.9268 98.5469 85.7289 98.0177C85.3532 97.8132 85.0003 97.5695 84.676 97.2907Z" fill="url(#paint8_radial)"/>
<path d="M85.9498 97.5686C85.6135 97.3839 85.2973 97.1649 85.0061 96.9151L57.528 72.1984L90.2698 89.3273C91.2705 89.9465 92.0004 90.9213 92.3127 92.0563C92.6265 93.1967 92.4954 94.4137 91.9458 95.461C91.3963 96.5084 90.4693 97.3078 89.3526 97.6976C88.2424 98.0851 87.027 98.0388 85.9498 97.5686Z" stroke="white" stroke-opacity="0.5"/>
<path d="M56.097 63.3719C57.3913 63.7354 58.5487 64.4747 59.4226 65.4963C60.2966 66.5179 60.8478 67.7758 61.0065 69.1108C61.1651 70.4458 60.9242 71.7978 60.314 72.9958C59.7039 74.1938 58.7521 75.1838 57.5791 75.8406C56.406 76.4974 55.0645 76.7913 53.7243 76.6853C52.3841 76.5793 51.1055 76.078 50.0503 75.2449C48.9951 74.4119 48.2108 73.2845 47.7967 72.0054C47.3825 70.7264 47.3572 69.3533 47.7238 68.0599C48.2202 66.3328 49.3783 64.8715 50.9462 63.9937C52.5142 63.1158 54.3652 62.8924 56.097 63.3719Z" fill="url(#paint9_radial)"/>
<path d="M55.9627 63.8535C57.1614 64.1903 58.2333 64.8752 59.0427 65.8213C59.8523 66.7677 60.363 67.9331 60.51 69.1698C60.657 70.4065 60.4337 71.6591 59.8685 72.7689C59.3033 73.8787 58.4215 74.7959 57.3348 75.4043C56.2481 76.0128 55.0053 76.2851 53.7637 76.1869C52.5221 76.0886 51.3376 75.6242 50.3601 74.8525C49.3826 74.0807 48.656 73.0363 48.2724 71.8514C47.8888 70.6668 47.8652 69.3951 48.2046 68.1971C48.6648 66.5971 49.7378 65.2433 51.1905 64.43C52.6432 63.6166 54.3581 63.4095 55.9627 63.8535Z" stroke="white" stroke-opacity="0.5"/>
<path d="M78.2834 120.43L23.0054 89.3688L84.2499 105.789C86.2978 106.334 88.0452 107.671 89.1077 109.504C90.1702 111.338 90.4608 113.519 89.9156 115.566C89.3704 117.614 88.034 119.362 86.2005 120.424C84.3669 121.487 82.1864 121.777 80.1386 121.232C79.4911 121.038 78.8685 120.768 78.2834 120.43Z" fill="url(#paint10_radial)"/>
<path d="M78.5338 119.997L78.5339 119.997L78.5283 119.994L26.7195 90.8823L84.1205 106.272L84.1213 106.272C86.041 106.784 87.679 108.036 88.6751 109.755C89.6711 111.474 89.9435 113.518 89.4324 115.438C88.9214 117.357 87.6686 118.995 85.9498 119.991C84.2333 120.986 82.1923 121.259 80.2748 120.751C79.6673 120.568 79.083 120.315 78.5338 119.997Z" stroke="white" stroke-opacity="0.5"/>
<path d="M23.5569 78.8898C25.6272 79.0007 27.6184 79.7217 29.2796 80.9621C30.9409 82.2024 32.198 83.9067 32.8925 85.8601C33.587 87.8136 33.6879 89.9288 33.1825 91.9395C32.6771 93.9502 31.5879 95.7664 30.0523 97.1592C28.5167 98.5521 26.6032 99.4594 24.5529 99.7668C22.5026 100.074 20.4071 99.768 18.5305 98.8868C16.6539 98.0056 15.08 96.5887 14.0071 94.8147C12.9342 93.0407 12.4103 90.9888 12.5013 88.9176C12.559 87.53 12.8919 86.1676 13.4807 84.9098C14.0695 83.652 14.9024 82.5237 15.9311 81.5906C16.9598 80.6576 18.1638 79.9383 19.4729 79.4747C20.782 79.011 22.1703 78.8122 23.5569 78.8898Z" fill="url(#paint11_radial)"/>
<path d="M23.529 79.389L23.5302 79.3891C25.5019 79.4947 27.3983 80.1814 28.9805 81.3627C30.5627 82.544 31.7599 84.1671 32.4214 86.0276C33.0828 87.8881 33.1789 89.9027 32.6976 91.8176C32.2162 93.7326 31.1789 95.4623 29.7164 96.7889C28.2538 98.1155 26.4315 98.9796 24.4787 99.2724C22.526 99.5651 20.5303 99.2735 18.743 98.4342C16.9557 97.5949 15.4568 96.2455 14.4349 94.5559C13.4131 92.8663 12.9142 90.9122 13.0009 88.9395L13.0009 88.9383C13.0558 87.6169 13.3728 86.3196 13.9335 85.1218C14.4942 83.924 15.2874 82.8495 16.2671 81.961C17.2467 81.0725 18.3931 80.3875 19.6398 79.946C20.8865 79.5044 22.2085 79.3151 23.529 79.389Z" stroke="white" stroke-opacity="0.5"/>
<path d="M137.698 211.031L110.347 268.264L122.681 206.042C122.885 205.015 123.29 204.038 123.872 203.167C124.453 202.296 125.201 201.548 126.071 200.966C126.942 200.384 127.919 199.98 128.946 199.775C129.973 199.571 131.03 199.57 132.057 199.774C133.084 199.979 134.061 200.383 134.932 200.965C135.803 201.546 136.551 202.294 137.133 203.164C137.715 204.035 138.12 205.012 138.324 206.039C138.529 207.066 138.529 208.123 138.325 209.15C138.196 209.801 137.985 210.433 137.698 211.031Z" fill="url(#paint12_radial)"/>
<path d="M137.247 210.814L137.247 210.815L111.611 264.46L123.172 206.139C123.363 205.177 123.742 204.261 124.287 203.445C124.832 202.628 125.533 201.927 126.349 201.382C127.165 200.837 128.081 200.457 129.043 200.265C130.006 200.074 130.997 200.074 131.96 200.265C132.923 200.456 133.838 200.835 134.654 201.38L134.932 200.965L134.654 201.38C135.471 201.926 136.172 202.626 136.717 203.442C137.263 204.258 137.642 205.174 137.834 206.137C138.025 207.099 138.026 208.09 137.834 209.053L137.834 209.053C137.713 209.662 137.516 210.254 137.247 210.814Z" stroke="white" stroke-opacity="0.5"/>
<path d="M99.9434 268.389C99.9138 266.311 100.501 264.271 101.632 262.526C102.762 260.782 104.385 259.413 106.294 258.591C108.203 257.769 110.313 257.533 112.357 257.911C114.401 258.289 116.287 259.265 117.776 260.715C119.265 262.166 120.29 264.025 120.721 266.058C121.153 268.091 120.972 270.207 120.201 272.137C119.43 274.067 118.103 275.725 116.389 276.901C114.675 278.077 112.651 278.718 110.573 278.743C107.791 278.776 105.11 277.705 103.117 275.764C101.124 273.823 99.9831 271.171 99.9434 268.389Z" fill="url(#paint13_radial)"/>
<path d="M100.443 268.382C100.415 266.403 100.975 264.46 102.052 262.798C103.128 261.137 104.674 259.833 106.492 259.05C108.31 258.268 110.32 258.042 112.266 258.403C114.213 258.763 116.009 259.692 117.427 261.073C118.845 262.455 119.821 264.226 120.232 266.162C120.644 268.098 120.471 270.113 119.736 271.951C119.002 273.79 117.739 275.369 116.106 276.489C114.474 277.609 112.546 278.219 110.567 278.243C107.918 278.275 105.364 277.255 103.466 275.406C101.568 273.557 100.481 271.031 100.443 268.382Z" stroke="white" stroke-opacity="0.5"/>
<g opacity="0.2">
<path d="M187.654 184.971C221.465 161.084 232.684 118.802 212.712 90.532C192.74 62.2615 149.14 58.7079 115.328 82.5945C81.517 106.481 70.298 148.763 90.2702 177.033C110.242 205.304 153.843 208.857 187.654 184.971Z" fill="url(#paint14_linear)"/>
<path d="M212.304 90.8205C232.07 118.8 221.023 160.784 187.365 184.562C153.708 208.34 110.445 204.724 90.6786 176.745C70.912 148.765 81.9595 106.781 115.617 83.0029C149.274 59.225 192.537 62.841 212.304 90.8205Z" stroke="white" stroke-opacity="0.5"/>
</g>
<path d="M92.222 189.972L31.5039 208.223L85.8293 175.633C87.6411 174.542 89.8119 174.216 91.864 174.726C93.9162 175.237 95.6817 176.541 96.7721 178.353C97.8625 180.165 98.1885 182.335 97.6784 184.387C97.1683 186.44 95.8639 188.205 94.0521 189.296C93.474 189.6 92.8588 189.827 92.222 189.972Z" fill="url(#paint15_radial)"/>
<path d="M92.1109 189.485L92.0943 189.489L92.0781 189.494L35.1961 206.591L86.0865 176.061L86.0871 176.061C87.7853 175.039 89.8199 174.734 91.7434 175.212C93.6669 175.69 95.3217 176.912 96.3437 178.611C97.3657 180.309 97.6713 182.343 97.1932 184.267C96.7162 186.186 95.4983 187.837 93.8066 188.86C93.2706 189.14 92.7007 189.35 92.1109 189.485Z" stroke="white" stroke-opacity="0.5"/>
<path d="M24.3338 200.527C25.8538 199.11 27.7597 198.176 29.8106 197.843C31.8615 197.509 33.9651 197.792 35.8555 198.654C37.7459 199.516 39.338 200.92 40.4305 202.687C41.523 204.455 42.0669 206.506 41.9932 208.583C41.9196 210.659 41.2317 212.667 40.0167 214.353C38.8017 216.038 37.1141 217.326 35.1674 218.052C33.2207 218.778 31.1023 218.911 29.0802 218.433C27.0581 217.955 25.2231 216.889 23.8074 215.368C21.9162 213.326 20.9099 210.619 21.0086 207.839C21.1072 205.058 22.3027 202.429 24.3338 200.527Z" fill="url(#paint16_radial)"/>
<path d="M24.6752 200.892C26.1227 199.543 27.9377 198.653 29.8908 198.336C31.8441 198.019 33.8476 198.287 35.648 199.109C37.4483 199.93 38.9647 201.267 40.0052 202.95C41.0457 204.634 41.5637 206.588 41.4935 208.565C41.4234 210.543 40.7683 212.455 39.6111 214.06C38.4539 215.666 36.8467 216.892 34.9926 217.584C33.1386 218.275 31.121 218.402 29.1952 217.946C27.2694 217.491 25.5219 216.476 24.1736 215.027C22.3726 213.083 21.4143 210.505 21.5083 207.856C21.6022 205.208 22.7408 202.704 24.6752 200.892Z" stroke="white" stroke-opacity="0.5"/>
<path d="M165.324 182.301L158.731 227.276L153.968 182.151C153.812 180.642 154.261 179.132 155.218 177.954C156.175 176.777 157.56 176.027 159.07 175.871C160.579 175.715 162.088 176.164 163.266 177.121C164.444 178.078 165.193 179.463 165.349 180.973C165.385 181.415 165.376 181.86 165.324 182.301Z" fill="url(#paint17_radial)"/>
<path d="M164.829 182.236L158.812 223.278L154.465 182.099C154.465 182.099 154.465 182.099 154.465 182.099C154.323 180.722 154.733 179.344 155.606 178.27C156.479 177.195 157.744 176.511 159.121 176.368C160.498 176.226 161.876 176.636 162.951 177.509C164.024 178.381 164.708 179.643 164.851 181.018C164.883 181.424 164.876 181.832 164.829 182.236Z" stroke="white" stroke-opacity="0.5"/>
<path d="M151.561 229.607C151.103 228.192 151.075 226.673 151.48 225.242C151.886 223.811 152.706 222.532 153.838 221.568C154.97 220.603 156.363 219.995 157.84 219.822C159.317 219.649 160.812 219.917 162.137 220.593C163.461 221.27 164.556 222.323 165.281 223.622C166.007 224.92 166.332 226.404 166.214 227.887C166.096 229.369 165.542 230.783 164.62 231.951C163.699 233.118 162.452 233.986 161.037 234.445C160.097 234.75 159.107 234.867 158.122 234.789C157.137 234.711 156.177 234.439 155.297 233.99C154.417 233.54 153.634 232.922 152.993 232.17C152.352 231.418 151.865 230.547 151.561 229.607Z" fill="url(#paint18_radial)"/>
<path d="M152.037 229.453C151.609 228.132 151.583 226.714 151.962 225.378C152.34 224.042 153.106 222.849 154.162 221.948C155.219 221.048 156.519 220.481 157.898 220.319C159.277 220.157 160.673 220.407 161.909 221.039C163.146 221.67 164.167 222.654 164.845 223.866C165.522 225.077 165.825 226.463 165.715 227.847C165.606 229.231 165.088 230.551 164.228 231.641C163.368 232.731 162.204 233.541 160.883 233.97C160.006 234.254 159.081 234.363 158.161 234.29C157.242 234.217 156.346 233.964 155.524 233.544C154.702 233.125 153.972 232.548 153.373 231.846C152.775 231.144 152.321 230.331 152.037 229.453Z" stroke="white" stroke-opacity="0.5"/>
<path d="M137.071 111.405L113.13 91.3494L141.308 104.912C142.237 105.371 142.948 106.178 143.286 107.158C143.625 108.138 143.562 109.212 143.113 110.146C142.664 111.08 141.865 111.8 140.888 112.148C139.912 112.497 138.838 112.446 137.898 112.007C137.602 111.836 137.325 111.635 137.071 111.405Z" fill="#2DE0DB"/>
<path d="M137.407 111.034L137.4 111.028L137.392 111.022L116.517 93.5347L141.087 105.36C141.087 105.361 141.088 105.361 141.089 105.361C141.899 105.762 142.519 106.466 142.814 107.321C143.109 108.176 143.055 109.114 142.663 109.93C142.271 110.745 141.573 111.373 140.72 111.677C139.874 111.979 138.944 111.938 138.129 111.562C137.871 111.412 137.629 111.235 137.407 111.034Z" stroke="white" stroke-opacity="0.5"/>
<path d="M114.358 86.2854C115.35 86.5281 116.248 87.0596 116.939 87.8128C117.629 88.566 118.08 89.5069 118.235 90.5166C118.391 91.5263 118.243 92.5594 117.811 93.4852C117.379 94.411 116.682 95.1879 115.809 95.7176C114.935 96.2473 113.924 96.5061 112.904 96.4611C111.883 96.4162 110.899 96.0695 110.075 95.4651C109.252 94.8606 108.626 94.0254 108.277 93.0652C107.928 92.1051 107.872 91.063 108.116 90.0709C108.442 88.7414 109.283 87.5959 110.453 86.8861C111.624 86.1762 113.028 85.9602 114.358 86.2854Z" fill="url(#paint19_radial)"/>
<path d="M114.239 86.7711C115.135 86.9902 115.947 87.4703 116.57 88.1506C117.193 88.8308 117.601 89.6807 117.741 90.5926C117.881 91.5046 117.748 92.4377 117.358 93.2738C116.968 94.11 116.339 94.8116 115.55 95.2901C114.761 95.7685 113.848 96.0022 112.926 95.9616C112.004 95.921 111.115 95.6079 110.371 95.062C109.627 94.516 109.062 93.7617 108.747 92.8945C108.432 92.0273 108.381 91.0861 108.601 90.19C108.896 88.9893 109.655 87.9547 110.713 87.3136C111.77 86.6725 113.038 86.4773 114.239 86.7711Z" stroke="white" stroke-opacity="0.5"/>
<path d="M152.589 73.8508L150.082 13.8096L167.455 71.3439C167.742 72.292 167.838 73.2873 167.74 74.2729C167.642 75.2585 167.351 76.215 166.883 77.088C166.415 77.961 165.779 78.7332 165.013 79.3607C164.247 79.9881 163.364 80.4585 162.416 80.7449C161.468 81.0313 160.473 81.1282 159.487 81.03C158.502 80.9317 157.545 80.6404 156.672 80.1724C155.799 79.7045 155.027 79.0693 154.399 78.3029C153.772 77.5365 153.302 76.6541 153.015 75.7059C152.788 75.1103 152.644 74.486 152.589 73.8508Z" fill="#2DE0DB"/>
<path d="M153.088 73.8185L150.747 17.7401L166.976 71.4884L166.976 71.4885C167.244 72.3737 167.334 73.3031 167.243 74.2233C167.151 75.1435 166.879 76.0367 166.442 76.8518C166.005 77.6669 165.412 78.3879 164.696 78.9738C163.981 79.5597 163.157 79.9988 162.272 80.2663C161.386 80.5337 160.457 80.6241 159.537 80.5324C158.617 80.4407 157.723 80.1686 156.908 79.7318C156.093 79.2949 155.372 78.7017 154.786 77.9861C154.2 77.2706 153.761 76.4466 153.494 75.5614L153.489 75.5443L153.482 75.5276C153.273 74.9788 153.14 74.4036 153.088 73.8185Z" stroke="white" stroke-opacity="0.5"/>
<path d="M150.082 23.7622C155.579 23.7622 160.035 19.3063 160.035 13.8097C160.035 8.31303 155.579 3.85712 150.082 3.85712C144.585 3.85712 140.129 8.31303 140.129 13.8097C140.129 19.3063 144.585 23.7622 150.082 23.7622Z" fill="url(#paint20_radial)"/>
<path d="M159.535 13.8097C159.535 19.0302 155.302 23.2622 150.082 23.2622C144.861 23.2622 140.629 19.0302 140.629 13.8097C140.629 8.58917 144.861 4.35712 150.082 4.35712C155.302 4.35712 159.535 8.58917 159.535 13.8097Z" stroke="white" stroke-opacity="0.5"/>
<g opacity="0.3">
<g style="mix-blend-mode:multiply" opacity="0.3">
<path d="M86.8568 146.953C86.8568 148.59 86.3716 150.189 85.4626 151.55C84.5536 152.91 83.2615 153.97 81.7499 154.596C80.2382 155.223 78.5748 155.386 76.97 155.067C75.3652 154.748 73.8911 153.96 72.7341 152.803C71.5771 151.646 70.7892 150.172 70.47 148.567C70.1508 146.962 70.3146 145.299 70.9408 143.787C71.5669 142.276 72.6273 140.984 73.9878 140.075C75.3482 139.166 76.9477 138.68 78.5839 138.68C80.778 138.68 82.8823 139.552 84.4338 141.103C85.9852 142.655 86.8568 144.759 86.8568 146.953Z" fill="#040068"/>
<path d="M86.3568 146.953C86.3568 148.491 85.901 149.993 85.0469 151.272C84.1928 152.55 82.9788 153.546 81.5585 154.135C80.1382 154.723 78.5753 154.877 77.0675 154.577C75.5597 154.277 74.1747 153.537 73.0877 152.45C72.0006 151.363 71.2603 149.978 70.9604 148.47C70.6605 146.962 70.8144 145.399 71.4027 143.979C71.991 142.558 72.9873 141.344 74.2656 140.49C75.5438 139.636 77.0466 139.18 78.5839 139.18C80.6454 139.18 82.6225 139.999 84.0802 141.457C85.5379 142.915 86.3568 144.892 86.3568 146.953Z" stroke="white" stroke-opacity="0.5"/>
</g>
<g style="mix-blend-mode:multiply" opacity="0.3">
<path d="M110.974 203.46C110.974 204.412 110.692 205.342 110.163 206.134C109.634 206.925 108.882 207.542 108.002 207.907C107.123 208.271 106.155 208.366 105.221 208.181C104.288 207.995 103.43 207.536 102.757 206.863C102.084 206.19 101.625 205.332 101.44 204.399C101.254 203.465 101.349 202.497 101.714 201.618C102.078 200.738 102.695 199.986 103.486 199.458C104.278 198.929 105.208 198.646 106.16 198.646C107.437 198.646 108.661 199.154 109.564 200.056C110.467 200.959 110.974 202.183 110.974 203.46Z" fill="#040068"/>
<path d="M110.474 203.46C110.474 204.313 110.221 205.147 109.747 205.856C109.273 206.565 108.599 207.118 107.811 207.445C107.023 207.771 106.156 207.857 105.319 207.69C104.482 207.524 103.714 207.113 103.111 206.51C102.507 205.906 102.096 205.138 101.93 204.301C101.764 203.465 101.849 202.597 102.175 201.809C102.502 201.021 103.055 200.347 103.764 199.873C104.473 199.399 105.307 199.146 106.16 199.146C107.304 199.146 108.402 199.601 109.21 200.41C110.019 201.219 110.474 202.316 110.474 203.46Z" stroke="white" stroke-opacity="0.5"/>
</g>
<g style="mix-blend-mode:multiply" opacity="0.3">
<path d="M106.16 118.725C106.165 119.684 105.885 120.623 105.355 121.423C104.825 122.222 104.07 122.846 103.185 123.215C102.3 123.585 101.325 123.683 100.384 123.497C99.4431 123.311 98.5787 122.85 97.9005 122.171C97.2223 121.493 96.761 120.629 96.5752 119.688C96.3893 118.747 96.4872 117.772 96.8565 116.887C97.2258 116.002 97.8498 115.247 98.6493 114.717C99.4488 114.187 100.388 113.907 101.347 113.912C102.621 113.918 103.842 114.428 104.743 115.329C105.644 116.23 106.154 117.451 106.16 118.725Z" fill="#040068"/>
<path d="M105.66 118.728C105.665 119.588 105.413 120.43 104.938 121.146C104.463 121.863 103.786 122.423 102.992 122.754C102.199 123.085 101.325 123.173 100.481 123.006C99.6372 122.84 98.8621 122.426 98.2541 121.818C97.646 121.21 97.2324 120.435 97.0657 119.591C96.899 118.747 96.9868 117.873 97.3179 117.08C97.6491 116.286 98.2086 115.609 98.9255 115.134C99.6424 114.659 100.484 114.407 101.344 114.412C102.487 114.418 103.581 114.874 104.39 115.682C105.198 116.491 105.654 117.585 105.66 118.728Z" stroke="white" stroke-opacity="0.5"/>
</g>
<g style="mix-blend-mode:multiply" opacity="0.3">
<path d="M115.812 78.7144C118.47 78.7144 120.625 76.5594 120.625 73.9011C120.625 71.2428 118.47 69.0877 115.812 69.0877C113.154 69.0877 110.999 71.2428 110.999 73.9011C110.999 76.5594 113.154 78.7144 115.812 78.7144Z" fill="#040068"/>
<path d="M120.125 73.9011C120.125 76.2833 118.194 78.2144 115.812 78.2144C113.43 78.2144 111.499 76.2833 111.499 73.9011C111.499 71.5189 113.43 69.5877 115.812 69.5877C118.194 69.5877 120.125 71.5189 120.125 73.9011Z" stroke="white" stroke-opacity="0.5"/>
</g>
<g style="mix-blend-mode:multiply" opacity="0.3">
<path d="M128.898 160.065C128.898 161.023 128.614 161.959 128.081 162.755C127.548 163.551 126.791 164.172 125.905 164.537C125.02 164.903 124.046 164.997 123.106 164.808C122.167 164.619 121.305 164.156 120.629 163.477C119.954 162.798 119.495 161.933 119.311 160.993C119.127 160.053 119.227 159.079 119.597 158.196C119.967 157.312 120.591 156.558 121.39 156.029C122.189 155.501 123.127 155.221 124.085 155.226C124.719 155.226 125.347 155.352 125.932 155.595C126.518 155.838 127.05 156.195 127.497 156.645C127.944 157.094 128.298 157.628 128.539 158.215C128.779 158.802 128.901 159.43 128.898 160.065Z" fill="#040068"/>
<path d="M128.398 160.062V160.065C128.398 160.924 128.143 161.763 127.665 162.477C127.188 163.191 126.509 163.747 125.715 164.075C124.921 164.403 124.047 164.487 123.205 164.318C122.363 164.149 121.59 163.733 120.984 163.124C120.378 162.515 119.967 161.74 119.802 160.897C119.637 160.054 119.726 159.181 120.058 158.389C120.39 157.596 120.949 156.92 121.666 156.446C122.382 155.972 123.223 155.722 124.082 155.726L124.085 155.726C124.653 155.726 125.216 155.839 125.74 156.057C126.265 156.275 126.742 156.595 127.143 156.998C127.543 157.4 127.861 157.879 128.076 158.405C128.292 158.93 128.401 159.494 128.398 160.062Z" stroke="white" stroke-opacity="0.5"/>
</g>
<g style="mix-blend-mode:multiply" opacity="0.3">
<path d="M133.711 187.265C135.041 187.265 136.118 186.187 136.118 184.858C136.118 183.529 135.041 182.452 133.711 182.452C132.382 182.452 131.305 183.529 131.305 184.858C131.305 186.187 132.382 187.265 133.711 187.265Z" fill="#040068"/>
<path d="M135.618 184.858C135.618 185.911 134.764 186.765 133.711 186.765C132.658 186.765 131.805 185.911 131.805 184.858C131.805 183.805 132.658 182.952 133.711 182.952C134.764 182.952 135.618 183.805 135.618 184.858Z" stroke="white" stroke-opacity="0.5"/>
</g>
<g style="mix-blend-mode:multiply" opacity="0.3">
<path d="M115.11 183.83C116.439 183.83 117.517 182.753 117.517 181.424C117.517 180.095 116.439 179.017 115.11 179.017C113.781 179.017 112.704 180.095 112.704 181.424C112.704 182.753 113.781 183.83 115.11 183.83Z" fill="#040068"/>
<path d="M117.017 181.424C117.017 182.477 116.163 183.33 115.11 183.33C114.057 183.33 113.204 182.477 113.204 181.424C113.204 180.371 114.057 179.517 115.11 179.517C116.163 179.517 117.017 180.371 117.017 181.424Z" stroke="white" stroke-opacity="0.5"/>
</g>
<g style="mix-blend-mode:multiply" opacity="0.3">
<path d="M132.684 132.488C132.684 132.984 132.537 133.469 132.261 133.881C131.986 134.293 131.594 134.615 131.136 134.804C130.678 134.994 130.174 135.044 129.688 134.947C129.202 134.85 128.755 134.612 128.404 134.261C128.054 133.91 127.815 133.464 127.718 132.977C127.621 132.491 127.671 131.987 127.861 131.529C128.051 131.071 128.372 130.679 128.784 130.404C129.196 130.128 129.681 129.981 130.177 129.981C130.842 129.981 131.479 130.245 131.95 130.716C132.42 131.186 132.684 131.823 132.684 132.488Z" fill="#040068"/>
<path d="M132.184 132.488C132.184 132.885 132.066 133.273 131.846 133.603C131.625 133.933 131.312 134.191 130.945 134.342C130.578 134.494 130.175 134.534 129.785 134.457C129.396 134.379 129.038 134.188 128.758 133.907C128.477 133.627 128.286 133.269 128.208 132.88C128.131 132.491 128.171 132.087 128.323 131.72C128.475 131.354 128.732 131.04 129.062 130.82C129.392 130.599 129.78 130.481 130.177 130.481C130.709 130.481 131.22 130.693 131.596 131.069C131.972 131.446 132.184 131.956 132.184 132.488Z" stroke="white" stroke-opacity="0.5"/>
</g>
<g style="mix-blend-mode:multiply" opacity="0.3">
<path d="M100.996 145.575C102.325 145.575 103.403 144.497 103.403 143.168C103.403 141.839 102.325 140.761 100.996 140.761C99.6668 140.761 98.5894 141.839 98.5894 143.168C98.5894 144.497 99.6668 145.575 100.996 145.575Z" fill="#040068"/>
<path d="M102.903 143.168C102.903 144.221 102.049 145.075 100.996 145.075C99.943 145.075 99.0894 144.221 99.0894 143.168C99.0894 142.115 99.943 141.261 100.996 141.261C102.049 141.261 102.903 142.115 102.903 143.168Z" stroke="white" stroke-opacity="0.5"/>
</g>
<g style="mix-blend-mode:multiply" opacity="0.3">
<path d="M136.143 83.5528C137.473 83.5528 138.55 82.4753 138.55 81.1462C138.55 79.817 137.473 78.7395 136.143 78.7395C134.814 78.7395 133.737 79.817 133.737 81.1462C133.737 82.4753 134.814 83.5528 136.143 83.5528Z" fill="#040068"/>
<path d="M138.05 81.1462C138.05 82.1992 137.197 83.0528 136.143 83.0528C135.09 83.0528 134.237 82.1992 134.237 81.1462C134.237 80.0931 135.09 79.2395 136.143 79.2395C137.197 79.2395 138.05 80.0931 138.05 81.1462Z" stroke="white" stroke-opacity="0.5"/>
</g>
<g style="mix-blend-mode:multiply" opacity="0.3">
<path d="M79.9628 166.583C81.292 166.583 82.3695 165.505 82.3695 164.176C82.3695 162.847 81.292 161.769 79.9628 161.769C78.6336 161.769 77.5562 162.847 77.5562 164.176C77.5562 165.505 78.6336 166.583 79.9628 166.583Z" fill="#040068"/>
<path d="M81.8695 164.176C81.8695 165.229 81.0158 166.083 79.9628 166.083C78.9098 166.083 78.0562 165.229 78.0562 164.176C78.0562 163.123 78.9098 162.269 79.9628 162.269C81.0158 162.269 81.8695 163.123 81.8695 164.176Z" stroke="white" stroke-opacity="0.5"/>
</g>
<g style="mix-blend-mode:multiply" opacity="0.3">
<path d="M159.232 157.307C165.324 157.307 170.263 152.368 170.263 146.277C170.263 140.185 165.324 135.246 159.232 135.246C153.14 135.246 148.202 140.185 148.202 146.277C148.202 152.368 153.14 157.307 159.232 157.307Z" fill="#040068"/>
<path d="M169.763 146.277C169.763 152.092 165.048 156.807 159.232 156.807C153.416 156.807 148.702 152.092 148.702 146.277C148.702 140.461 153.416 135.746 159.232 135.746C165.048 135.746 169.763 140.461 169.763 146.277Z" stroke="white" stroke-opacity="0.5"/>
</g>
</g>
</g>
<defs>
<radialGradient id="paint0_radial" cx="0" cy="0" r="1" gradientUnits="userSpaceOnUse" gradientTransform="translate(-6.60991 185.76) rotate(-121.02) scale(114.241)">
<stop offset="0.2" stop-color="#2DE0DB"/>
<stop offset="0.26" stop-color="#2BD8D6"/>
<stop offset="0.36" stop-color="#27C1C9"/>
<stop offset="0.48" stop-color="#1F9CB3"/>
<stop offset="0.62" stop-color="#146994"/>
<stop offset="0.77" stop-color="#07286E"/>
<stop offset="0.84" stop-color="#00075A"/>
</radialGradient>
<radialGradient id="paint1_radial" cx="0" cy="0" r="1" gradientUnits="userSpaceOnUse" gradientTransform="translate(1.14449 188.586) rotate(-121.02) scale(17.1224)">
<stop stop-color="#2DE0DB"/>
<stop offset="0.09" stop-color="#2BD8D6"/>
<stop offset="0.23" stop-color="#27C1C9"/>
<stop offset="0.41" stop-color="#1F9CB3"/>
<stop offset="0.62" stop-color="#146994"/>
<stop offset="0.84" stop-color="#07286E"/>
<stop offset="0.95" stop-color="#00075A"/>
</radialGradient>
<radialGradient id="paint2_radial" cx="0" cy="0" r="1" gradientUnits="userSpaceOnUse" gradientTransform="translate(297503 -116650) rotate(-167) scale(1429.29 2111.58)">
<stop offset="0.2" stop-color="#2DE0DB"/>
<stop offset="0.26" stop-color="#2BD8D6"/>
<stop offset="0.36" stop-color="#27C1C9"/>
<stop offset="0.48" stop-color="#1F9CB3"/>
<stop offset="0.62" stop-color="#146994"/>
<stop offset="0.77" stop-color="#07286E"/>
<stop offset="0.84" stop-color="#00075A"/>
</radialGradient>
<radialGradient id="paint3_radial" cx="0" cy="0" r="1" gradientUnits="userSpaceOnUse" gradientTransform="translate(130801 -26467.8) rotate(-167) scale(106.952)">
<stop stop-color="#2DE0DB"/>
<stop offset="0.09" stop-color="#2BD8D6"/>
<stop offset="0.23" stop-color="#27C1C9"/>
<stop offset="0.41" stop-color="#1F9CB3"/>
<stop offset="0.62" stop-color="#146994"/>
<stop offset="0.84" stop-color="#07286E"/>
<stop offset="0.95" stop-color="#00075A"/>
</radialGradient>
<radialGradient id="paint4_radial" cx="0" cy="0" r="1" gradientUnits="userSpaceOnUse" gradientTransform="translate(151030 155745) rotate(-45) scale(1728.8 3166.9)">
<stop offset="0.2" stop-color="#2DE0DB"/>
<stop offset="0.26" stop-color="#2BD8D6"/>
<stop offset="0.36" stop-color="#27C1C9"/>
<stop offset="0.48" stop-color="#1F9CB3"/>
<stop offset="0.62" stop-color="#146994"/>
<stop offset="0.77" stop-color="#07286E"/>
<stop offset="0.84" stop-color="#00075A"/>
</radialGradient>
<radialGradient id="paint5_radial" cx="0" cy="0" r="1" gradientUnits="userSpaceOnUse" gradientTransform="translate(43998.7 46418.9) rotate(-45) scale(151.878 151.953)">
<stop stop-color="#2DE0DB"/>
<stop offset="0.09" stop-color="#2BD8D6"/>
<stop offset="0.23" stop-color="#27C1C9"/>
<stop offset="0.41" stop-color="#1F9CB3"/>
<stop offset="0.62" stop-color="#146994"/>
<stop offset="0.84" stop-color="#07286E"/>
<stop offset="0.95" stop-color="#00075A"/>
</radialGradient>
<radialGradient id="paint6_radial" cx="0" cy="0" r="1" gradientUnits="userSpaceOnUse" gradientTransform="translate(79589.1 -126376) rotate(169.09) scale(580.958 2422.03)">
<stop offset="0.2" stop-color="#2DE0DB"/>
<stop offset="0.26" stop-color="#2BD8D6"/>
<stop offset="0.36" stop-color="#27C1C9"/>
<stop offset="0.48" stop-color="#1F9CB3"/>
<stop offset="0.62" stop-color="#146994"/>
<stop offset="0.77" stop-color="#07286E"/>
<stop offset="0.84" stop-color="#00075A"/>
</radialGradient>
<radialGradient id="paint7_radial" cx="0" cy="0" r="1" gradientUnits="userSpaceOnUse" gradientTransform="translate(122631 -53131.7) rotate(169.09) scale(106.952 106.978)">
<stop stop-color="#2DE0DB"/>
<stop offset="0.09" stop-color="#2BD8D6"/>
<stop offset="0.23" stop-color="#27C1C9"/>
<stop offset="0.41" stop-color="#1F9CB3"/>
<stop offset="0.62" stop-color="#146994"/>
<stop offset="0.84" stop-color="#07286E"/>
<stop offset="0.95" stop-color="#00075A"/>
</radialGradient>
<radialGradient id="paint8_radial" cx="0" cy="0" r="1" gradientUnits="userSpaceOnUse" gradientTransform="translate(109948 102302) rotate(-74.2914) scale(1199.12 883.54)">
<stop offset="0.2" stop-color="#2DE0DB"/>
<stop offset="0.26" stop-color="#2BD8D6"/>
<stop offset="0.36" stop-color="#27C1C9"/>
<stop offset="0.48" stop-color="#1F9CB3"/>
<stop offset="0.62" stop-color="#146994"/>
<stop offset="0.77" stop-color="#07286E"/>
<stop offset="0.84" stop-color="#00075A"/>
</radialGradient>
<radialGradient id="paint9_radial" cx="0" cy="0" r="1" gradientUnits="userSpaceOnUse" gradientTransform="translate(49230.1 35490.8) rotate(-74.2913) scale(63.0085 62.9818)">
<stop stop-color="#2DE0DB"/>
<stop offset="0.09" stop-color="#2BD8D6"/>
<stop offset="0.23" stop-color="#27C1C9"/>
<stop offset="0.41" stop-color="#1F9CB3"/>
<stop offset="0.62" stop-color="#146994"/>
<stop offset="0.84" stop-color="#07286E"/>
<stop offset="0.95" stop-color="#00075A"/>
</radialGradient>
<radialGradient id="paint10_radial" cx="0" cy="0" r="1" gradientUnits="userSpaceOnUse" gradientTransform="translate(154632 169368) rotate(-86.96) scale(3230.65 1545.24)">
<stop offset="0.2" stop-color="#2DE0DB"/>
<stop offset="0.26" stop-color="#2BD8D6"/>
<stop offset="0.36" stop-color="#27C1C9"/>
<stop offset="0.48" stop-color="#1F9CB3"/>
<stop offset="0.62" stop-color="#146994"/>
<stop offset="0.77" stop-color="#07286E"/>
<stop offset="0.84" stop-color="#00075A"/>
</radialGradient>
<radialGradient id="paint11_radial" cx="0" cy="0" r="1" gradientUnits="userSpaceOnUse" gradientTransform="translate(99628.8 51298.9) rotate(-86.96) scale(151.259 151.269)">
<stop stop-color="#2DE0DB"/>
<stop offset="0.09" stop-color="#2BD8D6"/>
<stop offset="0.23" stop-color="#27C1C9"/>
<stop offset="0.41" stop-color="#1F9CB3"/>
<stop offset="0.62" stop-color="#146994"/>
<stop offset="0.84" stop-color="#07286E"/>
<stop offset="0.95" stop-color="#00075A"/>
</radialGradient>
<radialGradient id="paint12_radial" cx="0" cy="0" r="1" gradientUnits="userSpaceOnUse" gradientTransform="translate(4947.09 10957.3) scale(1407.65 3434.87)">
<stop offset="0.2" stop-color="#2DE0DB"/>
<stop offset="0.26" stop-color="#2BD8D6"/>
<stop offset="0.36" stop-color="#27C1C9"/>
<stop offset="0.48" stop-color="#1F9CB3"/>
<stop offset="0.62" stop-color="#146994"/>
<stop offset="0.77" stop-color="#07286E"/>
<stop offset="0.84" stop-color="#00075A"/>
</radialGradient>
<radialGradient id="paint13_radial" cx="0" cy="0" r="1" gradientUnits="userSpaceOnUse" gradientTransform="translate(152170 -51554.2) rotate(179.27) scale(151.259)">
<stop stop-color="#2DE0DB"/>
<stop offset="0.09" stop-color="#2BD8D6"/>
<stop offset="0.23" stop-color="#27C1C9"/>
<stop offset="0.41" stop-color="#1F9CB3"/>
<stop offset="0.62" stop-color="#146994"/>
<stop offset="0.84" stop-color="#07286E"/>
<stop offset="0.95" stop-color="#00075A"/>
</radialGradient>
<linearGradient id="paint14_linear" x1="54.4098" y1="-3.59177" x2="193.81" y2="193.728" gradientUnits="userSpaceOnUse">
<stop stop-color="white"/>
<stop offset="0.14" stop-color="white" stop-opacity="0.8"/>
<stop offset="0.34" stop-color="white" stop-opacity="0.52"/>
<stop offset="0.53" stop-color="white" stop-opacity="0.3"/>
<stop offset="0.69" stop-color="white" stop-opacity="0.14"/>
<stop offset="0.82" stop-color="white" stop-opacity="0.04"/>
<stop offset="0.89" stop-color="white" stop-opacity="0"/>
</linearGradient>
<radialGradient id="paint15_radial" cx="0" cy="0" r="1" gradientUnits="userSpaceOnUse" gradientTransform="translate(381454 163349) rotate(-133) scale(3193.66 1622.17)">
<stop offset="0.2" stop-color="#2DE0DB"/>
<stop offset="0.26" stop-color="#2BD8D6"/>
<stop offset="0.36" stop-color="#27C1C9"/>
<stop offset="0.48" stop-color="#1F9CB3"/>
<stop offset="0.62" stop-color="#146994"/>
<stop offset="0.77" stop-color="#07286E"/>
<stop offset="0.84" stop-color="#00075A"/>
</radialGradient>
<radialGradient id="paint16_radial" cx="0" cy="0" r="1" gradientUnits="userSpaceOnUse" gradientTransform="translate(147635 12471.3) rotate(-133) scale(151.185 151.259)">
<stop stop-color="#2DE0DB"/>
<stop offset="0.09" stop-color="#2BD8D6"/>
<stop offset="0.23" stop-color="#27C1C9"/>
<stop offset="0.41" stop-color="#1F9CB3"/>
<stop offset="0.62" stop-color="#146994"/>
<stop offset="0.84" stop-color="#07286E"/>
<stop offset="0.95" stop-color="#00075A"/>
</radialGradient>
<radialGradient id="paint17_radial" cx="0" cy="0" r="1" gradientUnits="userSpaceOnUse" gradientTransform="translate(2156.71 8008.4) scale(403.481 1815.15)">
<stop offset="0.2" stop-color="#2DE0DB"/>
<stop offset="0.26" stop-color="#2BD8D6"/>
<stop offset="0.36" stop-color="#27C1C9"/>
<stop offset="0.48" stop-color="#1F9CB3"/>
<stop offset="0.62" stop-color="#146994"/>
<stop offset="0.77" stop-color="#07286E"/>
<stop offset="0.84" stop-color="#00075A"/>
</radialGradient>
<radialGradient id="paint18_radial" cx="0" cy="0" r="1" gradientUnits="userSpaceOnUse" gradientTransform="translate(95713.1 -49681.5) rotate(162.05) scale(77.7654)">
<stop stop-color="#2DE0DB"/>
<stop offset="0.09" stop-color="#2BD8D6"/>
<stop offset="0.23" stop-color="#27C1C9"/>
<stop offset="0.41" stop-color="#1F9CB3"/>
<stop offset="0.62" stop-color="#146994"/>
<stop offset="0.84" stop-color="#07286E"/>
<stop offset="0.95" stop-color="#00075A"/>
</radialGradient>
<radialGradient id="paint19_radial" cx="0" cy="0" r="1" gradientUnits="userSpaceOnUse" gradientTransform="translate(36664 23557.1) rotate(-76.26) scale(36.6666)">
<stop stop-color="#2DE0DB"/>
<stop offset="0.09" stop-color="#2BD8D6"/>
<stop offset="0.23" stop-color="#27C1C9"/>
<stop offset="0.41" stop-color="#1F9CB3"/>
<stop offset="0.62" stop-color="#146994"/>
<stop offset="0.84" stop-color="#07286E"/>
<stop offset="0.95" stop-color="#00075A"/>
</radialGradient>
<radialGradient id="paint20_radial" cx="0" cy="0" r="1" gradientUnits="userSpaceOnUse" gradientTransform="translate(21127 33603.1) rotate(-28.76) scale(135.952)">
<stop stop-color="#2DE0DB"/>
<stop offset="0.09" stop-color="#2BD8D6"/>
<stop offset="0.23" stop-color="#27C1C9"/>
<stop offset="0.41" stop-color="#1F9CB3"/>
<stop offset="0.62" stop-color="#146994"/>
<stop offset="0.84" stop-color="#07286E"/>
<stop offset="0.95" stop-color="#00075A"/>
</radialGradient>
</defs>
</svg>
