<svg width="195" height="195" viewBox="0 0 195 195" fill="none" xmlns="http://www.w3.org/2000/svg">
<rect width="195" height="195" fill="#E5E5E5"/>
<rect x="-90" y="-65" width="375" height="812" fill="#564FF5"/>
<path d="M97.4942 194.988C151.339 194.988 194.988 151.339 194.988 97.4942C194.988 43.6496 151.339 0 97.4942 0C43.6496 0 0 43.6496 0 97.4942C0 151.339 43.6496 194.988 97.4942 194.988Z" fill="#A4C0F7"/>
<path d="M146.052 146.051C172.871 119.232 172.871 75.7505 146.052 48.9316C119.233 22.1128 75.7512 22.1128 48.9324 48.9317C22.1135 75.7505 22.1135 119.232 48.9324 146.051C75.7512 172.87 119.233 172.87 146.052 146.051Z" fill="#7C9AE5"/>
<path d="M87.0224 113.336C88.456 113.419 90.9235 113.916 92.6741 113.58C89.7726 118.5 87.4515 123.884 84.8719 128.955C82.1801 134.202 79.0494 139.425 76.9428 144.94C76.8786 145.081 76.8684 145.241 76.9143 145.39C76.9601 145.538 77.0588 145.664 77.1915 145.745C77.1752 149.51 77.364 153.274 77.7572 157.019C77.8596 157.95 77.9522 158.901 78.1034 159.823C78.2887 160.945 78.552 160.628 77.4012 161.066C75.7676 161.686 73.6854 161.72 71.9591 162.042C71.2179 162.173 67.0827 163.422 66.5122 163.017C65.6978 162.403 66.1904 158.848 66.1904 157.833C66.2645 154.172 66.1457 150.51 65.8344 146.861C66.0243 146.764 66.1691 146.597 66.2382 146.395C66.3073 146.193 66.2954 145.972 66.205 145.779C62.4209 136.128 59.417 125.99 54.9893 116.613C57.3933 116.433 59.7925 116.038 62.1722 115.638C64.8396 115.199 67.7264 114.975 70.3255 114.175C70.5206 119.949 71.7056 125.791 72.1542 131.55C72.1811 131.763 72.2777 131.961 72.4289 132.114C72.5802 132.267 72.7776 132.365 72.9906 132.394C73.2036 132.423 73.4201 132.381 73.6066 132.274C73.7931 132.167 73.9391 132.001 74.0219 131.803C76.0212 125.371 78.1522 118.978 80.1222 112.541C82.3939 113.012 84.7032 113.278 87.0224 113.336Z" fill="#FACB39"/>
<path d="M114.652 113.195C120.855 118.968 121.835 127.897 120.787 135.875C119.748 143.731 117.442 153.064 110.307 157.594C102.842 162.339 94.7029 158.492 91.2407 150.919C89.217 146.53 88.8025 141.532 88.6172 136.777C88.4349 134.032 88.5067 131.277 88.8318 128.546C91.1871 124.318 93.5667 120.1 95.8343 115.823C95.9227 115.66 95.9696 115.477 95.9708 115.292H96.1074C96.2821 115.282 96.4481 115.212 96.5766 115.093C96.7051 114.974 96.7881 114.814 96.8112 114.641C96.8343 114.468 96.7961 114.291 96.7032 114.143C96.6103 113.995 96.4686 113.884 96.3024 113.829C96.1428 113.786 95.9795 113.758 95.8148 113.746L95.7465 113.648C100.423 107.572 109.449 108.352 114.652 113.195ZM104.821 144.96C111.161 143.984 112.819 136.743 112.702 131.306C112.599 126.605 110.932 117.164 104.105 119.115C103.909 119.158 103.736 119.271 103.617 119.432C98.4334 120.773 96.6779 129.453 96.6486 133.89C96.6291 138.991 98.3261 145.964 104.821 144.96Z" fill="#FACB39"/>
<path d="M154.785 105.895C154.245 113.648 153.72 121.402 153.21 129.155C152.693 136.797 152.932 145.413 148.597 152.074C146.699 155.125 143.69 157.319 140.205 158.194C136.63 159.057 131.7 159.013 128.433 157.117C122.094 153.435 123.557 142.819 123.654 136.665C123.716 132.114 123.913 127.562 124.244 123.011C124.571 118.432 125.463 113.746 125.371 109.157C129.297 109.808 133.32 109.535 137.123 108.362C135.172 114.702 134.519 121.616 133.875 128.151C133.485 132.096 131.354 142.156 137.776 142.673C143.691 143.16 144.471 134.641 144.876 130.613C145.647 122.977 144.759 115.306 144.111 107.694C144.098 107.571 144.065 107.451 144.013 107.338C147.622 106.792 151.152 106.143 154.785 105.895Z" fill="#FACB39"/>
<path d="M178.923 42.1115C176.583 46.0955 174.735 50.377 172.706 54.5219C170.487 59.0716 168.025 63.5384 165.976 68.1758C165.854 68.4393 165.84 68.7405 165.938 69.0142C166.035 69.2879 166.237 69.5122 166.498 69.6387C166.923 72.8913 169.551 76.2121 171.121 79.0258C172.864 82.137 174.614 85.2416 176.373 88.3398C172.897 88.5421 169.445 89.0314 166.05 89.8027C164.738 85.9698 163.441 82.1321 162.11 78.3041C161.159 75.5587 160.12 72.8767 157.784 70.9895C157.638 70.8542 157.455 70.7638 157.259 70.7289C157.063 70.6939 156.86 70.716 156.676 70.7925C156.492 70.8689 156.334 70.9965 156.22 71.1602C156.106 71.3239 156.041 71.5168 156.033 71.7161C155.583 75.3803 155.319 79.0652 155.244 82.7563C155.185 85.7601 154.853 89.3687 155.795 92.3091C153.844 92.4262 151.893 92.7529 149.943 92.8456C148.577 92.9138 147.212 92.8894 145.856 93.026C146.446 89.1249 146.403 85.0921 146.564 81.1714C146.739 76.968 146.876 72.7629 146.973 68.5562C147.188 60.0956 147.393 51.6107 147.295 43.1404C151.175 43.4933 155.084 43.3721 158.935 42.7795C157.243 49.0506 157.389 56.5066 158.179 62.8069C158.321 63.909 159.91 64.0455 160.071 63.041L160.13 62.9581C163.772 56.726 166.469 49.5236 168.522 42.6186C172.004 42.4674 175.456 42.1651 178.923 42.1115Z" fill="#FACB39"/>
<path d="M141.668 43.1647C141.551 51.5424 141.437 59.9184 141.326 68.2928C141.268 72.5808 141.211 76.8688 141.156 81.1568C141.102 84.9458 140.834 88.9054 141.994 92.5578C138.455 92.6744 134.933 93.1086 131.471 93.8549C130.515 88.3284 129.561 82.8018 128.609 77.2752C127.775 72.4622 126.819 67.6979 124.361 63.4116C124.26 63.2129 124.094 63.0549 123.89 62.9639C123.687 62.8729 123.458 62.8544 123.243 62.9114C123.027 62.9684 122.838 63.0975 122.706 63.2773C122.574 63.457 122.508 63.6765 122.518 63.8992C122.24 74.2128 121.445 84.6629 121.918 94.9716C119.222 94.9521 116.53 95.1691 113.872 95.6202C113.487 92.5432 112.746 89.4954 112.18 86.4623L111.726 83.9705V83.0635C111.687 78.9153 111.673 74.7655 111.683 70.614C111.707 62.1583 111.902 53.7026 112.17 45.2567C116.179 45.2567 120.25 44.6764 124.234 44.2814C125.049 48.0948 126.726 51.7813 128.111 55.4094L132.471 66.786C132.533 67.0143 132.676 67.2122 132.873 67.343C133.07 67.4738 133.308 67.5284 133.542 67.4968C133.777 67.4652 133.992 67.3495 134.147 67.1712C134.302 66.9928 134.388 66.7641 134.387 66.5276C135.255 58.9643 134.29 51.3522 133.651 43.8084C136.216 44.2766 139.122 43.7889 141.668 43.1647Z" fill="#FACB39"/>
<path d="M109.717 96.6394C106.123 96.4053 101.754 97.2879 98.1503 98.1413C98.5697 96.5418 98.4136 94.7717 98.3064 93.1381C98.2669 91.2948 98.0149 89.4621 97.5554 87.6765C97.5352 87.6156 97.5091 87.5568 97.4774 87.501C97.5 87.3804 97.4933 87.2561 97.4579 87.1386C97.4224 87.0211 97.3592 86.9139 97.2737 86.8259C97.1881 86.738 97.0827 86.6719 96.9662 86.6332C96.8497 86.5945 96.7257 86.5844 96.6045 86.6037C94.8149 86.7939 93.0155 86.8524 91.2405 87.0572C91.1494 87.0696 91.0618 87.1003 90.9829 87.1473C90.9039 87.1944 90.8353 87.2569 90.7811 87.3311C90.7269 87.4054 90.6883 87.4897 90.6675 87.5793C90.6467 87.6688 90.6442 87.7616 90.6602 87.8521C90.5679 87.9498 90.5009 88.0687 90.4651 88.1983C89.9189 90.1489 89.7093 92.2116 89.2948 94.2012C88.9632 95.786 88.5974 97.3659 88.3731 98.9703C86.6176 99.1263 84.8865 99.5603 83.1505 99.848C81.5803 100.106 79.9711 100.272 78.4058 100.618C78.4935 99.1556 78.5374 97.7365 78.5813 96.298C79.069 93.8842 79.4591 91.446 79.9077 89.0663C80.7757 84.4955 81.5982 79.9214 82.3752 75.3441C83.8381 66.6348 85.1401 57.8915 86.2763 49.1334C88.0513 49.4845 90.3383 48.7726 91.9914 48.5483C95.1172 48.124 98.2625 47.7241 101.369 47.1634C101.793 50.9913 102.7 54.7852 103.407 58.5693C104.2 62.8215 104.966 67.0786 105.704 71.3406C107.157 79.7524 108.396 88.1983 109.717 96.6394ZM97.809 79.8743C98.2966 72.6328 96.7947 65.0305 95.6048 57.9305C95.5865 57.7266 95.4919 57.537 95.3401 57.3997C95.1883 57.2623 94.9903 57.1872 94.7856 57.1892C94.6441 57.0999 94.4819 57.0485 94.3148 57.04C94.1476 57.0315 93.9811 57.0661 93.8312 57.1406C93.6814 57.215 93.5531 57.3268 93.459 57.4651C93.3648 57.6035 93.3078 57.7637 93.2934 57.9305C92.9765 62.0169 92.562 66.0789 91.8939 70.1215C91.299 73.6861 90.431 77.2118 90.0262 80.8057C90.0143 80.8667 90.0155 80.9295 90.0297 80.99C90.044 81.0505 90.0708 81.1073 90.1086 81.1566C90.1464 81.2059 90.1943 81.2467 90.249 81.2761C90.3037 81.3056 90.3641 81.3231 90.4261 81.3274C90.4703 81.4358 90.5471 81.5277 90.6458 81.5906C90.7445 81.6535 90.8602 81.6842 90.9771 81.6785C92.8692 81.6395 95.2586 81.8102 97.0482 81.1519C97.2103 81.0758 97.3473 80.9552 97.4431 80.804C97.539 80.6529 97.5898 80.4775 97.5895 80.2985C97.6524 80.2459 97.7041 80.1812 97.7418 80.1084C97.7795 80.0356 97.8023 79.956 97.809 79.8743Z" fill="#FACB39"/>
<path d="M75.5045 76.5778C75.5435 81.1096 75.5305 85.6414 75.4655 90.1733C75.407 94.0744 74.9535 98.2291 75.3485 102.164C71.7838 102.325 68.2289 102.584 64.6887 103.042C65.6981 99.1848 66.1516 95.1472 66.7709 91.2168C67.3463 87.5644 68.2338 83.8242 68.463 80.1279C68.9506 79.5768 68.7751 78.4845 67.8291 78.5382C64.6624 78.6686 61.5055 78.9779 58.3737 79.4647C58.2823 79.478 58.1954 79.5134 58.1207 79.5678C58.0459 79.6222 57.9855 79.6939 57.9446 79.7768C57.7576 79.8146 57.5917 79.9213 57.4797 80.0758C57.3677 80.2302 57.3178 80.4211 57.3399 80.6106C57.7886 88.369 57.4033 96.3322 58.286 104.051C54.5311 104.505 50.7665 104.705 47.002 105.027C47.8748 98.0877 47.8553 90.8852 47.9772 83.9071C48.039 80.3896 48.0666 76.8737 48.0601 73.3594C48.0601 70.7603 48.1382 68.1124 47.9187 65.5084C48.4486 65.4629 48.9753 65.4044 49.4987 65.3329C49.6016 65.3119 49.6985 65.2678 49.7819 65.2039C49.8653 65.14 49.933 65.0579 49.98 64.964C50.027 64.87 50.052 64.7666 50.0531 64.6615C50.0542 64.5564 50.0313 64.4525 49.9863 64.3576C50.079 60.8173 49.9863 57.3112 50.3569 53.7758C50.3726 53.6736 50.364 53.5691 50.3319 53.4708C50.2997 53.3725 50.2448 53.2832 50.1716 53.2101C49.9914 52.6039 49.6551 52.0557 49.1963 51.6204C52.405 51.8057 56.0233 51.6984 59.0174 50.8792C58.4225 53.9367 58.3688 57.1405 58.125 60.2321C57.8373 63.9138 57.3887 67.6296 57.3351 71.3162C57.3467 71.4638 57.3954 71.606 57.4768 71.7296C57.5581 71.8533 57.6694 71.9544 57.8003 72.0235C57.9312 72.0926 58.0775 72.1275 58.2255 72.1249C58.3735 72.1223 58.5184 72.0823 58.6468 72.0086C61.5242 72.428 64.4557 72.2839 67.278 71.5844C67.466 71.5298 67.6276 71.4086 67.7326 71.2434C67.8377 71.0783 67.8789 70.8805 67.8486 70.6871C67.9176 70.575 67.9541 70.4458 67.9541 70.3141C67.9541 70.1824 67.9176 70.0532 67.8486 69.9411C67.0342 68.7415 67.3024 65.7717 67.1756 64.3527C67.0245 62.6118 66.8684 60.8661 66.7124 59.1252C66.4539 56.1994 66.3759 53.1711 65.7956 50.2843C68.8008 50.4032 71.8106 50.2481 74.7877 49.821C74.222 53.8587 75.0315 58.4132 75.1729 62.4997C75.3729 67.1956 75.4606 71.8819 75.5045 76.5778Z" fill="#FACB39"/>
<path d="M46.7286 51.6399C46.4459 55.0652 46.358 58.5037 46.4653 61.9389C44.8073 61.9828 43.1396 62.0364 41.4865 62.1925C41.3383 62.1989 41.1974 62.2587 41.0898 62.3609C40.9823 62.463 40.9153 62.6007 40.9013 62.7484C40.7617 62.7801 40.6337 62.8504 40.532 62.9513C40.4302 63.0521 40.3589 63.1795 40.3259 63.3189C39.6481 66.6251 39.9943 70.3019 39.9309 73.6715C39.8627 77.3678 39.7928 81.0625 39.7213 84.7556C39.5945 91.8215 39.1995 98.9508 39.6335 106.007C39.5257 105.985 39.4145 105.985 39.3068 106.007C35.4934 106.495 31.6167 106.665 27.8131 107.207C28.3885 99.9699 28.4031 92.6407 28.525 85.3895C28.6469 78.1383 29.0956 70.5896 28.4714 63.3189C28.4651 63.1502 28.4162 62.9857 28.3293 62.841C28.2423 62.6962 28.12 62.5759 27.974 62.4912C27.8279 62.4064 27.6627 62.3601 27.4939 62.3565C27.3251 62.3528 27.1581 62.392 27.0085 62.4704C25.1701 62.6069 23.1902 62.5241 21.3762 62.8557C21.5128 59.6429 21.3266 56.4246 20.8203 53.2491C25.1506 53.0785 29.4808 52.7907 33.8062 52.5421C38.1315 52.2934 42.5008 52.2739 46.7286 51.6399Z" fill="#FACB39"/>
<path d="M182.99 91.7044C182.993 91.8398 182.944 91.9712 182.854 92.0718C182.763 92.1724 182.638 92.2346 182.503 92.2457C182.474 92.3908 182.401 92.5236 182.295 92.6264C182.189 92.7292 182.054 92.7972 181.908 92.8211C177.568 93.7964 172.506 93.7964 168.039 93.7525H168.01C167.235 94.0988 166.469 93.2649 165.981 92.7041C165.608 92.3154 165.293 91.8753 165.045 91.3972C164.851 91.38 164.666 91.3048 164.514 91.1814C164.363 91.0579 164.252 90.8919 164.197 90.7048L160.744 80.6252C160.115 78.7917 159.549 76.8899 158.618 75.2173C158.779 78.8551 158.803 82.5027 158.915 86.1405C159.018 89.4613 159.437 93.3966 158.043 96.5321C158.023 96.6349 157.979 96.7317 157.916 96.8149L157.872 96.9027C157.851 96.9515 157.819 96.9955 157.78 97.0318C157.741 97.0682 157.695 97.0961 157.645 97.1139C157.595 97.1318 157.541 97.1391 157.488 97.1355C157.435 97.1318 157.383 97.1173 157.336 97.0929C154.023 97.7104 150.647 97.9087 147.285 97.6829C147.15 97.6751 147.022 97.6158 146.929 97.5171C146.852 97.5132 146.776 97.495 146.705 97.4635C146.229 97.1833 145.837 96.7787 145.574 96.2931C145.502 96.2202 145.446 96.134 145.408 96.0396C145.356 95.9583 145.302 95.8803 145.247 95.8055C145.062 95.5422 144.886 95.274 144.706 95.0058C144.618 95.3666 144.52 95.7226 144.408 96.0737C144.701 96.4638 144.667 97.088 144.067 97.1904C140.346 97.7678 136.572 97.9167 132.817 97.6341C132.741 97.692 132.652 97.7317 132.559 97.7503C132.465 97.7689 132.368 97.7659 132.276 97.7414C131.671 97.5854 131.217 96.9027 130.813 96.4443C130.608 96.2054 130.379 95.9567 130.184 95.6787C130.038 95.6323 129.908 95.5445 129.811 95.4258C129.714 95.3072 129.654 95.163 129.638 95.0106C128.701 89.5881 127.763 84.1655 126.824 78.743C126.38 76.1731 125.946 73.5935 125.278 71.0821C125.333 75.3083 125.392 79.5346 125.454 83.7608C125.522 88.2958 125.975 93.0259 125.454 97.5464C125.567 97.7071 125.635 97.8948 125.653 98.0906C125.67 98.2864 125.635 98.4833 125.552 98.6614C125.469 98.8395 125.341 98.9925 125.179 99.105C125.018 99.2174 124.83 99.2853 124.634 99.3019C122.381 99.4384 120.129 99.5164 117.871 99.4726C116.609 99.5213 115.346 99.4396 114.101 99.2287C114.065 99.3223 113.994 99.3984 113.903 99.441C113.813 99.4837 113.709 99.4898 113.614 99.4579C113.663 99.5767 113.683 99.7056 113.672 99.8338C113.662 99.962 113.62 100.086 113.551 100.194C113.482 100.303 113.388 100.393 113.277 100.458C113.165 100.522 113.04 100.559 112.911 100.565C110.627 100.61 108.351 100.851 106.109 101.287C104.719 101.565 103.339 102.038 101.92 102.12C101.288 102.161 100.653 102.087 100.048 101.901C99.9584 101.945 99.8592 101.966 99.7598 101.96C99.0623 101.82 98.4202 101.481 97.9117 100.984C97.3592 100.583 96.9602 100.005 96.7803 99.3458C96.7626 99.2408 96.7797 99.1329 96.8291 99.0386C96.8212 98.8985 96.8552 98.7594 96.9266 98.6387C96.9132 98.6153 96.9018 98.5908 96.8925 98.5655C96.4048 96.971 96.4731 95.2106 96.3366 93.5477C96.2439 92.4164 96.0781 91.2802 95.9513 90.1342C95.3418 90.1732 94.6786 90.2659 94.0008 90.3244C93.4741 94.8107 92.7134 99.4823 90.797 103.559C90.7615 103.638 90.7017 103.703 90.6263 103.744C90.5871 103.84 90.5246 103.923 90.4445 103.988C90.3644 104.053 90.2693 104.096 90.1679 104.115C86.8199 104.773 83.4017 105.003 79.9957 104.798C79.8872 104.789 79.7846 104.745 79.7042 104.672C79.6237 104.598 79.5702 104.5 79.552 104.393C79.0643 103.969 78.6206 103.52 78.172 103.057C78.0793 103.915 77.9672 104.768 77.816 105.622C77.8092 105.685 77.7886 105.746 77.7556 105.801C77.7227 105.856 77.6782 105.903 77.6253 105.939C77.5723 105.974 77.5122 105.998 77.4492 106.008C77.3861 106.018 77.3215 106.015 77.2601 105.997C77.2242 106.16 77.138 106.307 77.0138 106.419C76.8895 106.53 76.7334 106.599 76.5676 106.616C73.1932 106.997 69.7407 107.299 66.3272 106.987L66.2394 106.963C66.1313 107.007 66.0122 107.017 65.8981 106.992C65.308 106.846 64.8691 106.178 64.4888 105.734C64.1084 105.29 63.6939 104.788 63.3233 104.271C63.2338 104.204 63.1612 104.117 63.1113 104.017C63.0613 103.917 63.0354 103.807 63.0356 103.696C63.0285 103.603 63.0481 103.51 63.0922 103.427C63.1363 103.345 63.2029 103.278 63.2843 103.232V102.94L64.6448 103.013C68.1851 102.554 71.74 102.296 75.3046 102.135C74.9097 98.1998 75.3632 94.0646 75.4217 90.144C75.4899 85.6122 75.5029 81.0804 75.4607 76.5486C75.4168 71.8526 75.329 67.1615 75.1632 62.4704C75.0218 58.3986 74.1879 53.844 74.778 49.7918L74.9779 48.4264C75.2315 48.4654 75.4656 48.5044 75.7289 48.5532C75.8068 48.5664 75.8799 48.5999 75.9407 48.6504C76.0015 48.701 76.0479 48.7666 76.0751 48.8409C76.1308 48.8706 76.1817 48.9084 76.2263 48.953C76.5628 49.3236 76.8895 49.7089 77.2016 50.0892C77.4396 50.3237 77.6447 50.5895 77.8111 50.8792C77.9835 50.9622 78.1294 51.0913 78.2327 51.2523C78.336 51.4133 78.3927 51.5998 78.3963 51.7911C78.8059 60.8856 79.0253 69.9898 78.9717 79.0989C78.9717 80.5229 78.9538 81.9451 78.9181 83.3658C79.3374 80.9699 79.7438 78.5755 80.1372 76.1828C81.6326 67.0802 82.9834 57.9776 84.1895 48.875C84.2235 48.6184 84.3449 48.3814 84.5331 48.2037C84.7214 48.0261 84.9651 47.9187 85.2232 47.8997L85.2671 47.8656C87.3055 46.6221 90.4898 46.6611 92.8158 46.31C95.5905 45.8955 98.37 45.442 101.159 45.1397C101.701 45.2429 102.21 45.4717 102.647 45.8077C102.715 46.0174 102.778 46.2369 102.842 46.4514C103.001 46.6707 103.179 46.8763 103.373 47.0658C103.549 47.2268 103.763 47.3731 103.958 47.5242C104.189 47.5031 104.418 47.5713 104.6 47.7147C104.781 47.8581 104.901 48.0657 104.934 48.2947C106.704 56.6577 108.225 65.089 109.761 73.4959C109.761 72.6865 109.761 71.877 109.761 71.0577C109.761 62.2802 109.859 53.5027 110.103 44.7252C110.102 44.5454 110.153 44.3692 110.25 44.2177C110.346 44.0663 110.485 43.9462 110.649 43.8718C110.703 43.7722 110.779 43.6862 110.871 43.6203C110.963 43.5544 111.069 43.5103 111.18 43.4914C115.476 42.6527 119.958 42.4772 124.347 42.1065C124.521 42.0794 124.7 42.1071 124.858 42.1857C125.016 42.2643 125.146 42.39 125.229 42.5454C125.668 42.8429 126.107 43.1452 126.531 43.4768C127.117 43.8485 127.63 44.3225 128.048 44.8763C128.091 44.939 128.12 45.0101 128.133 45.0849C128.147 45.1598 128.144 45.2366 128.126 45.3103C129.311 47.3877 130.135 49.6698 131.076 51.8691C131.534 52.9419 132.022 54.0098 132.495 55.0875C132.251 51.2205 131.812 47.3584 131.486 43.5305C131.459 43.3616 131.484 43.1885 131.559 43.0349C131.634 42.8812 131.755 42.7545 131.905 42.6722C131.935 42.6049 131.98 42.5454 132.037 42.4981C132.094 42.4508 132.16 42.417 132.232 42.3991C135.406 41.5165 138.869 41.5604 142.111 40.8436C142.272 40.8021 142.44 40.8009 142.6 40.8401C142.761 40.8792 142.91 40.9575 143.033 41.0679C143.247 41.1241 143.435 41.2512 143.567 41.4284C143.699 41.6056 143.767 41.8223 143.76 42.0431V42.0675C144.3 42.7598 144.8 43.4827 145.257 44.2327V42.2821C145.264 42.0916 145.325 41.9071 145.433 41.7501C145.541 41.5931 145.692 41.4701 145.867 41.3954C146.042 41.3208 146.235 41.2975 146.424 41.3285C146.612 41.3594 146.787 41.4432 146.929 41.5701C150.83 40.8923 155.546 40.4388 159.427 40.8923C159.607 40.9094 159.777 40.9809 159.915 41.0971H159.974C160.004 41.0786 160.038 41.0663 160.073 41.061C160.108 41.0556 160.144 41.0573 160.178 41.0659C160.213 41.0745 160.245 41.0899 160.274 41.1112C160.302 41.1325 160.326 41.1592 160.344 41.1898L160.383 41.2434C160.491 41.3266 160.568 41.4432 160.603 41.575C160.817 41.8731 161.055 42.1536 161.315 42.4138C161.68 42.7746 162.144 42.9989 162.509 43.35C162.559 43.3996 162.597 43.4592 162.622 43.5248C162.646 43.5904 162.656 43.6606 162.651 43.7304C162.701 43.7958 162.725 43.8774 162.719 43.9596C162.766 43.9873 162.806 44.0263 162.835 44.0731C162.864 44.1198 162.881 44.1729 162.885 44.2278C163.016 47.2425 162.805 50.2624 162.256 53.2296C163.719 49.5138 165.216 45.7931 166.571 42.0139C166.53 41.842 166.558 41.6606 166.649 41.5092C166.74 41.3577 166.888 41.2482 167.059 41.2044C171.243 40.1511 175.627 40.0048 179.913 39.9999C180.166 39.9998 180.409 40.0978 180.591 40.2734C180.773 40.449 180.88 40.6884 180.889 40.9411C180.982 41.63 181.126 42.3112 181.318 42.9794C181.522 43.6231 181.986 44.2083 181.776 44.9007C181.741 45.0156 181.677 45.1197 181.591 45.2031C181.376 47.1195 180.401 48.9481 179.64 50.6988C178.694 52.8606 177.681 54.99 176.602 57.0869C174.686 60.8027 172.667 64.6843 170.19 68.0978C172.496 71.9989 174.608 76.0414 176.856 79.9816C178.036 82.0492 179.221 84.1151 180.411 86.1795C181.493 87.9789 182.746 89.671 182.99 91.7044ZM172.706 54.517C174.735 50.372 176.607 46.0906 178.923 42.1065C175.456 42.1602 172.004 42.4625 168.541 42.5942C166.498 49.4992 163.792 56.7016 160.149 62.9337L160.091 63.0166C159.93 64.0211 158.34 63.8846 158.199 62.7825C157.409 56.4822 157.262 49.0262 158.954 42.7551C155.104 43.3477 151.195 43.4688 147.314 43.116C147.412 51.5863 147.207 60.0712 146.993 68.5318C146.889 72.7385 146.752 76.9436 146.583 81.147C146.422 85.0481 146.466 89.1053 145.876 93.0016C147.232 92.865 148.597 92.8894 149.962 92.8211C151.913 92.7285 153.864 92.4018 155.814 92.2847C154.873 89.3589 155.205 85.7357 155.263 82.7319C155.339 79.0408 155.602 75.3559 156.053 71.6917C156.061 71.4924 156.125 71.2995 156.239 71.1358C156.353 70.9721 156.512 70.8445 156.696 70.768C156.88 70.6916 157.082 70.6695 157.279 70.7044C157.475 70.7394 157.657 70.8298 157.804 70.9651C160.139 72.8328 161.178 75.5148 162.129 78.2797C163.46 82.1077 164.757 85.9454 166.069 89.7783C169.464 89.007 172.917 88.5177 176.392 88.3153C174.637 85.2139 172.886 82.1093 171.141 79.0014C169.57 76.1877 166.942 72.8669 166.518 69.6143C166.256 69.4878 166.055 69.2634 165.957 68.9897C165.86 68.7161 165.874 68.4149 165.996 68.1514C168.025 63.5383 170.487 59.0716 172.706 54.517ZM141.341 68.288C141.455 59.9103 141.568 51.5343 141.682 43.1599C139.122 43.7596 136.216 44.2473 133.622 43.8084C134.26 51.3522 135.226 58.9643 134.358 66.5276C134.359 66.7641 134.273 66.9928 134.118 67.1711C133.962 67.3494 133.747 67.4652 133.513 67.4968C133.279 67.5284 133.041 67.4737 132.843 67.343C132.646 67.2122 132.503 67.0143 132.441 66.786L128.082 55.4094C126.697 51.7813 125.02 48.0948 124.205 44.2814C120.221 44.6667 116.149 45.2274 112.141 45.2567C111.892 53.7075 111.697 62.1632 111.653 70.614C111.653 74.7654 111.668 78.9153 111.697 83.0634V83.9705L112.151 86.4623C112.716 89.4954 113.458 92.5432 113.843 95.6202C116.516 95.1731 119.223 94.9626 121.933 94.9911C121.445 84.6824 122.255 74.2323 122.533 63.9187C122.522 63.696 122.589 63.4765 122.721 63.2968C122.852 63.117 123.042 62.9879 123.257 62.9309C123.473 62.8739 123.701 62.8924 123.905 62.9834C124.109 63.0744 124.275 63.2324 124.376 63.4311C126.814 67.7174 127.789 72.4817 128.623 77.2947C129.599 82.8213 130.553 88.3479 131.486 93.8744C134.947 93.1199 138.469 92.6776 142.009 92.5529C140.848 88.9005 141.117 84.9409 141.17 81.1519C141.229 76.8639 141.286 72.5776 141.341 68.2928V68.288ZM132.768 96.4199L133.383 96.3224C133.036 96.259 132.739 96.1956 132.51 96.142C132.602 96.2302 132.689 96.3247 132.768 96.4248V96.4199ZM98.1457 98.1364C101.749 97.283 106.119 96.4004 109.713 96.6345C108.391 88.1934 107.152 79.7475 105.704 71.326C104.969 67.064 104.204 62.8069 103.407 58.5547C102.7 54.7706 101.793 50.9767 101.369 47.1487C98.2627 47.7095 95.1175 48.124 91.9917 48.5336C90.3386 48.758 88.0516 49.4699 86.2766 49.1188C85.1257 57.8963 83.8384 66.6202 82.3754 75.3295C81.6017 79.91 80.7792 84.4841 79.908 89.0517C79.4593 91.4314 79.0692 93.8696 78.5816 96.2834C78.5377 97.7463 78.4938 99.1653 78.406 100.604C79.9714 100.258 81.5806 100.092 83.1508 99.8334C84.8868 99.5457 86.6179 99.1117 88.3734 98.9557C88.5977 97.3513 88.9635 95.7714 89.295 94.1865C89.7095 92.197 89.9192 90.1342 90.4654 88.1837C90.5012 88.0541 90.5681 87.9352 90.6604 87.8375C90.6445 87.7469 90.647 87.6542 90.6678 87.5646C90.6886 87.4751 90.7272 87.3907 90.7814 87.3165C90.8356 87.2423 90.9042 87.1798 90.9831 87.1327C91.0621 87.0856 91.1497 87.055 91.2407 87.0426C93.0255 86.8378 94.8249 86.7793 96.6048 86.5891C96.726 86.5698 96.85 86.5799 96.9665 86.6186C97.0829 86.6572 97.1884 86.7234 97.2739 86.8113C97.3595 86.8993 97.4227 87.0065 97.4581 87.124C97.4936 87.2415 97.5003 87.3657 97.4776 87.4864C97.5094 87.5422 97.5355 87.601 97.5557 87.6619C98.0159 89.4507 98.2679 91.2866 98.3066 93.1332C98.4139 94.7717 98.57 96.5418 98.1506 98.1413L98.1457 98.1364Z" fill="#222221"/>
<path d="M156.867 104.9C157.124 104.924 157.361 105.045 157.53 105.24C157.699 105.434 157.787 105.686 157.774 105.944C157.667 114.643 157.264 123.331 156.565 132.008C156.019 138.693 155.692 145.808 152.956 152.04C150.469 157.707 145.603 161.969 139.346 162.768C133.953 163.475 128.155 161.413 124.971 156.965C122.723 154.488 121.85 151.065 121.557 147.481C119.777 152.972 116.681 158.063 111.741 160.988C106.309 164.197 97.7263 163.695 94.108 158.087C91.7183 155.938 89.8874 153.24 88.7732 150.226C86.93 145.286 86.7252 139.864 86.6764 134.646C86.6764 133.866 86.6764 133.086 86.7056 132.31C85.5451 134.388 84.3796 136.46 83.3312 138.596C82.4242 140.459 81.7122 142.409 80.815 144.277C81.2538 147.325 81.5757 150.387 81.9219 153.449C82.3169 156.951 83.5019 160.764 83.3117 164.275C83.3067 164.38 83.2726 164.481 83.2131 164.567C83.1536 164.653 83.0712 164.721 82.9752 164.763C82.9717 164.932 82.9172 165.096 82.8189 165.233C82.7205 165.371 82.583 165.475 82.4242 165.533C77.8403 167.035 72.3739 167.518 67.5706 167.537C67.466 167.537 67.3641 167.504 67.2781 167.445C66.6246 167.337 65.9956 166.733 65.5518 166.313C64.9762 165.749 64.4836 165.105 64.0889 164.402C64.0397 164.325 64.0205 164.233 64.0349 164.143C64.0492 164.053 64.0963 163.972 64.1669 163.914C64.0906 163.321 64.0727 162.721 64.1133 162.125C64.1133 156.975 63.9231 151.792 64.4888 146.671L65.8249 146.798C66.1362 150.447 66.255 154.109 66.1809 157.77C66.1809 158.784 65.6932 162.339 66.5027 162.954C67.0684 163.373 71.2084 162.125 71.9497 161.978C73.6759 161.671 75.7581 161.637 77.3917 161.003C78.5426 160.564 78.2792 160.881 78.0939 159.76C77.9428 158.838 77.8501 157.887 77.7477 156.956C77.3545 153.211 77.1657 149.447 77.182 145.681C77.0493 145.601 76.9506 145.475 76.9048 145.326C76.8589 145.178 76.8691 145.018 76.9333 144.877C79.0399 139.362 82.1706 134.149 84.8624 128.892C87.4615 123.82 89.7827 118.437 92.6646 113.517C90.9335 113.853 88.4465 113.356 87.0129 113.273C84.6912 113.205 82.3803 112.929 80.1079 112.449C78.1573 118.886 76.0068 125.279 74.0075 131.71C73.9247 131.909 73.7787 132.074 73.5923 132.181C73.4058 132.288 73.1892 132.33 72.9762 132.301C72.7633 132.272 72.5658 132.174 72.4146 132.021C72.2633 131.869 72.1667 131.67 72.1398 131.457C71.6912 125.698 70.5062 119.856 70.3112 114.082C67.7121 114.872 64.8252 115.097 62.1578 115.545C59.7782 115.94 57.379 116.335 54.9749 116.52H53.8582C53.7425 116.453 53.6487 116.354 53.5879 116.235C53.5271 116.116 53.5018 115.981 53.5152 115.848C53.5286 115.715 53.58 115.589 53.6633 115.484C53.7466 115.379 53.8583 115.3 53.985 115.257C56.7943 114.491 59.6431 113.878 62.5187 113.419C65.1373 112.931 67.8535 112.21 70.516 112.156C70.629 112.15 70.7422 112.166 70.8486 112.205C70.955 112.243 71.0525 112.303 71.1353 112.38C71.2481 112.416 71.3481 112.484 71.423 112.575C71.5132 112.444 71.6512 112.352 71.8078 112.32C71.9644 112.288 72.1272 112.319 72.2617 112.405C72.697 112.693 73.0993 113.028 73.4613 113.404C73.9034 113.735 74.2486 114.178 74.461 114.687C74.4885 114.8 74.491 114.919 74.4682 115.033C74.4455 115.148 74.3981 115.256 74.3293 115.35C74.3586 115.799 74.3781 116.247 74.3927 116.701C74.5732 118.622 74.7585 120.548 74.9633 122.465C76.0653 118.964 77.1723 115.462 78.3231 111.976C78.374 111.816 78.4666 111.673 78.5913 111.561C78.5827 111.465 78.5937 111.367 78.6236 111.275C78.6536 111.183 78.702 111.098 78.7658 111.025C78.8296 110.952 78.9076 110.893 78.9949 110.851C79.0823 110.809 79.1772 110.785 79.274 110.781C81.5415 110.649 83.8383 110.937 86.101 111.059C88.1442 111.166 90.6897 111.615 92.7426 111.254C92.8871 111.184 93.0454 111.148 93.2059 111.148C93.3664 111.148 93.5247 111.184 93.6692 111.254L93.7813 111.308C93.9735 111.394 94.1266 111.548 94.2104 111.742C94.3336 111.751 94.4486 111.807 94.5323 111.898C98.2335 107.475 103.958 106.324 109.161 107.738C114.838 107.889 120.031 111.873 122.133 117.14C122.32 117.627 122.483 118.124 122.62 118.627C122.854 115.253 123.167 111.829 124.083 108.655C124.104 108.577 124.139 108.505 124.188 108.441C124.236 108.378 124.297 108.324 124.366 108.284C124.376 108.094 124.455 107.913 124.587 107.776C124.72 107.639 124.898 107.554 125.088 107.538C129.257 107.367 133.188 106.894 137.313 106.348C137.419 106.328 137.529 106.332 137.634 106.36C137.738 106.388 137.835 106.439 137.918 106.509C138.317 106.348 138.854 106.509 138.825 107.051C139.252 107.567 139.643 108.113 139.995 108.684C140.366 109.245 140.931 109.864 141.039 110.537C141.043 110.591 141.043 110.645 141.039 110.698C141.039 110.822 141.015 110.945 140.967 111.06C140.919 111.175 140.849 111.279 140.761 111.366C140.678 116.204 139.429 121.06 138.917 125.864C138.366 130.755 138.171 135.68 138.332 140.6C144.52 140.527 143.018 119.105 142.263 110.591C142.136 109.206 142.033 108.153 141.985 107.606C141.967 107.44 141.994 107.271 142.063 107.119C141.993 107.024 141.947 106.914 141.928 106.798C141.91 106.682 141.92 106.563 141.957 106.452C141.994 106.34 142.058 106.239 142.143 106.158C142.227 106.076 142.33 106.016 142.443 105.983C146.529 104.354 151.186 103.886 155.551 103.735C155.727 103.721 155.903 103.761 156.056 103.847C156.21 103.934 156.334 104.065 156.414 104.222C156.542 104.286 156.651 104.382 156.73 104.501C156.81 104.62 156.857 104.757 156.867 104.9ZM153.21 129.155C153.73 121.402 154.255 113.648 154.785 105.895C151.152 106.143 147.622 106.792 144.028 107.319C144.08 107.431 144.113 107.551 144.125 107.675C144.774 115.282 145.661 122.952 144.891 130.594C144.486 134.622 143.706 143.126 137.791 142.653C131.354 142.136 133.485 132.076 133.89 128.131C134.533 121.597 135.187 114.667 137.137 108.343C133.335 109.516 129.311 109.788 125.385 109.138C125.478 113.726 124.586 118.403 124.259 122.991C123.932 127.58 123.732 132.105 123.669 136.645C123.581 142.799 122.099 153.415 128.448 157.097C131.715 158.994 136.645 159.048 140.219 158.175C143.704 157.3 146.713 155.106 148.612 152.055C152.932 145.413 152.693 136.797 153.21 129.155ZM141.302 160.15L140.668 160.228C139.921 160.431 139.164 160.593 138.4 160.715C139.385 160.628 140.357 160.439 141.302 160.15ZM136.269 136.684C136.269 135.948 136.299 135.222 136.328 134.466C136.262 135.203 136.243 135.944 136.269 136.684ZM120.787 135.875C121.835 127.897 120.855 118.968 114.652 113.195C109.449 108.353 100.423 107.572 95.7563 113.614L95.8245 113.712C95.9893 113.724 96.1526 113.752 96.3122 113.795C96.4783 113.849 96.6201 113.961 96.713 114.109C96.8059 114.257 96.8441 114.433 96.8209 114.607C96.7978 114.78 96.7148 114.94 96.5863 115.059C96.4578 115.178 96.2919 115.248 96.1171 115.257H95.9806C95.9794 115.443 95.9325 115.626 95.844 115.789C93.5765 120.066 91.1968 124.284 88.8415 128.512C88.5164 131.243 88.4446 133.998 88.6269 136.743C88.8269 141.512 89.2267 146.496 91.2505 150.884C94.7322 158.458 102.851 162.305 110.317 157.56C117.442 153.064 119.748 143.755 120.787 135.875ZM79.2155 162.739H79.8348C79.8348 162.627 79.786 162.52 79.7665 162.407C79.602 162.547 79.4159 162.659 79.2155 162.739ZM72.3008 114.677L72.2764 114.653L71.9692 114.277C72.0179 114.458 72.0569 114.638 72.1057 114.824C72.1621 114.764 72.228 114.715 72.3008 114.677Z" fill="#222221"/>
<path d="M112.702 131.315C112.819 136.743 111.17 143.994 104.821 144.969C98.326 145.974 96.629 139.001 96.6631 133.9C96.6924 129.462 98.4479 120.782 103.631 119.441C103.75 119.28 103.924 119.168 104.119 119.124C110.946 117.193 112.599 126.615 112.702 131.315ZM104.607 143.024C110.946 141.99 112.321 130.262 109.664 124.23C109.518 124.292 109.361 124.321 109.203 124.314C109.045 124.307 108.891 124.265 108.752 124.191C103.675 121.699 100.789 127.546 100.398 131.671C100.047 135.441 100.398 139.566 102.91 142.556C103.032 142.689 103.1 142.863 103.1 143.043C103.6 143.112 104.108 143.105 104.607 143.024Z" fill="#222221"/>
<path d="M95.6053 57.9305C96.7951 65.0501 98.2922 72.6524 97.8094 79.8743C97.804 79.9577 97.7818 80.0392 97.7441 80.1138C97.7064 80.1884 97.6539 80.2546 97.59 80.3083C97.5902 80.4873 97.5394 80.6627 97.4436 80.8138C97.3477 80.965 97.2107 81.0857 97.0487 81.1617C95.259 81.82 92.8696 81.6494 90.9776 81.6884C90.8607 81.694 90.7449 81.6633 90.6462 81.6004C90.5475 81.5375 90.4708 81.4456 90.4265 81.3373C90.3645 81.3329 90.3042 81.3154 90.2495 81.2859C90.1947 81.2565 90.1469 81.2158 90.1091 81.1664C90.0713 81.1171 90.0444 81.0603 90.0302 80.9998C90.016 80.9393 90.0148 80.8765 90.0267 80.8155C90.4363 77.2216 91.2994 73.6959 91.8943 70.1313C92.5624 66.0888 92.9769 62.0267 93.2939 57.9403C93.3035 57.771 93.3571 57.6072 93.4494 57.465C93.5417 57.3228 93.6695 57.2071 93.8201 57.1293C93.9707 57.0515 94.1391 57.0143 94.3084 57.0214C94.4778 57.0285 94.6424 57.0797 94.786 57.1698C94.9939 57.1681 95.1945 57.246 95.3468 57.3874C95.4991 57.5288 95.5916 57.7231 95.6053 57.9305ZM92.933 80.0158C94.0981 79.7459 95.2922 79.6214 96.4879 79.6452C95.8735 76.6023 95.4687 73.5106 95.1128 70.4092C94.5325 73.6374 93.9473 76.9485 92.933 79.9914V80.0158Z" fill="#222221"/>
<path d="M75.0216 48.4702L74.8217 49.8356C71.8446 50.2627 68.8348 50.4178 65.8296 50.2989C66.4099 53.1857 66.4879 56.2237 66.7463 59.1398C66.9024 60.8807 67.0584 62.6264 67.2096 64.3673C67.3364 65.7864 67.0682 68.7561 67.8825 69.9557C67.9515 70.0679 67.9881 70.197 67.9881 70.3287C67.9881 70.4604 67.9515 70.5896 67.8825 70.7018C67.9128 70.8951 67.8716 71.0929 67.7666 71.2581C67.6616 71.4232 67.5 71.5444 67.312 71.599C64.4896 72.2985 61.5581 72.4426 58.6808 72.0233C58.5524 72.0969 58.4074 72.1369 58.2594 72.1395C58.1114 72.1421 57.9652 72.1072 57.8343 72.0381C57.7034 71.969 57.5921 71.8679 57.5107 71.7443C57.4294 71.6206 57.3806 71.4784 57.369 71.3308C57.4226 67.6443 57.8566 63.9284 58.159 60.2468C58.4028 57.1551 58.4564 53.9513 59.0514 50.8938C56.067 51.7131 52.439 51.8203 49.2303 51.635L49.0938 50.2209C50.5567 50.0843 52.0196 49.9917 53.4825 49.8698C55.4818 49.704 57.5592 49.2749 59.5585 49.3821C59.6494 49.3816 59.7395 49.3994 59.8233 49.4346C59.9071 49.4698 59.9829 49.5216 60.0461 49.5869C60.1697 49.6325 60.2767 49.714 60.3534 49.821C60.6947 50.06 61.0361 50.3087 61.3579 50.5573C61.7777 50.8521 62.1622 51.194 62.5039 51.5765C62.6487 51.6179 62.7755 51.7067 62.864 51.8287C62.9524 51.9507 62.9973 52.0989 62.9915 52.2495C62.9915 52.2738 62.9915 52.2933 62.9915 52.3177C62.5526 58.3108 62.4648 64.5868 61.2116 70.4872C62.8355 70.375 64.4544 70.2288 66.088 70.0873C66.0441 69.9459 66.0051 69.785 65.9564 69.5997C65.4687 67.5321 65.5467 65.0842 65.3566 62.9532C65.0445 59.4422 64.4495 55.7897 64.3813 52.2251C64.3569 51.362 64.3813 50.5037 64.4154 49.6552C64.4131 49.6276 64.4131 49.5999 64.4154 49.5723C64.3894 49.4801 64.3836 49.3833 64.3982 49.2886C64.4129 49.1939 64.4478 49.1035 64.5006 49.0235C64.5533 48.9434 64.6226 48.8757 64.7039 48.8248C64.7851 48.774 64.8763 48.7412 64.9713 48.7287C68.2901 48.1455 71.6772 48.0584 75.0216 48.4702Z" fill="#222221"/>
<path d="M67.8291 78.5382C68.7751 78.4845 68.9701 79.5768 68.463 80.1279C68.2094 83.8242 67.3463 87.5644 66.7709 91.2168C66.1467 95.1472 65.6981 99.1848 64.6887 103.042L63.3281 102.969C63.533 99.1897 64.3034 95.4105 64.8642 91.6801C65.3762 88.3739 65.6981 84.936 66.3661 81.6298C64.5917 81.924 62.7998 82.1015 61.0021 82.1613C61.4897 86.1844 61.4897 90.3439 61.6312 94.3816C61.7287 97.4147 61.8652 100.565 61.7287 103.647C61.6763 105.044 61.5493 106.437 61.3483 107.821C61.3269 107.936 61.2646 108.04 61.1728 108.114C61.1352 108.262 61.0527 108.395 60.9366 108.494C60.8205 108.594 60.6765 108.655 60.5242 108.669C56.4003 109.168 52.2386 109.278 48.0943 108.996C47.9679 108.987 47.8491 108.933 47.7595 108.843C47.67 108.754 47.6157 108.635 47.6066 108.509C47.4934 108.432 47.3843 108.348 47.2799 108.26H47.0897C47.009 108.257 46.9298 108.236 46.8573 108.201C46.7848 108.165 46.7205 108.114 46.6687 108.053C46.6168 107.991 46.5784 107.918 46.556 107.841C46.5337 107.763 46.5277 107.682 46.5387 107.602C46.1193 107.25 45.7097 106.894 45.3196 106.514C45.2788 106.477 45.2461 106.432 45.2238 106.382C45.2015 106.331 45.1899 106.277 45.1899 106.222C45.1899 106.166 45.2015 106.112 45.2238 106.061C45.2461 106.011 45.2788 105.966 45.3196 105.929C45.2345 105.781 45.1939 105.612 45.2025 105.441C45.2464 98.273 45.9877 91.0656 46.2071 83.8925C46.3176 80.2156 46.3843 76.5388 46.407 72.862C46.407 70.4238 46.3192 67.9856 46.446 65.5474L47.909 65.4743C48.1284 68.0783 48.0406 70.7262 48.0504 73.3253C48.0504 76.8395 48.0227 80.3554 47.9675 83.8729C47.8407 90.8511 47.8602 98.0535 46.9922 104.993C50.7568 104.671 54.5214 104.471 58.2762 104.017C57.3936 96.298 57.7885 88.3349 57.3302 80.5765C57.308 80.387 57.3579 80.1961 57.4699 80.0417C57.5819 79.8872 57.7478 79.7805 57.9348 79.7426C57.9757 79.6597 58.0362 79.588 58.1109 79.5337C58.1857 79.4793 58.2725 79.4439 58.364 79.4305C61.4996 78.9548 64.6597 78.6569 67.8291 78.5382Z" fill="#222221"/>
<path d="M66.1856 145.75C66.276 145.943 66.2879 146.164 66.2188 146.366C66.1497 146.568 66.0049 146.735 65.815 146.832L64.4789 146.705C64.3575 146.591 64.2626 146.451 64.2009 146.296C60.4656 136.699 56.1353 126.907 53.8532 116.847C53.8334 116.759 53.8334 116.667 53.8532 116.579H54.9699C59.3977 125.961 62.4015 136.099 66.1856 145.75Z" fill="#222221"/>
<path d="M50.1861 53.2247C50.2592 53.2978 50.3141 53.3871 50.3463 53.4854C50.3785 53.5837 50.3871 53.6882 50.3714 53.7904C50.0203 57.3258 50.0935 60.8319 50.0008 64.3722C50.0458 64.4671 50.0687 64.571 50.0676 64.6761C50.0665 64.7812 50.0415 64.8846 49.9945 64.9786C49.9475 65.0725 49.8798 65.1546 49.7964 65.2185C49.713 65.2824 49.6161 65.3265 49.5132 65.3475C48.993 65.4222 48.4664 65.4807 47.9332 65.523L46.4703 65.5962C45.3999 65.622 44.3293 65.5519 43.2714 65.3865C43.4794 72.7758 43.5298 80.1652 43.4225 87.5546C43.364 91.563 43.2275 95.5568 43.0666 99.5554C42.9251 103.105 43.1007 106.758 42.4716 110.284C42.4641 110.356 42.4396 110.425 42.4001 110.486C42.3606 110.546 42.3073 110.597 42.2444 110.633C42.1816 110.669 42.1111 110.69 42.0387 110.694C41.9663 110.697 41.8941 110.684 41.8279 110.654C41.7876 110.729 41.7296 110.792 41.659 110.839C41.5885 110.885 41.5075 110.914 41.4232 110.922C37.5952 111.634 33.2357 111.347 29.3541 110.922C29.2131 110.997 29.0483 111.013 28.8957 110.966C27.4996 110.503 26.3205 109.545 25.5798 108.274C25.5122 108.17 25.4872 108.043 25.5099 107.921C25.5326 107.799 25.6012 107.69 25.7017 107.616C25.6964 107.558 25.6964 107.499 25.7017 107.441C25.7748 100.092 26.243 92.7333 26.3649 85.3846C26.4673 79.3379 26.204 73.2228 26.3649 67.1664C26.3356 67.1664 26.3112 67.1664 26.2771 67.1664C25.3989 67.1549 24.5225 67.0848 23.6536 66.9567C23.6051 66.964 23.5558 66.964 23.5073 66.9567C22.7466 66.903 21.9664 66.235 21.4933 65.6693C21.1237 65.2416 20.8435 64.7442 20.6692 64.2064C20.5607 64.1406 20.4735 64.0448 20.4181 63.9306C20.3628 63.8164 20.3416 63.6887 20.3571 63.5627C20.3367 63.5227 20.322 63.48 20.3133 63.4359C19.7427 59.842 19.5672 56.1993 19.0259 52.6005C18.9939 52.4697 18.9915 52.3334 19.0188 52.2016C19.0461 52.0697 19.1024 51.9456 19.1837 51.8382C19.2649 51.7308 19.3691 51.6428 19.4885 51.5807C19.608 51.5186 19.7398 51.4838 19.8744 51.479C24.3704 51.0889 28.8713 50.8402 33.3723 50.5476C37.8732 50.255 42.4082 49.6552 46.8702 49.821C47.0093 49.8268 47.1449 49.8663 47.2655 49.9359C47.3861 50.0055 47.488 50.1033 47.5626 50.2209C47.7787 50.1697 48.0057 50.1938 48.2063 50.2891C48.5037 50.255 48.8012 50.2257 49.1035 50.2013L49.2401 51.6155C49.6911 52.0597 50.0174 52.6146 50.1861 53.2247ZM46.4654 61.9389C46.3581 58.5036 46.446 55.0651 46.7287 51.6399C42.5009 52.2738 38.0926 52.2738 33.8306 52.5176C29.5687 52.7615 25.175 53.054 20.8448 53.2247C21.3511 56.4002 21.5373 59.6185 21.4007 62.8312C23.2147 62.4996 25.1945 62.5825 27.0329 62.446C27.1825 62.3676 27.3495 62.3284 27.5184 62.332C27.6872 62.3357 27.8524 62.382 27.9984 62.4667C28.1445 62.5515 28.2667 62.6718 28.3537 62.8166C28.4407 62.9613 28.4896 63.1257 28.4959 63.2945C29.12 70.5652 28.6763 78.0749 28.5495 85.3651C28.4227 92.6553 28.413 99.9455 27.8375 107.182C31.6411 106.641 35.5179 106.49 39.3312 105.983C39.439 105.96 39.5502 105.96 39.6579 105.983C39.2239 98.9264 39.6189 91.7971 39.7457 84.7312C39.814 81.0414 39.8839 77.3467 39.9554 73.6471C40.0188 70.2775 39.6726 66.6007 40.3504 63.2945C40.3833 63.1551 40.4547 63.0277 40.5564 62.9269C40.6582 62.826 40.7861 62.7557 40.9258 62.724C40.9398 62.5763 41.0068 62.4386 41.1143 62.3364C41.2219 62.2343 41.3628 62.1744 41.511 62.168C43.1641 62.0364 44.8074 61.9827 46.4654 61.9389ZM22.5076 64.3771H21.9907C22.1029 64.5185 22.2199 64.655 22.3467 64.7867C22.3581 64.64 22.4142 64.5004 22.5076 64.3868V64.3771Z" fill="#222221"/>
<g style="mix-blend-mode:soft-light">
<path d="M44.9053 53.727C44.9016 53.5148 44.8156 53.3123 44.6655 53.1622C44.5154 53.0122 44.3129 52.9262 44.1007 52.9224C42.9206 52.9224 41.7405 52.9761 40.5653 53.0492C40.4024 53.0633 40.2507 53.138 40.1401 53.2585C40.0296 53.3791 39.9683 53.5367 39.9683 53.7002C39.9683 53.8638 40.0296 54.0213 40.1401 54.1419C40.2507 54.2624 40.4024 54.3371 40.5653 54.3512C41.4723 54.4195 42.3842 54.4731 43.2912 54.5024C43.2473 55.5411 43.0474 56.5261 42.9401 57.5794C42.867 58.3157 44.0812 58.662 44.403 57.9695C44.8835 56.6102 45.0551 55.1609 44.9053 53.727Z" fill="white"/>
</g>
<g style="mix-blend-mode:soft-light">
<path d="M37.5126 63.1288C37.4984 62.9658 37.4237 62.8141 37.3032 62.7036C37.1827 62.593 37.0251 62.5317 36.8616 62.5317C36.698 62.5317 36.5404 62.593 36.4199 62.7036C36.2994 62.8141 36.2247 62.9658 36.2106 63.1288C35.4693 69.707 35.8985 76.5047 35.9082 83.122C35.918 89.7393 35.8448 96.4541 35.9375 103.115C35.9823 103.336 36.1019 103.534 36.276 103.676C36.4502 103.819 36.6683 103.896 36.8933 103.896C37.1182 103.896 37.3363 103.819 37.5105 103.676C37.6847 103.534 37.8043 103.336 37.849 103.115C37.9319 96.4541 37.849 89.7832 37.849 83.122C37.849 76.4608 38.2879 69.707 37.5126 63.1288Z" fill="white"/>
</g>
<g style="mix-blend-mode:soft-light">
<path d="M72.4906 51.2547C72.3833 50.5964 71.4519 50.767 71.3252 51.3181C70.7733 51.2451 70.2142 51.2451 69.6623 51.3181C69.0089 51.3571 68.3749 51.44 67.7117 51.5375C67.5984 51.5707 67.4988 51.6397 67.428 51.7342C67.3571 51.8287 67.3188 51.9436 67.3188 52.0617C67.3188 52.1798 67.3571 52.2948 67.428 52.3893C67.4988 52.4838 67.5984 52.5528 67.7117 52.5859C68.3603 52.6786 68.9942 52.7664 69.6623 52.8054C70.1971 52.8639 70.7367 52.8639 71.2715 52.8054C71.0813 60.3979 71.686 68.0344 71.6129 75.6367C71.5739 79.5378 71.4812 83.4389 71.2715 87.3401C71.1707 89.1833 71.0456 91.025 70.896 92.865C70.8213 93.7818 70.74 94.7002 70.6522 95.6202C70.5937 96.2297 70.5303 96.8442 70.4669 97.4537C70.3689 97.6485 70.3228 97.8653 70.333 98.0831C70.3433 98.301 70.4096 98.5125 70.5254 98.6972C70.4672 98.7106 70.4102 98.7285 70.3548 98.7509L70.2085 98.8142C70.0717 98.8901 69.9585 99.0021 69.8811 99.138C69.8037 99.2739 69.7651 99.4284 69.7696 99.5847C69.7626 99.8104 69.8187 100.033 69.9316 100.229C70.0444 100.425 70.2095 100.585 70.4084 100.692C70.5503 100.778 70.713 100.823 70.879 100.823C71.0449 100.823 71.2077 100.778 71.3495 100.692C72.3248 99.9748 72.2224 99.0678 72.3248 97.9121C72.5638 95.6202 72.7491 93.3234 72.8954 91.0217C73.1733 86.7013 73.3147 82.3661 73.4074 78.0359C73.6122 69.2242 73.9097 59.9981 72.4906 51.2547Z" fill="white"/>
</g>
<g style="mix-blend-mode:soft-light">
<path d="M55.8429 53.5417C54.9359 52.6981 52.9658 53.4052 51.9417 53.5417C51.8124 53.5417 51.6884 53.5931 51.5969 53.6845C51.5055 53.776 51.4541 53.9 51.4541 54.0294C51.4541 54.1587 51.5055 54.2827 51.5969 54.3742C51.6884 54.4656 51.8124 54.517 51.9417 54.517C52.3562 54.5511 53.8387 54.4682 54.2385 54.7169C54.8676 54.6145 54.9992 54.9413 54.6384 55.6922L54.5945 56.6285C54.5214 58.1792 54.4775 59.7348 54.4141 61.2855C54.297 64.382 54.0727 67.5029 54.1166 70.6043C54.1166 71.6868 55.6917 71.6576 55.7795 70.6043C56.1598 66.1277 56.1257 61.5829 56.2671 57.0917C56.2817 56.136 56.6865 54.3366 55.8429 53.5417Z" fill="white"/>
</g>
<g style="mix-blend-mode:soft-light">
<path d="M107.07 93.0845C105.873 83.1756 104.334 73.3172 102.452 63.5091C101.974 61.0026 101.475 58.4978 100.955 55.9946C100.647 54.5073 100.638 51.9423 99.4916 50.8012C98.5163 49.8259 96.6731 50.1624 95.4735 50.1868C92.8938 50.2307 90.2996 50.3136 87.7297 50.5623C87.5932 50.5752 87.4663 50.6385 87.374 50.74C87.2816 50.8414 87.2305 50.9737 87.2305 51.1109C87.2305 51.248 87.2816 51.3803 87.374 51.4817C87.4663 51.5832 87.5932 51.6466 87.7297 51.6595C89.9729 51.8594 92.2502 51.9325 94.503 51.9715C95.1955 51.9715 96.7608 51.7521 97.4289 51.9715C98.7114 52.425 98.6139 53.5222 98.8382 54.5999C99.7289 58.8261 100.558 63.0524 101.325 67.2786C102.881 75.8367 104.153 84.4386 105.226 93.065C105.343 94.2646 107.216 94.289 107.07 93.0845Z" fill="white"/>
</g>
<g style="mix-blend-mode:soft-light">
<path d="M128.472 62.3193C126.404 57.5355 124.478 52.6688 122.264 47.9534C121.738 46.8269 121.289 46.1784 119.948 46.1686C118.134 46.1686 115.559 46.5002 114.028 47.4804C113.962 47.5219 113.909 47.5814 113.876 47.6518C113.843 47.7222 113.83 47.8007 113.84 47.878C113.85 47.9553 113.881 48.0282 113.931 48.0882C113.981 48.1482 114.047 48.1928 114.121 48.2167C115.706 48.7043 117.149 48.0948 118.768 48.1533C120.187 48.2021 120.138 48.2362 120.84 49.3334C121.406 50.2209 121.733 51.4059 122.152 52.3811L126.853 63.2945C127.326 64.3917 128.945 63.436 128.472 62.3193Z" fill="white"/>
</g>
<g style="mix-blend-mode:soft-light">
<path d="M138.571 76.6412C138.829 67.1566 139.132 57.6769 139.376 48.1923C139.405 47.0122 137.571 47.0122 137.537 48.1923C137.318 56.0969 137.157 63.9967 136.952 71.9014C136.854 75.5879 136.508 79.3818 136.776 83.0683C136.879 84.4191 137.532 85.8479 137.523 87.1645C137.523 89.7636 134.319 89.3443 132.461 89.6515C131.973 89.7246 132.129 90.4317 132.568 90.4512C134.811 90.539 138.717 91.4557 139.263 88.4031C139.571 86.6915 138.639 84.7507 138.508 83.0683C138.417 80.9263 138.438 78.781 138.571 76.6412Z" fill="white"/>
</g>
<g style="mix-blend-mode:soft-light">
<path d="M155.122 62.646C154.561 62.3485 154.956 59.569 154.966 58.9253L155.039 54.2098C155.083 51.2254 155.219 48.2167 154.883 45.2421C154.81 44.5935 153.727 44.2668 153.615 45.0714C153.03 49.0164 153.127 53.0639 153.064 57.0381C153.025 58.9107 151.903 63.6261 154.41 64.3527C155.4 64.6161 156.068 63.1385 155.122 62.646Z" fill="white"/>
</g>
<g style="mix-blend-mode:soft-light">
<path d="M175.632 44.0669C175.666 43.9293 175.651 43.7838 175.587 43.6568C175.524 43.5298 175.417 43.4296 175.287 43.3743C175.156 43.319 175.01 43.3122 174.875 43.3551C174.74 43.3981 174.624 43.4879 174.549 43.6085C172.374 47.3292 170.736 51.3766 168.605 55.1412C166.474 58.9058 163.933 62.4217 161.661 66.1228C161.579 66.2676 161.55 66.4367 161.579 66.6006C161.608 66.7645 161.694 66.913 161.822 67.0201C161.949 70.2141 164.299 73.2424 165.767 75.9634C167.679 79.5086 169.512 83.122 171.541 86.6037C172.058 87.4864 173.36 86.7061 172.901 85.8089C171.297 82.6246 169.488 79.5232 167.791 76.3974C166.138 73.3741 163.729 70.1117 163.051 66.708C165.679 63.3872 167.844 59.5933 169.917 55.9165C172.038 52.1568 174.34 48.1777 175.632 44.0669Z" fill="white"/>
</g>
<g style="mix-blend-mode:soft-light">
<path d="M68.5212 116.33C68.3798 115.721 67.3606 115.843 67.4094 116.481C67.8483 122.006 68.531 127.878 69.8476 133.256C70.0427 134.046 71.3544 133.9 71.3105 133.061C70.9204 127.527 69.7842 121.724 68.5212 116.33Z" fill="white"/>
</g>
<g style="mix-blend-mode:soft-light">
<path d="M88.3928 115.418C83.4535 121.977 79.3578 129.129 76.2018 136.709C73.2223 143.765 73.7636 151.553 74.6511 158.989C74.7779 160.067 76.4749 160.106 76.3725 158.989C75.6362 151.041 74.9535 143.36 78.4255 135.899C81.6244 129.019 85.6815 122.606 89.1535 115.877C89.1881 115.778 89.1877 115.671 89.1524 115.573C89.1171 115.475 89.0491 115.392 88.9598 115.338C88.8704 115.284 88.7653 115.263 88.662 115.277C88.5587 115.292 88.4637 115.342 88.3928 115.418Z" fill="white"/>
</g>
<g style="mix-blend-mode:soft-light">
<path d="M116.847 120.066C114.765 115.677 110.995 112.122 106.119 111.288C104.836 111.074 104.29 113.039 105.577 113.239C116.159 114.96 117.651 127.146 116.735 135.807C116.247 140.386 115.759 145.403 113.643 149.573C111.458 153.913 106.855 157.131 101.876 155.873C101.218 155.707 100.721 156.726 101.389 157.019C105.811 158.911 110.566 156.873 113.497 153.284C116.935 149.066 117.651 143.307 118.324 138.094C119.1 132.125 119.504 125.673 116.847 120.066Z" fill="white"/>
</g>
<g style="mix-blend-mode:soft-light">
<path d="M150.674 109.62C149.87 119.212 149.177 128.824 148.236 138.391C147.807 142.814 147.09 147.773 144.081 151.26C141.351 154.43 137.254 156.053 133.183 154.634C132.568 154.42 132.207 155.351 132.749 155.668C136.021 157.575 139.883 156.853 142.94 154.83C146.641 152.391 148.529 148.241 149.421 144.019C150.513 138.854 150.635 133.456 151.074 128.209C151.591 122.006 152.114 115.805 152.644 109.606C152.752 108.367 150.782 108.372 150.674 109.62Z" fill="white"/>
</g>
</svg>
