<svg width="257" height="125" viewBox="0 0 257 125" fill="none" xmlns="http://www.w3.org/2000/svg">
<g opacity="0.03">
<path d="M6.86003 -4.73241L-53.0308 0.281475L3.77651 -19.3478C5.67142 -20.0127 7.75282 -19.8976 9.56287 -19.0279C11.3729 -18.1581 12.7633 -16.6049 13.4282 -14.71C14.0931 -12.8151 13.978 -10.7337 13.1082 -8.92362C12.2385 -7.11357 10.6853 -5.72316 8.79039 -5.05828C8.1635 -4.86765 7.51476 -4.75815 6.86003 -4.73241Z" fill="url(#paint0_radial)"/>
<path d="M6.84039 -5.23202L6.82934 -5.23158L6.81832 -5.23066L-49.0939 -0.549852L3.93981 -18.8752L3.94205 -18.876C5.71185 -19.497 7.65579 -19.3895 9.34631 -18.5772C11.0368 -17.7649 12.3354 -16.3143 12.9564 -14.5445C13.5774 -12.7747 13.4699 -10.8307 12.6576 -9.14018C11.8467 -7.45282 10.4001 -6.15594 8.63482 -5.53359C8.05194 -5.35728 7.44894 -5.25595 6.84039 -5.23202Z" stroke="white" stroke-opacity="0.5"/>
<path d="M32.5312 27.1812L-1.2373 68.4454L21.3252 20.1116C21.6955 19.3132 22.2195 18.5956 22.8672 17.9998C23.5149 17.404 24.2736 16.9415 25.1 16.6389C25.9264 16.3363 26.8043 16.1994 27.6836 16.236C28.5629 16.2727 29.4265 16.4822 30.2248 16.8526C31.0232 17.2229 31.7407 17.7469 32.3366 18.3946C32.9324 19.0423 33.3948 19.801 33.6975 20.6274C34.0001 21.4538 34.137 22.3318 34.1003 23.2111C34.0637 24.0904 33.8542 24.9539 33.4838 25.7522C33.2268 26.2662 32.9068 26.7463 32.5312 27.1812Z" fill="url(#paint1_radial)"/>
<path d="M32.1528 26.8543L32.1527 26.8542L32.1442 26.8645L0.905121 65.0379L21.7782 20.3231L21.7787 20.322C22.1215 19.5832 22.6064 18.9192 23.2057 18.3678C23.8051 17.8164 24.5072 17.3885 25.2719 17.1084C26.0367 16.8284 26.8491 16.7017 27.6628 16.7356C28.4765 16.7695 29.2756 16.9634 30.0144 17.3061C30.7532 17.6489 31.4172 18.1338 31.9686 18.7331C32.52 19.3325 32.9479 20.0346 33.228 20.7994C33.508 21.5641 33.6347 22.3765 33.6008 23.1902C33.5669 24.0015 33.3741 24.7982 33.0333 25.5351C32.7955 26.0096 32.4997 26.4527 32.1528 26.8543Z" stroke="white" stroke-opacity="0.5"/>
<path d="M-9.83646 66.4649C-9.44483 64.7641 -8.55761 63.2176 -7.28702 62.021C-6.01644 60.8244 -4.41954 60.0314 -2.69829 59.7424C-0.977032 59.4534 0.791268 59.6814 2.38299 60.3974C3.97472 61.1134 5.31838 62.2852 6.24405 63.7649C7.16971 65.2446 7.63581 66.9655 7.5834 68.7101C7.53098 70.4546 6.96241 72.1445 5.94958 73.5659C4.93675 74.9873 3.52516 76.0765 1.89332 76.6956C0.261477 77.3147 -1.51735 77.4361 -3.21814 77.0442C-5.49862 76.5189 -7.47702 75.1091 -8.71818 73.1252C-9.95933 71.1412 -10.3616 68.7455 -9.83646 66.4649Z" fill="url(#paint2_radial)"/>
<path d="M-9.34921 66.5771C-8.97977 64.9727 -8.14283 63.5138 -6.94423 62.385C-5.74563 61.2562 -4.23922 60.5082 -2.61549 60.2355C-0.991772 59.9629 0.676335 60.1779 2.17788 60.8533C3.67942 61.5288 4.94695 62.6343 5.82016 64.0301C6.69338 65.4259 7.13307 67.0494 7.08362 68.6951C7.03417 70.3408 6.49782 71.9349 5.54238 73.2758C4.58693 74.6166 3.25533 75.6441 1.71595 76.2281C0.176571 76.8122 -1.50146 76.9266 -3.10589 76.557C-5.25715 76.0614 -7.12346 74.7315 -8.29429 72.86C-9.46512 70.9884 -9.84458 68.7285 -9.34921 66.5771Z" stroke="white" stroke-opacity="0.5"/>
<path d="M131.53 41.4205L139.903 81.5316L121.878 44.7547C121.28 43.528 121.193 42.1138 121.638 40.8233C122.082 39.5328 123.021 38.4716 124.247 37.8732C125.474 37.2748 126.888 37.1882 128.179 37.6325C129.469 38.0768 130.531 39.0155 131.129 40.2422C131.309 40.6176 131.444 41.0131 131.53 41.4205Z" fill="url(#paint3_radial)"/>
<path d="M131.041 41.524L138.6 77.7372L122.328 44.5355C122.328 44.5354 122.328 44.5352 122.328 44.535C121.787 43.4276 121.709 42.151 122.11 40.9861C122.512 39.8209 123.359 38.8628 124.467 38.3226C125.574 37.7823 126.851 37.7042 128.016 38.1053C129.181 38.5063 130.139 39.3533 130.679 40.4602C130.842 40.7989 130.963 41.1558 131.041 41.5234C131.041 41.5236 131.041 41.5238 131.041 41.524Z" stroke="white" stroke-opacity="0.5"/>
<path d="M134.563 85.6681C133.744 84.6114 133.256 83.3357 133.161 82.002C133.066 80.6682 133.368 79.3362 134.029 78.1739C134.69 77.0116 135.68 76.0712 136.875 75.4712C138.07 74.8712 139.416 74.6387 140.743 74.8028C142.07 74.9669 143.319 75.5204 144.332 76.3934C145.344 77.2665 146.076 78.4199 146.434 79.7082C146.792 80.9966 146.76 82.362 146.343 83.6324C145.926 84.9028 145.142 86.0211 144.09 86.8463C143.388 87.3968 142.584 87.8032 141.724 88.042C140.865 88.2808 139.967 88.3474 139.081 88.2379C138.196 88.1284 137.341 87.845 136.566 87.404C135.79 86.963 135.11 86.373 134.563 85.6681Z" fill="url(#paint4_radial)"/>
<path d="M134.958 85.3617C134.2 84.3831 133.748 83.2016 133.659 81.9664C133.571 80.7312 133.851 79.4975 134.463 78.4211C135.076 77.3447 135.993 76.4737 137.1 75.918C138.206 75.3624 139.453 75.147 140.682 75.299C141.911 75.451 143.067 75.9636 144.005 76.7722C144.943 77.5807 145.621 78.6489 145.952 79.8421C146.284 81.0353 146.254 82.2999 145.868 83.4764C145.482 84.6529 144.755 85.6886 143.781 86.4529C143.131 86.9627 142.387 87.3391 141.591 87.5603C140.795 87.7814 139.963 87.8431 139.143 87.7417C138.323 87.6403 137.531 87.3778 136.813 86.9694C136.095 86.5609 135.465 86.0146 134.958 85.3617Z" stroke="white" stroke-opacity="0.5"/>
<path d="M177.181 -2.35067L226.718 31.6936L170.312 10.9612C169.344 10.5681 168.468 9.97758 167.74 9.22714C167.013 8.4767 166.45 7.58285 166.087 6.60265C165.724 5.62245 165.57 4.57742 165.634 3.53419C165.697 2.49096 165.978 1.47243 166.457 0.543622C166.936 -0.385184 167.604 -1.20387 168.417 -1.86027C169.231 -2.51666 170.172 -2.99633 171.181 -3.26866C172.19 -3.54099 173.245 -3.6 174.278 -3.44194C175.311 -3.28389 176.3 -2.91222 177.181 -2.35067Z" fill="url(#paint5_radial)"/>
<path d="M174.202 -2.9477C175.164 -2.80058 176.084 -2.45522 176.905 -1.93357L223.154 29.8509L170.493 10.4948C169.592 10.1279 168.777 9.57772 168.099 8.87912C167.42 8.17857 166.895 7.34414 166.556 6.42911C166.217 5.51408 166.073 4.53853 166.133 3.56465C166.192 2.59078 166.454 1.63995 166.901 0.772901C167.349 -0.0941482 167.972 -0.858407 168.731 -1.47117C169.49 -2.08393 170.369 -2.53171 171.311 -2.78593C172.253 -3.04016 173.238 -3.09524 174.202 -2.9477Z" stroke="white" stroke-opacity="0.5"/>
<path d="M225.315 41.5458C223.343 41.28 221.494 40.4335 220.005 39.1142C218.516 37.7948 217.452 36.0621 216.951 34.1367C216.449 32.2112 216.531 30.18 217.187 28.3016C217.843 26.4231 219.043 24.7823 220.635 23.5878C222.226 22.3934 224.137 21.6994 226.124 21.5942C228.111 21.4889 230.084 21.9772 231.793 22.9968C233.501 24.0164 234.868 25.5213 235.719 27.3199C236.57 29.1186 236.866 31.1297 236.571 33.0974C236.18 35.7015 234.78 38.0472 232.674 39.628C230.568 41.2087 227.924 41.8976 225.315 41.5458Z" fill="url(#paint6_radial)"/>
<path d="M225.381 41.0503C223.508 40.7977 221.752 39.9935 220.337 38.7399C218.921 37.4863 217.911 35.84 217.434 34.0106C216.958 32.1812 217.036 30.2512 217.659 28.4664C218.283 26.6816 219.423 25.1226 220.935 23.9877C222.447 22.8529 224.262 22.1935 226.15 22.0935C228.038 21.9935 229.913 22.4574 231.537 23.4261C233.16 24.3949 234.459 25.8247 235.267 27.5337C236.075 29.2427 236.357 31.1536 236.076 33.0231C235.705 35.4974 234.375 37.7262 232.374 39.2281C230.373 40.73 227.861 41.3845 225.381 41.0503Z" stroke="white" stroke-opacity="0.5"/>
<path d="M99.0902 62.0023C153.794 62.0023 198.139 17.6565 198.139 -37.0469C198.139 -91.7502 153.794 -136.096 99.0902 -136.096C44.3868 -136.096 0.0410156 -91.7502 0.0410156 -37.0469C0.0410156 17.6565 44.3868 62.0023 99.0902 62.0023Z" fill="#00075A"/>
<path d="M197.639 -37.0469C197.639 17.3803 153.517 61.5023 99.0902 61.5023C44.663 61.5023 0.541016 17.3803 0.541016 -37.0469C0.541016 -91.4741 44.663 -135.596 99.0902 -135.596C153.517 -135.596 197.639 -91.4741 197.639 -37.0469Z" stroke="white" stroke-opacity="0.5"/>
<path d="M81.7925 63.8326L67.6533 115.225L68.631 61.9023C68.6475 61.0233 68.8369 60.1561 69.1885 59.3503C69.5401 58.5445 70.047 57.8159 70.6802 57.206C71.3133 56.5961 72.0605 56.1169 72.8789 55.7957C73.6972 55.4745 74.5709 55.3177 75.4499 55.3341C76.3289 55.3506 77.1961 55.54 78.0019 55.8916C78.8077 56.2432 79.5363 56.7501 80.1462 57.3833C80.7562 58.0164 81.2354 58.7636 81.5566 59.5819C81.8777 60.4003 82.0345 61.274 82.0181 62.153C82.0082 62.7197 81.9324 63.2834 81.7925 63.8326Z" fill="url(#paint7_radial)"/>
<path d="M81.5182 62.1436L81.5182 62.1442C81.5089 62.6707 81.4388 63.1943 81.3091 63.7046L68.2261 111.258L69.1309 61.9117C69.1309 61.9116 69.1309 61.9115 69.1309 61.9115C69.1462 61.0982 69.3215 60.2958 69.6468 59.5503C69.9721 58.8047 70.4411 58.1305 71.027 57.5661C71.6129 57.0017 72.3042 56.5583 73.0615 56.2611C73.8188 55.9639 74.6272 55.8188 75.4405 55.834C76.2539 55.8493 77.0563 56.0246 77.8019 56.3499C78.5475 56.6752 79.2218 57.1442 79.7861 57.7301C80.3505 58.316 80.7939 59.0073 81.0911 59.7646C81.3883 60.5219 81.5334 61.3303 81.5182 62.1436Z" stroke="white" stroke-opacity="0.5"/>
<path d="M58.9791 116.904C58.6484 115.19 58.8335 113.417 59.511 111.808C60.1885 110.199 61.3279 108.827 62.7851 107.866C64.2423 106.905 65.9519 106.398 67.6975 106.408C69.4431 106.419 71.1464 106.947 72.5918 107.926C74.0372 108.905 75.1598 110.29 75.8176 111.907C76.4755 113.524 76.639 115.3 76.2874 117.01C75.9359 118.72 75.0851 120.287 73.8427 121.513C72.6003 122.739 71.0221 123.57 69.3078 123.899C68.1701 124.121 66.9998 124.115 65.8641 123.884C64.7284 123.652 63.6497 123.198 62.6899 122.548C61.7302 121.898 60.9083 121.065 60.2715 120.096C59.6347 119.128 59.1955 118.043 58.9791 116.904Z" fill="url(#paint8_radial)"/>
<path d="M59.4704 116.811L59.4701 116.81C59.1581 115.193 59.3327 113.52 59.9718 112.002C60.6109 110.484 61.6858 109.19 63.0604 108.284C64.4351 107.377 66.0478 106.898 67.6945 106.908C69.3412 106.918 70.9479 107.416 72.3114 108.34C73.6749 109.263 74.7339 110.57 75.3545 112.096C75.9751 113.621 76.1293 115.296 75.7977 116.909C75.466 118.522 74.6634 120 73.4914 121.157C72.3194 122.314 70.8307 123.097 69.2135 123.408L69.2121 123.408C68.1391 123.617 67.0352 123.612 65.9641 123.394C64.8929 123.175 63.8755 122.747 62.9703 122.134C62.0651 121.521 61.2899 120.735 60.6893 119.822C60.0887 118.908 59.6744 117.885 59.4704 116.811Z" stroke="white" stroke-opacity="0.5"/>
<path d="M74.6979 27.0306L47.3472 84.2641L59.6813 22.0418C59.8855 21.0147 60.2899 20.0378 60.8715 19.1669C61.4532 18.2961 62.2006 17.5483 63.0713 16.9663C63.9419 16.3843 64.9187 15.9795 65.9458 15.775C66.9728 15.5705 68.0301 15.5703 69.0573 15.7745C70.0844 15.9786 71.0613 16.383 71.9322 16.9647C72.803 17.5463 73.5508 18.2938 74.1328 19.1644C74.7148 20.0351 75.1196 21.0118 75.3241 22.0389C75.5286 23.0659 75.5287 24.1233 75.3246 25.1504C75.1955 25.801 74.9849 26.4327 74.6979 27.0306Z" fill="url(#paint9_radial)"/>
<path d="M74.2471 26.8143L74.2468 26.8151L48.611 80.4597L60.1718 22.1393C60.3631 21.1765 60.7421 20.2609 61.2873 19.4446C61.8325 18.6284 62.5331 17.9275 63.3491 17.382C64.1652 16.8365 65.0807 16.4571 66.0434 16.2654C67.0061 16.0737 67.9971 16.0736 68.9598 16.2649C69.9226 16.4562 70.8382 16.8353 71.6545 17.3805L71.9322 16.9647L71.6545 17.3805C72.4707 17.9256 73.1716 18.6263 73.7171 19.4423C74.2626 20.2583 74.642 21.1738 74.8337 22.1365C75.0254 23.0992 75.0255 24.0902 74.8342 25.053L74.8342 25.0531C74.7133 25.6625 74.516 26.2542 74.2471 26.8143Z" stroke="white" stroke-opacity="0.5"/>
<path d="M36.9434 84.3893C36.9138 82.311 37.5015 80.2707 38.632 78.5265C39.7625 76.7823 41.385 75.4128 43.2942 74.5911C45.2034 73.7695 47.3135 73.5328 49.3573 73.9109C51.4011 74.289 53.2868 75.2649 54.7757 76.7152C56.2646 78.1655 57.2898 80.0249 57.7215 82.0581C58.1532 84.0913 57.972 86.2068 57.2008 88.1369C56.4296 90.0671 55.1032 91.7251 53.3893 92.901C51.6755 94.077 49.6512 94.718 47.5729 94.743C44.7913 94.7765 42.1099 93.7052 40.1172 91.7641C38.1245 89.8231 36.9831 87.1709 36.9434 84.3893Z" fill="url(#paint10_radial)"/>
<path d="M37.4434 84.3822C37.4152 82.4028 37.9749 80.4596 39.0515 78.7984C40.1282 77.1373 41.6735 75.8329 43.4918 75.0504C45.3102 74.2679 47.3198 74.0424 49.2664 74.4025C51.2129 74.7626 53.0088 75.6921 54.4268 77.0734C55.8449 78.4546 56.8213 80.2255 57.2324 82.1619C57.6435 84.0983 57.4709 86.1131 56.7365 87.9514C56.002 89.7897 54.7387 91.3688 53.1064 92.4887C51.4742 93.6087 49.5463 94.2192 47.5669 94.243C44.9177 94.2749 42.364 93.2546 40.4661 91.406C38.5682 89.5573 37.4811 87.0313 37.4434 84.3822Z" stroke="white" stroke-opacity="0.5"/>
<path d="M142.586 16.5266L178.485 64.735L131.781 26.9053C130.225 25.6453 129.233 23.8189 129.024 21.8279C128.815 19.8368 129.405 17.8442 130.665 16.2884C131.925 14.7326 133.752 13.741 135.743 13.5318C137.734 13.3226 139.726 13.9128 141.282 15.1728C141.773 15.5666 142.211 16.0215 142.586 16.5266Z" fill="url(#paint11_radial)"/>
<path d="M142.184 16.8246L142.185 16.8252L175.707 61.8411L132.096 26.5167L132.096 26.5167C130.643 25.3402 129.717 23.6348 129.522 21.7756C129.326 19.9164 129.877 18.0558 131.054 16.6031C132.23 15.1503 133.936 14.2244 135.795 14.029C137.654 13.8337 139.515 14.3849 140.967 15.5614L140.969 15.5627C141.426 15.9297 141.835 16.3539 142.184 16.8246Z" stroke="white" stroke-opacity="0.5"/>
<path d="M173.947 73.6096C172.168 72.7183 170.695 71.3179 169.714 69.5866C168.733 67.8552 168.29 65.8712 168.44 63.887C168.59 61.9028 169.327 60.0082 170.557 58.4442C171.788 56.8802 173.455 55.7176 175.348 55.1043C177.241 54.4911 179.274 54.4549 181.188 55.0003C183.101 55.5458 184.809 56.6482 186.095 58.1674C187.38 59.6865 188.184 61.5537 188.405 63.5313C188.626 65.5088 188.253 67.5074 187.335 69.2726C186.119 71.6082 184.034 73.3721 181.529 74.1836C179.025 74.995 176.301 74.7889 173.947 73.6096Z" fill="url(#paint12_radial)"/>
<path d="M174.171 73.1626C172.481 72.3157 171.081 70.9852 170.149 69.3401C169.217 67.6951 168.796 65.81 168.938 63.9248C169.081 62.0395 169.781 60.2393 170.95 58.7533C172.119 57.2673 173.704 56.1627 175.502 55.58C177.301 54.9973 179.232 54.9629 181.051 55.4811C182.869 55.9994 184.492 57.0469 185.713 58.4903C186.934 59.9337 187.698 61.7078 187.908 63.5867C188.118 65.4657 187.764 67.3646 186.891 69.0418C185.736 71.2609 183.755 72.9369 181.375 73.7079C178.996 74.4789 176.408 74.283 174.171 73.1626Z" stroke="white" stroke-opacity="0.5"/>
<g opacity="0.2">
<path d="M124.654 0.970745C158.465 -22.9159 169.684 -65.1976 149.712 -93.468C129.74 -121.738 86.1398 -125.292 52.3284 -101.405C18.517 -77.5188 7.29805 -35.2371 27.2702 -6.96668C47.2424 21.3037 90.8425 24.8574 124.654 0.970745Z" fill="url(#paint13_linear)"/>
<path d="M149.304 -93.1795C169.07 -65.2001 158.023 -23.2155 124.365 0.562373C90.7081 24.3402 47.4452 20.7243 27.6786 -7.25518C7.91196 -35.2346 18.9595 -77.2192 52.6169 -100.997C86.2743 -124.775 129.537 -121.159 149.304 -93.1795Z" stroke="white" stroke-opacity="0.5"/>
</g>
<path d="M29.222 5.97241L-31.4961 24.2229L22.8293 -8.36729C24.6411 -9.45769 26.8119 -9.78368 28.864 -9.27357C30.9162 -8.76347 32.6817 -7.45904 33.7721 -5.64724C34.8625 -3.83544 35.1885 -1.66468 34.6784 0.387494C34.1683 2.43967 32.8639 4.20512 31.0521 5.29553C30.474 5.59966 29.8588 5.82722 29.222 5.97241Z" fill="url(#paint14_radial)"/>
<path d="M29.1109 5.48492L29.0943 5.48869L29.0781 5.49358L-27.8039 22.5911L23.0865 -7.93852L23.0871 -7.93889C24.7853 -8.96091 26.8199 -9.26646 28.7434 -8.78834C30.6669 -8.31022 32.3217 -7.0876 33.3437 -5.38941C34.3657 -3.69123 34.6713 -1.6566 34.1932 0.266881C33.7162 2.1857 32.4983 3.83709 30.8066 4.8597C30.2706 5.14028 29.7007 5.35044 29.1109 5.48492Z" stroke="white" stroke-opacity="0.5"/>
<path d="M102.324 -1.69875L95.7311 43.2758L90.9679 -1.84916C90.8117 -3.35844 91.2614 -4.86798 92.2181 -6.04569C93.1749 -7.22339 94.5603 -7.97281 96.0696 -8.12905C97.5788 -8.2853 99.0884 -7.83557 100.266 -6.87884C101.444 -5.9221 102.193 -4.5367 102.349 -3.02742C102.385 -2.58478 102.376 -2.13974 102.324 -1.69875Z" fill="url(#paint15_radial)"/>
<path d="M101.829 -1.76411L95.8119 39.2777L91.4653 -1.90064C91.4653 -1.9008 91.4652 -1.90095 91.4652 -1.90111C91.3228 -3.27834 91.7332 -4.65576 92.6062 -5.73042C93.4793 -6.8052 94.7437 -7.48912 96.1211 -7.63171C97.4984 -7.7743 98.876 -7.36388 99.9508 -6.49075C101.024 -5.61887 101.708 -4.3569 101.851 -2.9818C101.883 -2.57611 101.876 -2.16829 101.829 -1.76411Z" stroke="white" stroke-opacity="0.5"/>
<path d="M88.5611 45.6069C88.1032 44.1919 88.0752 42.673 88.4805 41.242C88.8857 39.8111 89.7062 38.5324 90.8381 37.5677C91.97 36.6029 93.3625 35.9954 94.8396 35.822C96.3167 35.6486 97.8121 35.917 99.1366 36.5933C100.461 37.2696 101.556 38.3234 102.281 39.6216C103.007 40.9197 103.332 42.4039 103.214 43.8865C103.096 45.3691 102.542 46.7835 101.62 47.9509C100.699 49.1184 99.452 49.9864 98.0373 50.4454C97.0974 50.7503 96.1067 50.867 95.1216 50.7888C94.1366 50.7106 93.1767 50.4391 92.2966 49.9898C91.4166 49.5404 90.6337 48.9221 89.9927 48.1701C89.3518 47.418 88.8653 46.5471 88.5611 45.6069Z" fill="url(#paint16_radial)"/>
<path d="M89.0368 45.453C88.6094 44.1321 88.5832 42.7141 88.9615 41.3783C89.3399 40.0425 90.1058 38.8488 91.1624 37.9482C92.2191 37.0476 93.519 36.4805 94.8979 36.3186C96.2768 36.1567 97.6727 36.4073 98.9093 37.0386C100.146 37.67 101.167 38.6537 101.845 39.8656C102.522 41.0774 102.825 42.4629 102.715 43.847C102.606 45.231 102.088 46.5513 101.228 47.6412C100.368 48.731 99.2036 49.5413 97.883 49.9698C97.0056 50.2544 96.0807 50.3633 95.1612 50.2904C94.2417 50.2174 93.3455 49.9639 92.524 49.5444C91.7025 49.125 90.9716 48.5478 90.3733 47.8457C89.7749 47.1437 89.3208 46.3306 89.0368 45.453Z" stroke="white" stroke-opacity="0.5"/>
<g opacity="0.3">
<g style="mix-blend-mode:multiply" opacity="0.3">
<path d="M152.739 -6.03584C152.739 -4.39961 152.253 -2.80015 151.344 -1.43968C150.435 -0.0792046 149.143 0.981162 147.632 1.60732C146.12 2.23347 144.457 2.39731 142.852 2.0781C141.247 1.75888 139.773 0.970971 138.616 -0.186015C137.459 -1.343 136.671 -2.81708 136.352 -4.42187C136.033 -6.02666 136.196 -7.69008 136.823 -9.20176C137.449 -10.7134 138.509 -12.0055 139.87 -12.9145C141.23 -13.8235 142.83 -14.3087 144.466 -14.3087C146.66 -14.3087 148.764 -13.4371 150.316 -11.8857C151.867 -10.3342 152.739 -8.22995 152.739 -6.03584Z" fill="#040068"/>
<path d="M152.239 -6.03584C152.239 -4.4985 151.783 -2.99571 150.929 -1.71746C150.075 -0.439211 148.861 0.557068 147.44 1.14538C146.02 1.73369 144.457 1.88762 142.949 1.5877C141.442 1.28778 140.057 0.547491 138.97 -0.539569C137.882 -1.62663 137.142 -3.01162 136.842 -4.51942C136.542 -6.02721 136.696 -7.5901 137.285 -9.01042C137.873 -10.4307 138.869 -11.6447 140.147 -12.4988C141.426 -13.3529 142.928 -13.8087 144.466 -13.8087C146.527 -13.8087 148.504 -12.9898 149.962 -11.5321C151.42 -10.0744 152.239 -8.09734 152.239 -6.03584Z" stroke="white" stroke-opacity="0.5"/>
</g>
<g style="mix-blend-mode:multiply" opacity="0.3">
<path d="M47.9738 19.4597C47.9738 20.4117 47.6915 21.3423 47.1626 22.1338C46.6337 22.9254 45.882 23.5423 45.0025 23.9066C44.123 24.2709 43.1551 24.3662 42.2215 24.1805C41.2878 23.9948 40.4301 23.5363 39.757 22.8632C39.0838 22.19 38.6254 21.3324 38.4397 20.3987C38.2539 19.465 38.3492 18.4972 38.7136 17.6177C39.0779 16.7382 39.6948 15.9864 40.4863 15.4576C41.2779 14.9287 42.2085 14.6464 43.1605 14.6464C44.4371 14.6464 45.6614 15.1535 46.564 16.0561C47.4667 16.9588 47.9738 18.1831 47.9738 19.4597Z" fill="#040068"/>
<path d="M47.4738 19.4597C47.4738 20.3128 47.2208 21.1467 46.7469 21.856C46.2729 22.5654 45.5993 23.1182 44.8111 23.4447C44.023 23.7711 43.1557 23.8565 42.319 23.6901C41.4823 23.5237 40.7138 23.1129 40.1105 22.5096C39.5073 21.9064 39.0965 21.1379 38.9301 20.3012C38.7636 19.4645 38.849 18.5972 39.1755 17.809C39.502 17.0209 40.0548 16.3472 40.7641 15.8733C41.4734 15.3993 42.3074 15.1464 43.1605 15.1464C44.3045 15.1464 45.4016 15.6008 46.2105 16.4097C47.0194 17.2186 47.4738 18.3157 47.4738 19.4597Z" stroke="white" stroke-opacity="0.5"/>
</g>
<g style="mix-blend-mode:multiply" opacity="0.3">
<path d="M168.583 14.6464C168.583 15.6033 168.299 16.5388 167.767 17.3345C167.235 18.1301 166.48 18.7503 165.596 19.1165C164.712 19.4827 163.739 19.5785 162.8 19.3918C161.862 19.2051 161 18.7443 160.323 18.0677C159.646 17.391 159.185 16.5289 158.999 15.5903C158.812 14.6518 158.908 13.6789 159.274 12.7948C159.64 11.9107 160.26 11.1551 161.056 10.6234C161.852 10.0918 162.787 9.80799 163.744 9.80799C164.38 9.80467 165.011 9.92754 165.6 10.1695C166.188 10.4115 166.723 10.7678 167.173 11.2177C167.623 11.6677 167.979 12.2024 168.221 12.7909C168.463 13.3794 168.586 14.0101 168.583 14.6464Z" fill="#040068"/>
<path d="M168.083 14.6438V14.6464C168.083 15.5045 167.828 16.3432 167.351 17.0567C166.875 17.7701 166.197 18.3262 165.404 18.6545C164.612 18.9829 163.739 19.0688 162.898 18.9014C162.056 18.734 161.283 18.3208 160.676 17.7141C160.07 17.1074 159.657 16.3344 159.489 15.4928C159.322 14.6512 159.408 13.7789 159.736 12.9862C160.064 12.1934 160.62 11.5159 161.334 11.0392C162.047 10.5624 162.886 10.308 163.744 10.308L163.747 10.308C164.317 10.305 164.882 10.4151 165.41 10.632C165.937 10.8488 166.416 11.1681 166.819 11.5713C167.222 11.9745 167.542 12.4536 167.759 12.981C167.975 13.5084 168.086 14.0736 168.083 14.6438Z" stroke="white" stroke-opacity="0.5"/>
</g>
<g style="mix-blend-mode:multiply" opacity="0.3">
<path d="M125.162 47.011C127.821 47.011 129.976 44.856 129.976 42.1977C129.976 39.5393 127.821 37.3843 125.162 37.3843C122.504 37.3843 120.349 39.5393 120.349 42.1977C120.349 44.856 122.504 47.011 125.162 47.011Z" fill="#040068"/>
<path d="M129.476 42.1977C129.476 44.5798 127.545 46.511 125.162 46.511C122.78 46.511 120.849 44.5798 120.849 42.1977C120.849 39.8155 122.78 37.8843 125.162 37.8843C127.545 37.8843 129.476 39.8155 129.476 42.1977Z" stroke="white" stroke-opacity="0.5"/>
</g>
<g style="mix-blend-mode:multiply" opacity="0.3">
<path d="M70.7114 3.26489C72.0405 3.26489 73.118 2.18741 73.118 0.858248C73.118 -0.470915 72.0405 -1.54843 70.7114 -1.54843C69.3822 -1.54843 68.3047 -0.470915 68.3047 0.858248C68.3047 2.18741 69.3822 3.26489 70.7114 3.26489Z" fill="#040068"/>
<path d="M72.618 0.858248C72.618 1.91127 71.7644 2.76489 70.7114 2.76489C69.6583 2.76489 68.8047 1.91126 68.8047 0.858248C68.8047 -0.194773 69.6583 -1.04843 70.7114 -1.04843C71.7644 -1.04843 72.618 -0.194783 72.618 0.858248Z" stroke="white" stroke-opacity="0.5"/>
</g>
<g style="mix-blend-mode:multiply" opacity="0.3">
<path d="M118.619 6.72445C119.948 6.72445 121.026 5.64694 121.026 4.31777C121.026 2.98861 119.948 1.91113 118.619 1.91113C117.29 1.91113 116.212 2.98861 116.212 4.31777C116.212 5.64694 117.29 6.72445 118.619 6.72445Z" fill="#040068"/>
<path d="M120.526 4.31777C120.526 5.3708 119.672 6.22445 118.619 6.22445C117.566 6.22445 116.712 5.37079 116.712 4.31777C116.712 3.26476 117.566 2.41113 118.619 2.41113C119.672 2.41113 120.526 3.26475 120.526 4.31777Z" stroke="white" stroke-opacity="0.5"/>
</g>
</g>
</g>
<defs>
<radialGradient id="paint0_radial" cx="0" cy="0" r="1" gradientUnits="userSpaceOnUse" gradientTransform="translate(-69.6099 1.75995) rotate(-121.02) scale(114.241)">
<stop offset="0.2" stop-color="#2DE0DB"/>
<stop offset="0.26" stop-color="#2BD8D6"/>
<stop offset="0.36" stop-color="#27C1C9"/>
<stop offset="0.48" stop-color="#1F9CB3"/>
<stop offset="0.62" stop-color="#146994"/>
<stop offset="0.77" stop-color="#07286E"/>
<stop offset="0.84" stop-color="#00075A"/>
</radialGradient>
<radialGradient id="paint1_radial" cx="0" cy="0" r="1" gradientUnits="userSpaceOnUse" gradientTransform="translate(297440 -116834) rotate(-167) scale(1429.29 2111.58)">
<stop offset="0.2" stop-color="#2DE0DB"/>
<stop offset="0.26" stop-color="#2BD8D6"/>
<stop offset="0.36" stop-color="#27C1C9"/>
<stop offset="0.48" stop-color="#1F9CB3"/>
<stop offset="0.62" stop-color="#146994"/>
<stop offset="0.77" stop-color="#07286E"/>
<stop offset="0.84" stop-color="#00075A"/>
</radialGradient>
<radialGradient id="paint2_radial" cx="0" cy="0" r="1" gradientUnits="userSpaceOnUse" gradientTransform="translate(130738 -26651.8) rotate(-167) scale(106.952)">
<stop stop-color="#2DE0DB"/>
<stop offset="0.09" stop-color="#2BD8D6"/>
<stop offset="0.23" stop-color="#27C1C9"/>
<stop offset="0.41" stop-color="#1F9CB3"/>
<stop offset="0.62" stop-color="#146994"/>
<stop offset="0.84" stop-color="#07286E"/>
<stop offset="0.95" stop-color="#00075A"/>
</radialGradient>
<radialGradient id="paint3_radial" cx="0" cy="0" r="1" gradientUnits="userSpaceOnUse" gradientTransform="translate(109253 -78635.1) rotate(141.93) scale(575.664 1371.33)">
<stop offset="0.2" stop-color="#2DE0DB"/>
<stop offset="0.26" stop-color="#2BD8D6"/>
<stop offset="0.36" stop-color="#27C1C9"/>
<stop offset="0.48" stop-color="#1F9CB3"/>
<stop offset="0.62" stop-color="#146994"/>
<stop offset="0.77" stop-color="#07286E"/>
<stop offset="0.84" stop-color="#00075A"/>
</radialGradient>
<radialGradient id="paint4_radial" cx="0" cy="0" r="1" gradientUnits="userSpaceOnUse" gradientTransform="translate(73454 -56038.9) rotate(141.93) scale(62.9493)">
<stop stop-color="#2DE0DB"/>
<stop offset="0.09" stop-color="#2BD8D6"/>
<stop offset="0.23" stop-color="#27C1C9"/>
<stop offset="0.41" stop-color="#1F9CB3"/>
<stop offset="0.62" stop-color="#146994"/>
<stop offset="0.84" stop-color="#07286E"/>
<stop offset="0.95" stop-color="#00075A"/>
</radialGradient>
<radialGradient id="paint5_radial" cx="0" cy="0" r="1" gradientUnits="userSpaceOnUse" gradientTransform="translate(131891 -337106) rotate(98.0491) scale(2783.85 1604.83)">
<stop offset="0.2" stop-color="#2DE0DB"/>
<stop offset="0.26" stop-color="#2BD8D6"/>
<stop offset="0.36" stop-color="#27C1C9"/>
<stop offset="0.48" stop-color="#1F9CB3"/>
<stop offset="0.62" stop-color="#146994"/>
<stop offset="0.77" stop-color="#07286E"/>
<stop offset="0.84" stop-color="#00075A"/>
</radialGradient>
<radialGradient id="paint6_radial" cx="0" cy="0" r="1" gradientUnits="userSpaceOnUse" gradientTransform="translate(58852.5 -97872) rotate(98.0491) scale(136.959 136.959)">
<stop stop-color="#2DE0DB"/>
<stop offset="0.09" stop-color="#2BD8D6"/>
<stop offset="0.23" stop-color="#27C1C9"/>
<stop offset="0.41" stop-color="#1F9CB3"/>
<stop offset="0.62" stop-color="#146994"/>
<stop offset="0.84" stop-color="#07286E"/>
<stop offset="0.95" stop-color="#00075A"/>
</radialGradient>
<radialGradient id="paint7_radial" cx="0" cy="0" r="1" gradientUnits="userSpaceOnUse" gradientTransform="translate(79526.1 -126560) rotate(169.09) scale(580.958 2422.03)">
<stop offset="0.2" stop-color="#2DE0DB"/>
<stop offset="0.26" stop-color="#2BD8D6"/>
<stop offset="0.36" stop-color="#27C1C9"/>
<stop offset="0.48" stop-color="#1F9CB3"/>
<stop offset="0.62" stop-color="#146994"/>
<stop offset="0.77" stop-color="#07286E"/>
<stop offset="0.84" stop-color="#00075A"/>
</radialGradient>
<radialGradient id="paint8_radial" cx="0" cy="0" r="1" gradientUnits="userSpaceOnUse" gradientTransform="translate(122568 -53315.7) rotate(169.09) scale(106.952 106.978)">
<stop stop-color="#2DE0DB"/>
<stop offset="0.09" stop-color="#2BD8D6"/>
<stop offset="0.23" stop-color="#27C1C9"/>
<stop offset="0.41" stop-color="#1F9CB3"/>
<stop offset="0.62" stop-color="#146994"/>
<stop offset="0.84" stop-color="#07286E"/>
<stop offset="0.95" stop-color="#00075A"/>
</radialGradient>
<radialGradient id="paint9_radial" cx="0" cy="0" r="1" gradientUnits="userSpaceOnUse" gradientTransform="translate(4884.09 10773.3) scale(1407.65 3434.87)">
<stop offset="0.2" stop-color="#2DE0DB"/>
<stop offset="0.26" stop-color="#2BD8D6"/>
<stop offset="0.36" stop-color="#27C1C9"/>
<stop offset="0.48" stop-color="#1F9CB3"/>
<stop offset="0.62" stop-color="#146994"/>
<stop offset="0.77" stop-color="#07286E"/>
<stop offset="0.84" stop-color="#00075A"/>
</radialGradient>
<radialGradient id="paint10_radial" cx="0" cy="0" r="1" gradientUnits="userSpaceOnUse" gradientTransform="translate(152107 -51738.2) rotate(179.27) scale(151.259)">
<stop stop-color="#2DE0DB"/>
<stop offset="0.09" stop-color="#2BD8D6"/>
<stop offset="0.23" stop-color="#27C1C9"/>
<stop offset="0.41" stop-color="#1F9CB3"/>
<stop offset="0.62" stop-color="#146994"/>
<stop offset="0.84" stop-color="#07286E"/>
<stop offset="0.95" stop-color="#00075A"/>
</radialGradient>
<radialGradient id="paint11_radial" cx="0" cy="0" r="1" gradientUnits="userSpaceOnUse" gradientTransform="translate(227743 -262149) rotate(117.06) scale(2256.31 2335.73)">
<stop offset="0.2" stop-color="#2DE0DB"/>
<stop offset="0.26" stop-color="#2BD8D6"/>
<stop offset="0.36" stop-color="#27C1C9"/>
<stop offset="0.48" stop-color="#1F9CB3"/>
<stop offset="0.62" stop-color="#146994"/>
<stop offset="0.77" stop-color="#07286E"/>
<stop offset="0.84" stop-color="#00075A"/>
</radialGradient>
<radialGradient id="paint12_radial" cx="0" cy="0" r="1" gradientUnits="userSpaceOnUse" gradientTransform="translate(83723.2 -98253.7) rotate(117.06) scale(136.979 136.979)">
<stop stop-color="#2DE0DB"/>
<stop offset="0.09" stop-color="#2BD8D6"/>
<stop offset="0.23" stop-color="#27C1C9"/>
<stop offset="0.41" stop-color="#1F9CB3"/>
<stop offset="0.62" stop-color="#146994"/>
<stop offset="0.84" stop-color="#07286E"/>
<stop offset="0.95" stop-color="#00075A"/>
</radialGradient>
<linearGradient id="paint13_linear" x1="-8.5902" y1="-187.592" x2="130.81" y2="9.72813" gradientUnits="userSpaceOnUse">
<stop stop-color="white"/>
<stop offset="0.14" stop-color="white" stop-opacity="0.8"/>
<stop offset="0.34" stop-color="white" stop-opacity="0.52"/>
<stop offset="0.53" stop-color="white" stop-opacity="0.3"/>
<stop offset="0.69" stop-color="white" stop-opacity="0.14"/>
<stop offset="0.82" stop-color="white" stop-opacity="0.04"/>
<stop offset="0.89" stop-color="white" stop-opacity="0"/>
</linearGradient>
<radialGradient id="paint14_radial" cx="0" cy="0" r="1" gradientUnits="userSpaceOnUse" gradientTransform="translate(381391 163165) rotate(-133) scale(3193.66 1622.17)">
<stop offset="0.2" stop-color="#2DE0DB"/>
<stop offset="0.26" stop-color="#2BD8D6"/>
<stop offset="0.36" stop-color="#27C1C9"/>
<stop offset="0.48" stop-color="#1F9CB3"/>
<stop offset="0.62" stop-color="#146994"/>
<stop offset="0.77" stop-color="#07286E"/>
<stop offset="0.84" stop-color="#00075A"/>
</radialGradient>
<radialGradient id="paint15_radial" cx="0" cy="0" r="1" gradientUnits="userSpaceOnUse" gradientTransform="translate(2093.71 7824.4) scale(403.481 1815.15)">
<stop offset="0.2" stop-color="#2DE0DB"/>
<stop offset="0.26" stop-color="#2BD8D6"/>
<stop offset="0.36" stop-color="#27C1C9"/>
<stop offset="0.48" stop-color="#1F9CB3"/>
<stop offset="0.62" stop-color="#146994"/>
<stop offset="0.77" stop-color="#07286E"/>
<stop offset="0.84" stop-color="#00075A"/>
</radialGradient>
<radialGradient id="paint16_radial" cx="0" cy="0" r="1" gradientUnits="userSpaceOnUse" gradientTransform="translate(95650.1 -49865.5) rotate(162.05) scale(77.7654)">
<stop stop-color="#2DE0DB"/>
<stop offset="0.09" stop-color="#2BD8D6"/>
<stop offset="0.23" stop-color="#27C1C9"/>
<stop offset="0.41" stop-color="#1F9CB3"/>
<stop offset="0.62" stop-color="#146994"/>
<stop offset="0.84" stop-color="#07286E"/>
<stop offset="0.95" stop-color="#00075A"/>
</radialGradient>
</defs>
</svg>
